<svg xmlns="http://www.w3.org/2000/svg" version="1.1" viewBox="0 0 2700 1600"><path d="M0 0H2700V1600H0z"/><path fill="#2dca4b" d="m0-37.1 16.1 3.7L29-23.1l7.2 14.8V8.3L29 23.1 16.1 33.4 0 37.1l-16.1-3.7L-29 23.1l-7.2-14.8V-8.3l7.2-14.8 12.9-10.3z" transform="translate(2078 156)"/><path fill="#2dca4b" d="m0-24 10.4 2.4 8.4 6.6 4.6 9.7V5.3L18.8 15l-8.4 6.6L0 24l-10.4-2.4-8.4-6.6-4.6-9.7V-5.3l4.6-9.7 8.4-6.6z" transform="translate(881 1479)"/><path fill="#2dca4b" d="m0-6 2.6.6 2.1 1.7 1.1 2.4v2.6L4.7 3.7 2.6 5.4 0 6l-2.6-.6-2.1-1.7-1.1-2.4v-2.6l1.1-2.4 2.1-1.7z" transform="translate(2392 113)"/><path fill="#2dca4b" d="m0-32 13.9 3.2L25-20l6.2 12.9V7.1L25 20l-11.1 8.8L0 32l-13.9-3.2L-25 20l-6.2-12.9V-7.1L-25-20l11.1-8.8z" transform="translate(1406 1347)"/><path fill="#2dca4b" d="m0-18 7.8 1.8 6.3 5L17.5-4v8l-3.4 7.2-6.3 5L0 18l-7.8-1.8-6.3-5-3.4-7.2v-8l3.4-7.2 6.3-5z" transform="translate(2406 1430)"/><path fill="#2dca4b" d="m0-26 11.3 2.6 9 7.2 5 10.4V5.8l-5 10.4-9 7.2L0 26l-11.3-2.6-9-7.2-5-10.4V-5.8l5-10.4 9-7.2z" transform="translate(1852 1392)"/><path fill="#2dca4b" d="m0-34 14.8 3.4 11.8 9.4 6.5 13.6V7.6l-6.5 13.6-11.8 9.4L0 34l-14.8-3.4-11.8-9.4-6.5-13.6V-7.6l6.5-13.6 11.8-9.4z" transform="translate(849 1171)"/><path fill="#2dca4b" d="m0-20 8.7 2 6.9 5.5 3.9 8v9l-3.9 8L8.7 18 0 20l-8.7-2-6.9-5.5-3.9-8v-9l3.9-8 6.9-5.5z" transform="translate(1741 159)"/><path fill="#2dca4b" d="m0-16 6.9 1.6 5.6 4.4 3.1 6.4v7.2L12.5 10l-5.6 4.4L0 16l-6.9-1.6-5.6-4.4-3.1-6.4v-7.2l3.1-6.4 5.6-4.4z" transform="translate(1661 917)"/><path fill="#2dca4b" d="m0-31 13.5 3.1 10.7 8.6 6 12.4V6.9l-6 12.4-10.7 8.6L0 31l-13.5-3.1-10.7-8.6-6-12.4V-6.9l6-12.4 10.7-8.6z" transform="translate(1717 1001)"/><path fill="#2dca4b" d="m0-18 7.8 1.8 6.3 5L17.5-4v8l-3.4 7.2-6.3 5L0 18l-7.8-1.8-6.3-5-3.4-7.2v-8l3.4-7.2 6.3-5z" transform="translate(1006 980)"/><path fill="#2dca4b" d="m0-21 9.1 2.1 7.3 5.8 4.1 8.4v9.4l-4.1 8.4-7.3 5.8L0 21l-9.1-2.1-7.3-5.8-4.1-8.4v-9.4l4.1-8.4 7.3-5.8z" transform="translate(466 1189)"/><path fill="#2dca4b" d="m0-26 11.3 2.6 9 7.2 5 10.4V5.8l-5 10.4-9 7.2L0 26l-11.3-2.6-9-7.2-5-10.4V-5.8l5-10.4 9-7.2z" transform="translate(1900 1470)"/><path fill="#2dca4b" d="m0-7 3 .7 2.5 1.9 1.3 2.8v3.2L5.5 4.4 3 6.3 0 7l-3-.7-2.5-1.9-1.3-2.8v-3.2l1.3-2.8L-3-6.3z" transform="translate(1292 1214)"/><path fill="#2dca4b" d="m0-33 14.3 3.3 11.5 9.1 6.4 13.3V7.3l-6.4 13.3-11.5 9.1L0 33l-14.3-3.3-11.5-9.1-6.4-13.3V-7.3l6.4-13.3 11.5-9.1z" transform="translate(2612 880)"/><path fill="#2dca4b" d="m0-27 11.7 2.7 9.4 7.5L26.3-6V6l-5.2 10.8-9.4 7.5L0 27l-11.7-2.7-9.4-7.5L-26.3 6V-6l5.2-10.8 9.4-7.5z" transform="translate(374 499)"/><path fill="#2dca4b" d="m0-8 3.5.8L6.3-5l1.5 3.2v3.6L6.3 5 3.5 7.2 0 8l-3.5-.8L-6.3 5l-1.5-3.2v-3.6L-6.3-5l2.8-2.2z" transform="translate(2503 1147)"/><path fill="#2dca4b" d="m0-35 15.2 3.5 12.2 9.7 6.7 14V7.8l-6.7 14-12.2 9.7L0 35l-15.2-3.5-12.2-9.7-6.7-14V-7.8l6.7-14 12.2-9.7z" transform="translate(1619 732)"/><path fill="#2dca4b" d="m0-17 7.4 1.7 5.9 4.7 3.3 6.8v7.6l-3.3 6.8-5.9 4.7L0 17l-7.4-1.7-5.9-4.7-3.3-6.8v-7.6l3.3-6.8 5.9-4.7z" transform="translate(2444 464)"/><path fill="#2dca4b" d="m0-27 11.7 2.7 9.4 7.5L26.3-6V6l-5.2 10.8-9.4 7.5L0 27l-11.7-2.7-9.4-7.5L-26.3 6V-6l5.2-10.8 9.4-7.5z" transform="translate(28 1351)"/><path fill="#2dca4b" d="m0-18 7.8 1.8 6.3 5L17.5-4v8l-3.4 7.2-6.3 5L0 18l-7.8-1.8-6.3-5-3.4-7.2v-8l3.4-7.2 6.3-5z" transform="translate(1794 778)"/><path fill="#2dca4b" d="m0-28 12.1 2.8 9.8 7.7 5.4 11.3V6.2l-5.4 11.3-9.8 7.7L0 28l-12.1-2.8-9.8-7.7-5.4-11.3V-6.2l5.4-11.3 9.8-7.7z" transform="translate(2272 1435)"/><path fill="#2dca4b" d="m0-18 7.8 1.8 6.3 5L17.5-4v8l-3.4 7.2-6.3 5L0 18l-7.8-1.8-6.3-5-3.4-7.2v-8l3.4-7.2 6.3-5z" transform="translate(1960 344)"/><path fill="#2dca4b" d="m0-25 10.8 2.5 8.7 6.9 4.9 10V5.6l-4.9 10-8.7 6.9L0 25l-10.8-2.5-8.7-6.9-4.9-10V-5.6l4.9-10 8.7-6.9z" transform="translate(989 744)"/><path fill="#2dca4b" d="m0-22 9.5 2.2 7.7 6.1 4.2 8.8v9.8l-4.2 8.8-7.7 6.1L0 22l-9.5-2.2-7.7-6.1-4.2-8.8v-9.8l4.2-8.8 7.7-6.1z" transform="translate(203 400)"/><path fill="#2dca4b" d="m0-15 6.5 1.5 5.2 4.1 2.9 6.1v6.6l-2.9 6.1-5.2 4.1L0 15l-6.5-1.5-5.2-4.1-2.9-6.1v-6.6l2.9-6.1 5.2-4.1z" transform="translate(274 488)"/><path fill="#2dca4b" d="m0-7 3 .7 2.5 1.9 1.3 2.8v3.2L5.5 4.4 3 6.3 0 7l-3-.7-2.5-1.9-1.3-2.8v-3.2l1.3-2.8L-3-6.3z" transform="translate(2553 313)"/><path fill="#2dca4b" d="m0-20 8.7 2 6.9 5.5 3.9 8v9l-3.9 8L8.7 18 0 20l-8.7-2-6.9-5.5-3.9-8v-9l3.9-8 6.9-5.5z" transform="translate(1397 537)"/><path fill="#2dca4b" d="m0-18 7.8 1.8 6.3 5L17.5-4v8l-3.4 7.2-6.3 5L0 18l-7.8-1.8-6.3-5-3.4-7.2v-8l3.4-7.2 6.3-5z" transform="translate(1858 1124)"/><path fill="#2dca4b" d="m0-29 12.6 2.9 10.1 8 5.6 11.6v13l-5.6 11.6-10.1 8L0 29l-12.6-2.9-10.1-8-5.6-11.6v-13l5.6-11.6 10.1-8z" transform="translate(159 320)"/><path fill="#2dca4b" d="m0-10 4.3 1 3.5 2.8 1.9 4v4.4l-1.9 4L4.3 9 0 10l-4.3-1-3.5-2.8-1.9-4v-4.4l1.9-4L-4.3-9z" transform="translate(67 61)"/><path fill="#2dca4b" d="m0-18 7.8 1.8 6.3 5L17.5-4v8l-3.4 7.2-6.3 5L0 18l-7.8-1.8-6.3-5-3.4-7.2v-8l3.4-7.2 6.3-5z" transform="translate(1254 194)"/><path fill="#2dca4b" d="m0-8 3.5.8L6.3-5l1.5 3.2v3.6L6.3 5 3.5 7.2 0 8l-3.5-.8L-6.3 5l-1.5-3.2v-3.6L-6.3-5l2.8-2.2z" transform="translate(485 706)"/><path fill="#2dca4b" d="m0-14 6.1 1.4 4.8 3.9 2.7 5.6v6.2l-2.7 5.6-4.8 3.9L0 14l-6.1-1.4-4.8-3.9-2.7-5.6v-6.2l2.7-5.6 4.8-3.9z" transform="translate(2174 1549)"/><path fill="#2dca4b" d="m0-16 6.9 1.6 5.6 4.4 3.1 6.4v7.2L12.5 10l-5.6 4.4L0 16l-6.9-1.6-5.6-4.4-3.1-6.4v-7.2l3.1-6.4 5.6-4.4z" transform="translate(235 598)"/><path fill="#2dca4b" d="m0-18 7.8 1.8 6.3 5L17.5-4v8l-3.4 7.2-6.3 5L0 18l-7.8-1.8-6.3-5-3.4-7.2v-8l3.4-7.2 6.3-5z" transform="translate(1701 1197)"/><path fill="#2dca4b" d="m0-21 9.1 2.1 7.3 5.8 4.1 8.4v9.4l-4.1 8.4-7.3 5.8L0 21l-9.1-2.1-7.3-5.8-4.1-8.4v-9.4l4.1-8.4 7.3-5.8z" transform="translate(2482 1515)"/><path fill="#2dca4b" d="m0-14 6.1 1.4 4.8 3.9 2.7 5.6v6.2l-2.7 5.6-4.8 3.9L0 14l-6.1-1.4-4.8-3.9-2.7-5.6v-6.2l2.7-5.6 4.8-3.9z" transform="translate(1070 893)"/><path fill="#2dca4b" d="m0-26 11.3 2.6 9 7.2 5 10.4V5.8l-5 10.4-9 7.2L0 26l-11.3-2.6-9-7.2-5-10.4V-5.8l5-10.4 9-7.2z" transform="translate(1080 27)"/><path fill="#2dca4b" d="m0-19 8.2 1.9 6.7 5.3 3.6 7.6v8.4l-3.6 7.6-6.7 5.3L0 19l-8.2-1.9-6.7-5.3-3.6-7.6v-8.4l3.6-7.6 6.7-5.3z" transform="translate(777 1238)"/><path fill="#2dca4b" d="m0-34 14.8 3.4 11.8 9.4 6.5 13.6V7.6l-6.5 13.6-11.8 9.4L0 34l-14.8-3.4-11.8-9.4-6.5-13.6V-7.6l6.5-13.6 11.8-9.4z" transform="translate(828 605)"/><path fill="#2dca4b" d="m0-18 7.8 1.8 6.3 5L17.5-4v8l-3.4 7.2-6.3 5L0 18l-7.8-1.8-6.3-5-3.4-7.2v-8l3.4-7.2 6.3-5z" transform="translate(1879 489)"/><path fill="#2dca4b" d="m0-6 2.6.6 2.1 1.7 1.1 2.4v2.6L4.7 3.7 2.6 5.4 0 6l-2.6-.6-2.1-1.7-1.1-2.4v-2.6l1.1-2.4 2.1-1.7z" transform="translate(1699 1272)"/><path fill="#2dca4b" d="m0-34 14.8 3.4 11.8 9.4 6.5 13.6V7.6l-6.5 13.6-11.8 9.4L0 34l-14.8-3.4-11.8-9.4-6.5-13.6V-7.6l6.5-13.6 11.8-9.4z" transform="translate(287 1465)"/><path fill="#2dca4b" d="m0-26 11.3 2.6 9 7.2 5 10.4V5.8l-5 10.4-9 7.2L0 26l-11.3-2.6-9-7.2-5-10.4V-5.8l5-10.4 9-7.2z" transform="translate(1345 781)"/><path fill="#2dca4b" d="m0-30 13 3 10.5 8.3 5.7 12V6.7l-5.7 12L13 27 0 30l-13-3-10.5-8.3-5.7-12V-6.7l5.7-12L-13-27z" transform="translate(1967 1221)"/><path fill="#2dca4b" d="m0-14 6.1 1.4 4.8 3.9 2.7 5.6v6.2l-2.7 5.6-4.8 3.9L0 14l-6.1-1.4-4.8-3.9-2.7-5.6v-6.2l2.7-5.6 4.8-3.9z" transform="translate(676 1232)"/><path fill="#2dca4b" d="m0-7 3 .7 2.5 1.9 1.3 2.8v3.2L5.5 4.4 3 6.3 0 7l-3-.7-2.5-1.9-1.3-2.8v-3.2l1.3-2.8L-3-6.3z" transform="translate(1946 831)"/><path fill="#2dca4b" d="m0-21 9.1 2.1 7.3 5.8 4.1 8.4v9.4l-4.1 8.4-7.3 5.8L0 21l-9.1-2.1-7.3-5.8-4.1-8.4v-9.4l4.1-8.4 7.3-5.8z" transform="translate(2401 1017)"/><path fill="#2dca4b" d="m0-31 13.5 3.1 10.7 8.6 6 12.4V6.9l-6 12.4-10.7 8.6L0 31l-13.5-3.1-10.7-8.6-6-12.4V-6.9l6-12.4 10.7-8.6z" transform="translate(809 815)"/><path fill="#2dca4b" d="m0-18 7.8 1.8 6.3 5L17.5-4v8l-3.4 7.2-6.3 5L0 18l-7.8-1.8-6.3-5-3.4-7.2v-8l3.4-7.2 6.3-5z" transform="translate(2604 1333)"/><path fill="#2dca4b" d="m0-34 14.8 3.4 11.8 9.4 6.5 13.6V7.6l-6.5 13.6-11.8 9.4L0 34l-14.8-3.4-11.8-9.4-6.5-13.6V-7.6l6.5-13.6 11.8-9.4z" transform="translate(592 207)"/><path fill="#2dca4b" d="m0-9 3.9.9L7-5.6 8.8-2v4L7 5.6 3.9 8.1 0 9l-3.9-.9L-7 5.6-8.8 2v-4L-7-5.6l3.1-2.5z" transform="translate(1142 671)"/><path fill="#2dca4b" d="m0-11 4.8 1.1 3.8 3 2.1 4.5v4.8L8.6 6.9l-3.8 3L0 11l-4.8-1.1-3.8-3-2.1-4.5v-4.8l2.1-4.5 3.8-3z" transform="translate(1186 819)"/><path fill="#2dca4b" d="m0-25 10.8 2.5 8.7 6.9 4.9 10V5.6l-4.9 10-8.7 6.9L0 25l-10.8-2.5-8.7-6.9-4.9-10V-5.6l4.9-10 8.7-6.9z" transform="translate(1473 91)"/><path fill="#2dca4b" d="m0-29 12.6 2.9 10.1 8 5.6 11.6v13l-5.6 11.6-10.1 8L0 29l-12.6-2.9-10.1-8-5.6-11.6v-13l5.6-11.6 10.1-8z" transform="translate(112 259)"/><path fill="#2dca4b" d="m0-30 13 3 10.5 8.3 5.7 12V6.7l-5.7 12L13 27 0 30l-13-3-10.5-8.3-5.7-12V-6.7l5.7-12L-13-27z" transform="translate(1583 49)"/><path fill="#2dca4b" d="m0-24 10.4 2.4 8.4 6.6 4.6 9.7V5.3L18.8 15l-8.4 6.6L0 24l-10.4-2.4-8.4-6.6-4.6-9.7V-5.3l4.6-9.7 8.4-6.6z" transform="translate(1877 621)"/><path fill="#2dca4b" d="m0-19 8.2 1.9 6.7 5.3 3.6 7.6v8.4l-3.6 7.6-6.7 5.3L0 19l-8.2-1.9-6.7-5.3-3.6-7.6v-8.4l3.6-7.6 6.7-5.3z" transform="translate(67 1152)"/><path fill="#2dca4b" d="m0-16 6.9 1.6 5.6 4.4 3.1 6.4v7.2L12.5 10l-5.6 4.4L0 16l-6.9-1.6-5.6-4.4-3.1-6.4v-7.2l3.1-6.4 5.6-4.4z" transform="translate(1563 183)"/><path fill="#2dca4b" d="m0-9 3.9.9L7-5.6 8.8-2v4L7 5.6 3.9 8.1 0 9l-3.9-.9L-7 5.6-8.8 2v-4L-7-5.6l3.1-2.5z" transform="translate(998 617)"/><path fill="#2dca4b" d="m0-7 3 .7 2.5 1.9 1.3 2.8v3.2L5.5 4.4 3 6.3 0 7l-3-.7-2.5-1.9-1.3-2.8v-3.2l1.3-2.8L-3-6.3z" transform="translate(264 334)"/><path fill="#2dca4b" d="m0-32 13.9 3.2L25-20l6.2 12.9V7.1L25 20l-11.1 8.8L0 32l-13.9-3.2L-25 20l-6.2-12.9V-7.1L-25-20l11.1-8.8z" transform="translate(2673 978)"/><path fill="#2dca4b" d="m0-9 3.9.9L7-5.6 8.8-2v4L7 5.6 3.9 8.1 0 9l-3.9-.9L-7 5.6-8.8 2v-4L-7-5.6l3.1-2.5z" transform="translate(158 672)"/><path fill="#2dca4b" d="m0-14 6.1 1.4 4.8 3.9 2.7 5.6v6.2l-2.7 5.6-4.8 3.9L0 14l-6.1-1.4-4.8-3.9-2.7-5.6v-6.2l2.7-5.6 4.8-3.9z" transform="translate(1530 1575)"/><path fill="#2dca4b" d="m0-7 3 .7 2.5 1.9 1.3 2.8v3.2L5.5 4.4 3 6.3 0 7l-3-.7-2.5-1.9-1.3-2.8v-3.2l1.3-2.8L-3-6.3z" transform="translate(346 812)"/><path fill="#2dca4b" d="m0-26 11.3 2.6 9 7.2 5 10.4V5.8l-5 10.4-9 7.2L0 26l-11.3-2.6-9-7.2-5-10.4V-5.8l5-10.4 9-7.2z" transform="translate(2299 402)"/><path fill="#2dca4b" d="m0-17 7.4 1.7 5.9 4.7 3.3 6.8v7.6l-3.3 6.8-5.9 4.7L0 17l-7.4-1.7-5.9-4.7-3.3-6.8v-7.6l3.3-6.8 5.9-4.7z" transform="translate(1656 211)"/><path fill="#2dca4b" d="m0-29 12.6 2.9 10.1 8 5.6 11.6v13l-5.6 11.6-10.1 8L0 29l-12.6-2.9-10.1-8-5.6-11.6v-13l5.6-11.6 10.1-8z" transform="translate(2659 1140)"/><path fill="#2dca4b" d="m0-11 4.8 1.1 3.8 3 2.1 4.5v4.8L8.6 6.9l-3.8 3L0 11l-4.8-1.1-3.8-3-2.1-4.5v-4.8l2.1-4.5 3.8-3z" transform="translate(523 285)"/><path fill="#2dca4b" d="m0-22 9.5 2.2 7.7 6.1 4.2 8.8v9.8l-4.2 8.8-7.7 6.1L0 22l-9.5-2.2-7.7-6.1-4.2-8.8v-9.8l4.2-8.8 7.7-6.1z" transform="translate(1253 548)"/><path fill="#2dca4b" d="m0-17 7.4 1.7 5.9 4.7 3.3 6.8v7.6l-3.3 6.8-5.9 4.7L0 17l-7.4-1.7-5.9-4.7-3.3-6.8v-7.6l3.3-6.8 5.9-4.7z" transform="translate(533 1539)"/><path fill="#2dca4b" d="m0-17 7.4 1.7 5.9 4.7 3.3 6.8v7.6l-3.3 6.8-5.9 4.7L0 17l-7.4-1.7-5.9-4.7-3.3-6.8v-7.6l3.3-6.8 5.9-4.7z" transform="translate(1576 1019)"/><path fill="#2dca4b" d="m0-14 6.1 1.4 4.8 3.9 2.7 5.6v6.2l-2.7 5.6-4.8 3.9L0 14l-6.1-1.4-4.8-3.9-2.7-5.6v-6.2l2.7-5.6 4.8-3.9z" transform="translate(12 775)"/><path fill="#2dca4b" d="m0-34 14.8 3.4 11.8 9.4 6.5 13.6V7.6l-6.5 13.6-11.8 9.4L0 34l-14.8-3.4-11.8-9.4-6.5-13.6V-7.6l6.5-13.6 11.8-9.4z" transform="translate(1263 710)"/><path fill="#2dca4b" d="m0-21 9.1 2.1 7.3 5.8 4.1 8.4v9.4l-4.1 8.4-7.3 5.8L0 21l-9.1-2.1-7.3-5.8-4.1-8.4v-9.4l4.1-8.4 7.3-5.8z" transform="translate(2341 697)"/><path fill="#2dca4b" d="m0-36 15.6 3.6 12.5 10 7 14.4V8l-7 14.4-12.5 10L0 36l-15.6-3.6-12.5-10-7-14.4V-8l7-14.4 12.5-10z" transform="translate(1023 309)"/><path fill="#2dca4b" d="m0-13 5.6 1.3 4.6 3.6 2.5 5.2v5.8l-2.5 5.2-4.6 3.6L0 13l-5.6-1.3-4.6-3.6-2.5-5.2v-5.8l2.5-5.2 4.6-3.6z" transform="translate(83 1046)"/><path fill="#2dca4b" d="m0-24 10.4 2.4 8.4 6.6 4.6 9.7V5.3L18.8 15l-8.4 6.6L0 24l-10.4-2.4-8.4-6.6-4.6-9.7V-5.3l4.6-9.7 8.4-6.6z" transform="translate(231 1278)"/><path fill="#2dca4b" d="m0-18 7.8 1.8 6.3 5L17.5-4v8l-3.4 7.2-6.3 5L0 18l-7.8-1.8-6.3-5-3.4-7.2v-8l3.4-7.2 6.3-5z" transform="translate(1490 314)"/><path fill="#2dca4b" d="m0-23 10 2.3 8 6.4 4.4 9.2V5.1L18 14.3l-8 6.4L0 23l-10-2.3-8-6.4-4.4-9.2V-5.1l4.4-9.2 8-6.4z" transform="translate(1309 1453)"/><path fill="#2dca4b" d="m0-14 6.1 1.4 4.8 3.9 2.7 5.6v6.2l-2.7 5.6-4.8 3.9L0 14l-6.1-1.4-4.8-3.9-2.7-5.6v-6.2l2.7-5.6 4.8-3.9z" transform="translate(1076 224)"/><path fill="#2dca4b" d="m0-13 5.6 1.3 4.6 3.6 2.5 5.2v5.8l-2.5 5.2-4.6 3.6L0 13l-5.6-1.3-4.6-3.6-2.5-5.2v-5.8l2.5-5.2 4.6-3.6z" transform="translate(767 1336)"/><path fill="#2dca4b" d="m0-28 12.1 2.8 9.8 7.7 5.4 11.3V6.2l-5.4 11.3-9.8 7.7L0 28l-12.1-2.8-9.8-7.7-5.4-11.3V-6.2l5.4-11.3 9.8-7.7z" transform="translate(711 988)"/><path fill="#2dca4b" d="m0-35 15.2 3.5 12.2 9.7 6.7 14V7.8l-6.7 14-12.2 9.7L0 35l-15.2-3.5-12.2-9.7-6.7-14V-7.8l6.7-14 12.2-9.7z" transform="translate(492 1271)"/><path fill="#2dca4b" d="m0-25 10.8 2.5 8.7 6.9 4.9 10V5.6l-4.9 10-8.7 6.9L0 25l-10.8-2.5-8.7-6.9-4.9-10V-5.6l4.9-10 8.7-6.9z" transform="translate(2102 879)"/><path fill="#2dca4b" d="m0-14 6.1 1.4 4.8 3.9 2.7 5.6v6.2l-2.7 5.6-4.8 3.9L0 14l-6.1-1.4-4.8-3.9-2.7-5.6v-6.2l2.7-5.6 4.8-3.9z" transform="translate(1546 915)"/><path fill="#2dca4b" d="m0-5 2.2.5 1.7 1.4 1 2v2.2l-1 2-1.7 1.4L0 5l-2.2-.5-1.7-1.4-1-2v-2.2l1-2 1.7-1.4z" transform="translate(2481 663)"/><path fill="#2dca4b" d="m0-36 15.6 3.6 12.5 10 7 14.4V8l-7 14.4-12.5 10L0 36l-15.6-3.6-12.5-10-7-14.4V-8l7-14.4 12.5-10z" transform="translate(259 865)"/><path fill="#2dca4b" d="m0-35 15.2 3.5 12.2 9.7 6.7 14V7.8l-6.7 14-12.2 9.7L0 35l-15.2-3.5-12.2-9.7-6.7-14V-7.8l6.7-14 12.2-9.7z" transform="translate(2037 441)"/><path fill="#2dca4b" d="m0-13 5.6 1.3 4.6 3.6 2.5 5.2v5.8l-2.5 5.2-4.6 3.6L0 13l-5.6-1.3-4.6-3.6-2.5-5.2v-5.8l2.5-5.2 4.6-3.6z" transform="translate(1482 1231)"/><path fill="#2dca4b" d="m0-25 10.8 2.5 8.7 6.9 4.9 10V5.6l-4.9 10-8.7 6.9L0 25l-10.8-2.5-8.7-6.9-4.9-10V-5.6l4.9-10 8.7-6.9z" transform="translate(729 1177)"/><path fill="#2dca4b" d="m0-9 3.9.9L7-5.6 8.8-2v4L7 5.6 3.9 8.1 0 9l-3.9-.9L-7 5.6-8.8 2v-4L-7-5.6l3.1-2.5z" transform="translate(1954 611)"/><path fill="#2dca4b" d="m0-28 12.1 2.8 9.8 7.7 5.4 11.3V6.2l-5.4 11.3-9.8 7.7L0 28l-12.1-2.8-9.8-7.7-5.4-11.3V-6.2l5.4-11.3 9.8-7.7z" transform="translate(2188 1363)"/><path fill="#2dca4b" d="m0-35 15.2 3.5 12.2 9.7 6.7 14V7.8l-6.7 14-12.2 9.7L0 35l-15.2-3.5-12.2-9.7-6.7-14V-7.8l6.7-14 12.2-9.7z" transform="translate(1493 418)"/><path fill="#2dca4b" d="m0-18 7.8 1.8 6.3 5L17.5-4v8l-3.4 7.2-6.3 5L0 18l-7.8-1.8-6.3-5-3.4-7.2v-8l3.4-7.2 6.3-5z" transform="translate(1221 1442)"/><path fill="#2dca4b" d="m0-21 9.1 2.1 7.3 5.8 4.1 8.4v9.4l-4.1 8.4-7.3 5.8L0 21l-9.1-2.1-7.3-5.8-4.1-8.4v-9.4l4.1-8.4 7.3-5.8z" transform="translate(311 1024)"/><path fill="#2dca4b" d="m0-18 7.8 1.8 6.3 5L17.5-4v8l-3.4 7.2-6.3 5L0 18l-7.8-1.8-6.3-5-3.4-7.2v-8l3.4-7.2 6.3-5z" transform="translate(1342 883)"/><path fill="#2dca4b" d="m0-9 3.9.9L7-5.6 8.8-2v4L7 5.6 3.9 8.1 0 9l-3.9-.9L-7 5.6-8.8 2v-4L-7-5.6l3.1-2.5z" transform="translate(2565 204)"/><path fill="#2dca4b" d="m0-30 13 3 10.5 8.3 5.7 12V6.7l-5.7 12L13 27 0 30l-13-3-10.5-8.3-5.7-12V-6.7l5.7-12L-13-27z" transform="translate(418 296)"/><path fill="#2dca4b" d="m0-5 2.2.5 1.7 1.4 1 2v2.2l-1 2-1.7 1.4L0 5l-2.2-.5-1.7-1.4-1-2v-2.2l1-2 1.7-1.4z" transform="translate(2395 926)"/><path fill="#2dca4b" d="m0-28 12.1 2.8 9.8 7.7 5.4 11.3V6.2l-5.4 11.3-9.8 7.7L0 28l-12.1-2.8-9.8-7.7-5.4-11.3V-6.2l5.4-11.3 9.8-7.7z" transform="translate(1609 1374)"/><path fill="#2dca4b" d="m0-7 3 .7 2.5 1.9 1.3 2.8v3.2L5.5 4.4 3 6.3 0 7l-3-.7-2.5-1.9-1.3-2.8v-3.2l1.3-2.8L-3-6.3z" transform="translate(618 930)"/><path fill="#2dca4b" d="m0-32 13.9 3.2L25-20l6.2 12.9V7.1L25 20l-11.1 8.8L0 32l-13.9-3.2L-25 20l-6.2-12.9V-7.1L-25-20l11.1-8.8z" transform="translate(1171 408)"/><path fill="#2dca4b" d="m0-14 6.1 1.4 4.8 3.9 2.7 5.6v6.2l-2.7 5.6-4.8 3.9L0 14l-6.1-1.4-4.8-3.9-2.7-5.6v-6.2l2.7-5.6 4.8-3.9z" transform="translate(2475 801)"/><path fill="#2dca4b" d="m0-14 6.1 1.4 4.8 3.9 2.7 5.6v6.2l-2.7 5.6-4.8 3.9L0 14l-6.1-1.4-4.8-3.9-2.7-5.6v-6.2l2.7-5.6 4.8-3.9z" transform="translate(1971 533)"/><path fill="#2dca4b" d="m0-8 3.5.8L6.3-5l1.5 3.2v3.6L6.3 5 3.5 7.2 0 8l-3.5-.8L-6.3 5l-1.5-3.2v-3.6L-6.3-5l2.8-2.2z" transform="translate(1141 1421)"/><path fill="#2dca4b" d="m0-32 13.9 3.2L25-20l6.2 12.9V7.1L25 20l-11.1 8.8L0 32l-13.9-3.2L-25 20l-6.2-12.9V-7.1L-25-20l11.1-8.8z" transform="translate(192 951)"/><path fill="#2dca4b" d="m0-34 14.8 3.4 11.8 9.4 6.5 13.6V7.6l-6.5 13.6-11.8 9.4L0 34l-14.8-3.4-11.8-9.4-6.5-13.6V-7.6l6.5-13.6 11.8-9.4z" transform="translate(2280 98)"/><path fill="#2dca4b" d="m0-8 3.5.8L6.3-5l1.5 3.2v3.6L6.3 5 3.5 7.2 0 8l-3.5-.8L-6.3 5l-1.5-3.2v-3.6L-6.3-5l2.8-2.2z" transform="translate(2084 1379)"/><path fill="#2dca4b" d="m0-15 6.5 1.5 5.2 4.1 2.9 6.1v6.6l-2.9 6.1-5.2 4.1L0 15l-6.5-1.5-5.2-4.1-2.9-6.1v-6.6l2.9-6.1 5.2-4.1z" transform="translate(2232 331)"/><path fill="#2dca4b" d="m0-7 3 .7 2.5 1.9 1.3 2.8v3.2L5.5 4.4 3 6.3 0 7l-3-.7-2.5-1.9-1.3-2.8v-3.2l1.3-2.8L-3-6.3z" transform="translate(2536 444)"/><path fill="#2dca4b" d="m0-5 2.2.5 1.7 1.4 1 2v2.2l-1 2-1.7 1.4L0 5l-2.2-.5-1.7-1.4-1-2v-2.2l1-2 1.7-1.4z" transform="translate(492 942)"/><path fill="#2dca4b" d="m0-23 10 2.3 8 6.4 4.4 9.2V5.1L18 14.3l-8 6.4L0 23l-10-2.3-8-6.4-4.4-9.2V-5.1l4.4-9.2 8-6.4z" transform="translate(791 177)"/><path fill="#2dca4b" d="m0-31 13.5 3.1 10.7 8.6 6 12.4V6.9l-6 12.4-10.7 8.6L0 31l-13.5-3.1-10.7-8.6-6-12.4V-6.9l6-12.4 10.7-8.6z" transform="translate(1488 1408)"/><path fill="#2dca4b" d="m0-30 13 3 10.5 8.3 5.7 12V6.7l-5.7 12L13 27 0 30l-13-3-10.5-8.3-5.7-12V-6.7l5.7-12L-13-27z" transform="translate(402 131)"/><path fill="#2dca4b" d="m0-4 1.7.4 1.4 1.1.8 1.6V.9l-.8 1.6-1.4 1.1L0 4l-1.7-.4-1.4-1.1-.8-1.6V-.9l.8-1.6 1.4-1.1z" transform="translate(1212 1328)"/><path fill="#2dca4b" d="m0-32 13.9 3.2L25-20l6.2 12.9V7.1L25 20l-11.1 8.8L0 32l-13.9-3.2L-25 20l-6.2-12.9V-7.1L-25-20l11.1-8.8z" transform="translate(5 633)"/><path fill="#2dca4b" d="m0-19 8.2 1.9 6.7 5.3 3.6 7.6v8.4l-3.6 7.6-6.7 5.3L0 19l-8.2-1.9-6.7-5.3-3.6-7.6v-8.4l3.6-7.6 6.7-5.3z" transform="translate(837 357)"/><path fill="#2dca4b" d="m0-6 2.6.6 2.1 1.7 1.1 2.4v2.6L4.7 3.7 2.6 5.4 0 6l-2.6-.6-2.1-1.7-1.1-2.4v-2.6l1.1-2.4 2.1-1.7z" transform="translate(387 1132)"/><path fill="#2dca4b" d="m0-7 3 .7 2.5 1.9 1.3 2.8v3.2L5.5 4.4 3 6.3 0 7l-3-.7-2.5-1.9-1.3-2.8v-3.2l1.3-2.8L-3-6.3z" transform="translate(1619 1212)"/><path fill="#2dca4b" d="m0-36 15.6 3.6 12.5 10 7 14.4V8l-7 14.4-12.5 10L0 36l-15.6-3.6-12.5-10-7-14.4V-8l7-14.4 12.5-10z" transform="translate(23 1221)"/><path fill="#2dca4b" d="m0-32 13.9 3.2L25-20l6.2 12.9V7.1L25 20l-11.1 8.8L0 32l-13.9-3.2L-25 20l-6.2-12.9V-7.1L-25-20l11.1-8.8z" transform="translate(2630 1466)"/><path fill="#2dca4b" d="m0-21 9.1 2.1 7.3 5.8 4.1 8.4v9.4l-4.1 8.4-7.3 5.8L0 21l-9.1-2.1-7.3-5.8-4.1-8.4v-9.4l4.1-8.4 7.3-5.8z" transform="translate(1090 611)"/><path fill="#2dca4b" d="m0-30 13 3 10.5 8.3 5.7 12V6.7l-5.7 12L13 27 0 30l-13-3-10.5-8.3-5.7-12V-6.7l5.7-12L-13-27z" transform="translate(105 499)"/><path fill="#2dca4b" d="m0-8 3.5.8L6.3-5l1.5 3.2v3.6L6.3 5 3.5 7.2 0 8l-3.5-.8L-6.3 5l-1.5-3.2v-3.6L-6.3-5l2.8-2.2z" transform="translate(2533 854)"/><path fill="#2dca4b" d="m0-35 15.2 3.5 12.2 9.7 6.7 14V7.8l-6.7 14-12.2 9.7L0 35l-15.2-3.5-12.2-9.7-6.7-14V-7.8l6.7-14 12.2-9.7z" transform="translate(9 1537)"/><path fill="#2dca4b" d="m0-7 3 .7 2.5 1.9 1.3 2.8v3.2L5.5 4.4 3 6.3 0 7l-3-.7-2.5-1.9-1.3-2.8v-3.2l1.3-2.8L-3-6.3z" transform="translate(2459 381)"/><path fill="#2dca4b" d="m0-30 13 3 10.5 8.3 5.7 12V6.7l-5.7 12L13 27 0 30l-13-3-10.5-8.3-5.7-12V-6.7l5.7-12L-13-27z" transform="translate(93 1563)"/><path fill="#2dca4b" d="m0-28 12.1 2.8 9.8 7.7 5.4 11.3V6.2l-5.4 11.3-9.8 7.7L0 28l-12.1-2.8-9.8-7.7-5.4-11.3V-6.2l5.4-11.3 9.8-7.7z" transform="translate(1612 576)"/><path fill="#2dca4b" d="m0-11 4.8 1.1 3.8 3 2.1 4.5v4.8L8.6 6.9l-3.8 3L0 11l-4.8-1.1-3.8-3-2.1-4.5v-4.8l2.1-4.5 3.8-3z" transform="translate(579 579)"/><path fill="#2dca4b" d="m0-36 15.6 3.6 12.5 10 7 14.4V8l-7 14.4-12.5 10L0 36l-15.6-3.6-12.5-10-7-14.4V-8l7-14.4 12.5-10z" transform="translate(218 53)"/><path fill="#2dca4b" d="m0-15 6.5 1.5 5.2 4.1 2.9 6.1v6.6l-2.9 6.1-5.2 4.1L0 15l-6.5-1.5-5.2-4.1-2.9-6.1v-6.6l2.9-6.1 5.2-4.1z" transform="translate(1882 1563)"/><path fill="#2dca4b" d="m0-32 13.9 3.2L25-20l6.2 12.9V7.1L25 20l-11.1 8.8L0 32l-13.9-3.2L-25 20l-6.2-12.9V-7.1L-25-20l11.1-8.8z" transform="translate(1955 712)"/><path fill="#2dca4b" d="m0-16 6.9 1.6 5.6 4.4 3.1 6.4v7.2L12.5 10l-5.6 4.4L0 16l-6.9-1.6-5.6-4.4-3.1-6.4v-7.2l3.1-6.4 5.6-4.4z" transform="translate(486 454)"/><path fill="#2dca4b" d="m0-12 5.2 1.2 4.2 3.3 2.3 4.8v5.4L9.4 7.5l-4.2 3.3L0 12l-5.2-1.2-4.2-3.3-2.3-4.8v-5.4l2.3-4.8 4.2-3.3z" transform="translate(278 1592)"/><path fill="#2dca4b" d="m0-25 10.8 2.5 8.7 6.9 4.9 10V5.6l-4.9 10-8.7 6.9L0 25l-10.8-2.5-8.7-6.9-4.9-10V-5.6l4.9-10 8.7-6.9z" transform="translate(1689 98)"/><path fill="#2dca4b" d="m0-21 9.1 2.1 7.3 5.8 4.1 8.4v9.4l-4.1 8.4-7.3 5.8L0 21l-9.1-2.1-7.3-5.8-4.1-8.4v-9.4l4.1-8.4 7.3-5.8z" transform="translate(571 464)"/><path fill="#2dca4b" d="m0-20 8.7 2 6.9 5.5 3.9 8v9l-3.9 8L8.7 18 0 20l-8.7-2-6.9-5.5-3.9-8v-9l3.9-8 6.9-5.5z" transform="translate(2666 1559)"/><path fill="#2dca4b" d="m0-34 14.8 3.4 11.8 9.4 6.5 13.6V7.6l-6.5 13.6-11.8 9.4L0 34l-14.8-3.4-11.8-9.4-6.5-13.6V-7.6l6.5-13.6 11.8-9.4z" transform="translate(2363 534)"/><path fill="#2dca4b" d="m0-31 13.5 3.1 10.7 8.6 6 12.4V6.9l-6 12.4-10.7 8.6L0 31l-13.5-3.1-10.7-8.6-6-12.4V-6.9l6-12.4 10.7-8.6z" transform="translate(321 159)"/><path fill="#2dca4b" d="m0-35 15.2 3.5 12.2 9.7 6.7 14V7.8l-6.7 14-12.2 9.7L0 35l-15.2-3.5-12.2-9.7-6.7-14V-7.8l6.7-14 12.2-9.7z" transform="translate(115 170)"/><path fill="#2dca4b" d="m0-22 9.5 2.2 7.7 6.1 4.2 8.8v9.8l-4.2 8.8-7.7 6.1L0 22l-9.5-2.2-7.7-6.1-4.2-8.8v-9.8l4.2-8.8 7.7-6.1z" transform="translate(1075 411)"/><path fill="#2dca4b" d="m0-22 9.5 2.2 7.7 6.1 4.2 8.8v9.8l-4.2 8.8-7.7 6.1L0 22l-9.5-2.2-7.7-6.1-4.2-8.8v-9.8l4.2-8.8 7.7-6.1z" transform="translate(4 454)"/><path fill="#2dca4b" d="m0-13 5.6 1.3 4.6 3.6 2.5 5.2v5.8l-2.5 5.2-4.6 3.6L0 13l-5.6-1.3-4.6-3.6-2.5-5.2v-5.8l2.5-5.2 4.6-3.6z" transform="translate(1197 139)"/><path fill="#2dca4b" d="m0-13 5.6 1.3 4.6 3.6 2.5 5.2v5.8l-2.5 5.2-4.6 3.6L0 13l-5.6-1.3-4.6-3.6-2.5-5.2v-5.8l2.5-5.2 4.6-3.6z" transform="translate(98 1451)"/><path fill="#2dca4b" d="m0-32 13.9 3.2L25-20l6.2 12.9V7.1L25 20l-11.1 8.8L0 32l-13.9-3.2L-25 20l-6.2-12.9V-7.1L-25-20l11.1-8.8z" transform="translate(303 411)"/><path fill="#2dca4b" d="m0-29 12.6 2.9 10.1 8 5.6 11.6v13l-5.6 11.6-10.1 8L0 29l-12.6-2.9-10.1-8-5.6-11.6v-13l5.6-11.6 10.1-8z" transform="translate(261 1111)"/><path fill="#2dca4b" d="m0-34 14.8 3.4 11.8 9.4 6.5 13.6V7.6l-6.5 13.6-11.8 9.4L0 34l-14.8-3.4-11.8-9.4-6.5-13.6V-7.6l6.5-13.6 11.8-9.4z" transform="translate(2581 766)"/><path fill="#2dca4b" d="m0-24 10.4 2.4 8.4 6.6 4.6 9.7V5.3L18.8 15l-8.4 6.6L0 24l-10.4-2.4-8.4-6.6-4.6-9.7V-5.3l4.6-9.7 8.4-6.6z" transform="translate(657 1471)"/><path fill="#2dca4b" d="m0-22 9.5 2.2 7.7 6.1 4.2 8.8v9.8l-4.2 8.8-7.7 6.1L0 22l-9.5-2.2-7.7-6.1-4.2-8.8v-9.8l4.2-8.8 7.7-6.1z" transform="translate(539 1016)"/><path fill="#2dca4b" d="m0-6 2.6.6 2.1 1.7 1.1 2.4v2.6L4.7 3.7 2.6 5.4 0 6l-2.6-.6-2.1-1.7-1.1-2.4v-2.6l1.1-2.4 2.1-1.7z" transform="translate(856 1357)"/><path fill="#2dca4b" d="m0-28 12.1 2.8 9.8 7.7 5.4 11.3V6.2l-5.4 11.3-9.8 7.7L0 28l-12.1-2.8-9.8-7.7-5.4-11.3V-6.2l5.4-11.3 9.8-7.7z" transform="translate(2319 1104)"/><path fill="#2dca4b" d="m0-17 7.4 1.7 5.9 4.7 3.3 6.8v7.6l-3.3 6.8-5.9 4.7L0 17l-7.4-1.7-5.9-4.7-3.3-6.8v-7.6l3.3-6.8 5.9-4.7z" transform="translate(916 74)"/><path fill="#2dca4b" d="m0-17 7.4 1.7 5.9 4.7 3.3 6.8v7.6l-3.3 6.8-5.9 4.7L0 17l-7.4-1.7-5.9-4.7-3.3-6.8v-7.6l3.3-6.8 5.9-4.7z" transform="translate(2053 816)"/><path fill="#2dca4b" d="m0-11 4.8 1.1 3.8 3 2.1 4.5v4.8L8.6 6.9l-3.8 3L0 11l-4.8-1.1-3.8-3-2.1-4.5v-4.8l2.1-4.5 3.8-3z" transform="translate(2370 1281)"/><path fill="#2dca4b" d="m0-36 15.6 3.6 12.5 10 7 14.4V8l-7 14.4-12.5 10L0 36l-15.6-3.6-12.5-10-7-14.4V-8l7-14.4 12.5-10z" transform="translate(1671 490)"/><path fill="#2dca4b" d="m0-9 3.9.9L7-5.6 8.8-2v4L7 5.6 3.9 8.1 0 9l-3.9-.9L-7 5.6-8.8 2v-4L-7-5.6l3.1-2.5z" transform="translate(1636 1120)"/><path fill="#2dca4b" d="m0-10 4.3 1 3.5 2.8 1.9 4v4.4l-1.9 4L4.3 9 0 10l-4.3-1-3.5-2.8-1.9-4v-4.4l1.9-4L-4.3-9z" transform="translate(2077 740)"/><path fill="#2dca4b" d="m0-19 8.2 1.9 6.7 5.3 3.6 7.6v8.4l-3.6 7.6-6.7 5.3L0 19l-8.2-1.9-6.7-5.3-3.6-7.6v-8.4l3.6-7.6 6.7-5.3z" transform="translate(2183 28)"/><path fill="#2dca4b" d="m0-11 4.8 1.1 3.8 3 2.1 4.5v4.8L8.6 6.9l-3.8 3L0 11l-4.8-1.1-3.8-3-2.1-4.5v-4.8l2.1-4.5 3.8-3z" transform="translate(2255 927)"/><path fill="#2dca4b" d="m0-7 3 .7 2.5 1.9 1.3 2.8v3.2L5.5 4.4 3 6.3 0 7l-3-.7-2.5-1.9-1.3-2.8v-3.2l1.3-2.8L-3-6.3z" transform="translate(1936 1059)"/><path fill="#2dca4b" d="m0-14 6.1 1.4 4.8 3.9 2.7 5.6v6.2l-2.7 5.6-4.8 3.9L0 14l-6.1-1.4-4.8-3.9-2.7-5.6v-6.2l2.7-5.6 4.8-3.9z" transform="translate(1051 1082)"/><path fill="#2dca4b" d="m0-5 2.2.5 1.7 1.4 1 2v2.2l-1 2-1.7 1.4L0 5l-2.2-.5-1.7-1.4-1-2v-2.2l1-2 1.7-1.4z" transform="translate(2305 983)"/><path fill="#2dca4b" d="m0-22 9.5 2.2 7.7 6.1 4.2 8.8v9.8l-4.2 8.8-7.7 6.1L0 22l-9.5-2.2-7.7-6.1-4.2-8.8v-9.8l4.2-8.8 7.7-6.1z" transform="translate(1649 1493)"/><path fill="#2dca4b" d="m0-4 1.7.4 1.4 1.1.8 1.6V.9l-.8 1.6-1.4 1.1L0 4l-1.7-.4-1.4-1.1-.8-1.6V-.9l.8-1.6 1.4-1.1z" transform="translate(209 1554)"/><path fill="#2dca4b" d="m0-26 11.3 2.6 9 7.2 5 10.4V5.8l-5 10.4-9 7.2L0 26l-11.3-2.6-9-7.2-5-10.4V-5.8l5-10.4 9-7.2z" transform="translate(1630 1590)"/><path fill="#2dca4b" d="m0-32 13.9 3.2L25-20l6.2 12.9V7.1L25 20l-11.1 8.8L0 32l-13.9-3.2L-25 20l-6.2-12.9V-7.1L-25-20l11.1-8.8z" transform="translate(85 903)"/><path fill="#2dca4b" d="m0-24 10.4 2.4 8.4 6.6 4.6 9.7V5.3L18.8 15l-8.4 6.6L0 24l-10.4-2.4-8.4-6.6-4.6-9.7V-5.3l4.6-9.7 8.4-6.6z" transform="translate(2287 1305)"/><path fill="#2dca4b" d="m0-11 4.8 1.1 3.8 3 2.1 4.5v4.8L8.6 6.9l-3.8 3L0 11l-4.8-1.1-3.8-3-2.1-4.5v-4.8l2.1-4.5 3.8-3z" transform="translate(800 1512)"/><path fill="#2dca4b" d="m0-7 3 .7 2.5 1.9 1.3 2.8v3.2L5.5 4.4 3 6.3 0 7l-3-.7-2.5-1.9-1.3-2.8v-3.2l1.3-2.8L-3-6.3z" transform="translate(2114 526)"/><path fill="#2dca4b" d="m0-29 12.6 2.9 10.1 8 5.6 11.6v13l-5.6 11.6-10.1 8L0 29l-12.6-2.9-10.1-8-5.6-11.6v-13l5.6-11.6 10.1-8z" transform="translate(2689 617)"/><path fill="#2dca4b" d="m0-10 4.3 1 3.5 2.8 1.9 4v4.4l-1.9 4L4.3 9 0 10l-4.3-1-3.5-2.8-1.9-4v-4.4l1.9-4L-4.3-9z" transform="translate(1834 1211)"/><path fill="#2dca4b" d="m0-24 10.4 2.4 8.4 6.6 4.6 9.7V5.3L18.8 15l-8.4 6.6L0 24l-10.4-2.4-8.4-6.6-4.6-9.7V-5.3l4.6-9.7 8.4-6.6z" transform="translate(2148 1174)"/><path fill="#2dca4b" d="m0-18 7.8 1.8 6.3 5L17.5-4v8l-3.4 7.2-6.3 5L0 18l-7.8-1.8-6.3-5-3.4-7.2v-8l3.4-7.2 6.3-5z" transform="translate(1313 1098)"/><path fill="#2dca4b" d="m0-20 8.7 2 6.9 5.5 3.9 8v9l-3.9 8L8.7 18 0 20l-8.7-2-6.9-5.5-3.9-8v-9l3.9-8 6.9-5.5z" transform="translate(2358 356)"/><path fill="#2dca4b" d="m0-33 14.3 3.3 11.5 9.1 6.4 13.3V7.3l-6.4 13.3-11.5 9.1L0 33l-14.3-3.3-11.5-9.1-6.4-13.3V-7.3l6.4-13.3 11.5-9.1z" transform="translate(1205 934)"/><path fill="#2dca4b" d="m0-25 10.8 2.5 8.7 6.9 4.9 10V5.6l-4.9 10-8.7 6.9L0 25l-10.8-2.5-8.7-6.9-4.9-10V-5.6l4.9-10 8.7-6.9z" transform="translate(1288 468)"/><path fill="#2dca4b" d="m0-4 1.7.4 1.4 1.1.8 1.6V.9l-.8 1.6-1.4 1.1L0 4l-1.7-.4-1.4-1.1-.8-1.6V-.9l.8-1.6 1.4-1.1z" transform="translate(2363 800)"/><path fill="#2dca4b" d="m0-6 2.6.6 2.1 1.7 1.1 2.4v2.6L4.7 3.7 2.6 5.4 0 6l-2.6-.6-2.1-1.7-1.1-2.4v-2.6l1.1-2.4 2.1-1.7z" transform="translate(1743 358)"/><path fill="#2dca4b" d="m0-22 9.5 2.2 7.7 6.1 4.2 8.8v9.8l-4.2 8.8-7.7 6.1L0 22l-9.5-2.2-7.7-6.1-4.2-8.8v-9.8l4.2-8.8 7.7-6.1z" transform="translate(116 769)"/><path fill="#2dca4b" d="m0-10 4.3 1 3.5 2.8 1.9 4v4.4l-1.9 4L4.3 9 0 10l-4.3-1-3.5-2.8-1.9-4v-4.4l1.9-4L-4.3-9z" transform="translate(1459 735)"/><path fill="#2dca4b" d="m0-14 6.1 1.4 4.8 3.9 2.7 5.6v6.2l-2.7 5.6-4.8 3.9L0 14l-6.1-1.4-4.8-3.9-2.7-5.6v-6.2l2.7-5.6 4.8-3.9z" transform="translate(1550 758)"/><path fill="#2dca4b" d="m0-14 6.1 1.4 4.8 3.9 2.7 5.6v6.2l-2.7 5.6-4.8 3.9L0 14l-6.1-1.4-4.8-3.9-2.7-5.6v-6.2l2.7-5.6 4.8-3.9z" transform="translate(2671 64)"/><path fill="#2dca4b" d="m0-27 11.7 2.7 9.4 7.5L26.3-6V6l-5.2 10.8-9.4 7.5L0 27l-11.7-2.7-9.4-7.5L-26.3 6V-6l5.2-10.8 9.4-7.5z" transform="translate(2646 1258)"/><path fill="#2dca4b" d="m0-5 2.2.5 1.7 1.4 1 2v2.2l-1 2-1.7 1.4L0 5l-2.2-.5-1.7-1.4-1-2v-2.2l1-2 1.7-1.4z" transform="translate(2230 185)"/><path fill="#2dca4b" d="m0-13 5.6 1.3 4.6 3.6 2.5 5.2v5.8l-2.5 5.2-4.6 3.6L0 13l-5.6-1.3-4.6-3.6-2.5-5.2v-5.8l2.5-5.2 4.6-3.6z" transform="translate(664 88)"/><path fill="#2dca4b" d="m0-19 8.2 1.9 6.7 5.3 3.6 7.6v8.4l-3.6 7.6-6.7 5.3L0 19l-8.2-1.9-6.7-5.3-3.6-7.6v-8.4l3.6-7.6 6.7-5.3z" transform="translate(364 593)"/><path fill="#2dca4b" d="m0-21 9.1 2.1 7.3 5.8 4.1 8.4v9.4l-4.1 8.4-7.3 5.8L0 21l-9.1-2.1-7.3-5.8-4.1-8.4v-9.4l4.1-8.4 7.3-5.8z" transform="translate(908 454)"/><path fill="#2dca4b" d="m0-36 15.6 3.6 12.5 10 7 14.4V8l-7 14.4-12.5 10L0 36l-15.6-3.6-12.5-10-7-14.4V-8l7-14.4 12.5-10z" transform="translate(952 1326)"/><path fill="#2dca4b" d="m0-20 8.7 2 6.9 5.5 3.9 8v9l-3.9 8L8.7 18 0 20l-8.7-2-6.9-5.5-3.9-8v-9l3.9-8 6.9-5.5z" transform="translate(363 709)"/><path fill="#2dca4b" d="m0-7 3 .7 2.5 1.9 1.3 2.8v3.2L5.5 4.4 3 6.3 0 7l-3-.7-2.5-1.9-1.3-2.8v-3.2l1.3-2.8L-3-6.3z" transform="translate(1937 919)"/><path fill="#2dca4b" d="m0-32 13.9 3.2L25-20l6.2 12.9V7.1L25 20l-11.1 8.8L0 32l-13.9-3.2L-25 20l-6.2-12.9V-7.1L-25-20l11.1-8.8z" transform="translate(911 634)"/><path fill="#2dca4b" d="m0-21 9.1 2.1 7.3 5.8 4.1 8.4v9.4l-4.1 8.4-7.3 5.8L0 21l-9.1-2.1-7.3-5.8-4.1-8.4v-9.4l4.1-8.4 7.3-5.8z" transform="translate(2113 420)"/><path fill="#2dca4b" d="m0-9 3.9.9L7-5.6 8.8-2v4L7 5.6 3.9 8.1 0 9l-3.9-.9L-7 5.6-8.8 2v-4L-7-5.6l3.1-2.5z" transform="translate(561 1102)"/><path fill="#2dca4b" d="m0-14 6.1 1.4 4.8 3.9 2.7 5.6v6.2l-2.7 5.6-4.8 3.9L0 14l-6.1-1.4-4.8-3.9-2.7-5.6v-6.2l2.7-5.6 4.8-3.9z" transform="translate(646 765)"/><path fill="#2dca4b" d="m0-17 7.4 1.7 5.9 4.7 3.3 6.8v7.6l-3.3 6.8-5.9 4.7L0 17l-7.4-1.7-5.9-4.7-3.3-6.8v-7.6l3.3-6.8 5.9-4.7z" transform="translate(450 203)"/><path fill="#2dca4b" d="m0-36 15.6 3.6 12.5 10 7 14.4V8l-7 14.4-12.5 10L0 36l-15.6-3.6-12.5-10-7-14.4V-8l7-14.4 12.5-10z" transform="translate(1360 349)"/><path fill="#2dca4b" d="m0-17 7.4 1.7 5.9 4.7 3.3 6.8v7.6l-3.3 6.8-5.9 4.7L0 17l-7.4-1.7-5.9-4.7-3.3-6.8v-7.6l3.3-6.8 5.9-4.7z" transform="translate(2522 1425)"/><path fill="#2dca4b" d="m0-24 10.4 2.4 8.4 6.6 4.6 9.7V5.3L18.8 15l-8.4 6.6L0 24l-10.4-2.4-8.4-6.6-4.6-9.7V-5.3l4.6-9.7 8.4-6.6z" transform="translate(2635 476)"/><path fill="#2dca4b" d="m0-15 6.5 1.5 5.2 4.1 2.9 6.1v6.6l-2.9 6.1-5.2 4.1L0 15l-6.5-1.5-5.2-4.1-2.9-6.1v-6.6l2.9-6.1 5.2-4.1z" transform="translate(1093 991)"/><path fill="#2dca4b" d="m0-28 12.1 2.8 9.8 7.7 5.4 11.3V6.2l-5.4 11.3-9.8 7.7L0 28l-12.1-2.8-9.8-7.7-5.4-11.3V-6.2l5.4-11.3 9.8-7.7z" transform="translate(1392 212)"/><path fill="#2dca4b" d="m0-26 11.3 2.6 9 7.2 5 10.4V5.8l-5 10.4-9 7.2L0 26l-11.3-2.6-9-7.2-5-10.4V-5.8l5-10.4 9-7.2z" transform="translate(1237 1586)"/><path fill="#2dca4b" d="m0-25 10.8 2.5 8.7 6.9 4.9 10V5.6l-4.9 10-8.7 6.9L0 25l-10.8-2.5-8.7-6.9-4.9-10V-5.6l4.9-10 8.7-6.9z" transform="translate(1258 74)"/><path fill="#2dca4b" d="m0-8 3.5.8L6.3-5l1.5 3.2v3.6L6.3 5 3.5 7.2 0 8l-3.5-.8L-6.3 5l-1.5-3.2v-3.6L-6.3-5l2.8-2.2z" transform="translate(698 290)"/><path fill="#2dca4b" d="m0-29 12.6 2.9 10.1 8 5.6 11.6v13l-5.6 11.6-10.1 8L0 29l-12.6-2.9-10.1-8-5.6-11.6v-13l5.6-11.6 10.1-8z" transform="translate(1381 1572)"/><path fill="#2dca4b" d="m0-25 10.8 2.5 8.7 6.9 4.9 10V5.6l-4.9 10-8.7 6.9L0 25l-10.8-2.5-8.7-6.9-4.9-10V-5.6l4.9-10 8.7-6.9z" transform="translate(2676 770)"/><path fill="#2dca4b" d="m0-13 5.6 1.3 4.6 3.6 2.5 5.2v5.8l-2.5 5.2-4.6 3.6L0 13l-5.6-1.3-4.6-3.6-2.5-5.2v-5.8l2.5-5.2 4.6-3.6z" transform="translate(682 533)"/><path fill="#2dca4b" d="m0-35 15.2 3.5 12.2 9.7 6.7 14V7.8l-6.7 14-12.2 9.7L0 35l-15.2-3.5-12.2-9.7-6.7-14V-7.8l6.7-14 12.2-9.7z" transform="translate(895 799)"/><path fill="#2dca4b" d="m0-29 12.6 2.9 10.1 8 5.6 11.6v13l-5.6 11.6-10.1 8L0 29l-12.6-2.9-10.1-8-5.6-11.6v-13l5.6-11.6 10.1-8z" transform="translate(1876 202)"/><path fill="#2dca4b" d="m0-25 10.8 2.5 8.7 6.9 4.9 10V5.6l-4.9 10-8.7 6.9L0 25l-10.8-2.5-8.7-6.9-4.9-10V-5.6l4.9-10 8.7-6.9z" transform="translate(2109 1014)"/><path fill="#2dca4b" d="m0-23 10 2.3 8 6.4 4.4 9.2V5.1L18 14.3l-8 6.4L0 23l-10-2.3-8-6.4-4.4-9.2V-5.1l4.4-9.2 8-6.4z" transform="translate(1794 689)"/><path fill="#2dca4b" d="m0-23 10 2.3 8 6.4 4.4 9.2V5.1L18 14.3l-8 6.4L0 23l-10-2.3-8-6.4-4.4-9.2V-5.1l4.4-9.2 8-6.4z" transform="translate(789 453)"/><path fill="#2dca4b" d="m0-27 11.7 2.7 9.4 7.5L26.3-6V6l-5.2 10.8-9.4 7.5L0 27l-11.7-2.7-9.4-7.5L-26.3 6V-6l5.2-10.8 9.4-7.5z" transform="translate(2218 1130)"/><path fill="#2dca4b" d="m0-33 14.3 3.3 11.5 9.1 6.4 13.3V7.3l-6.4 13.3-11.5 9.1L0 33l-14.3-3.3-11.5-9.1-6.4-13.3V-7.3l6.4-13.3 11.5-9.1z" transform="translate(585 859)"/><path fill="#2dca4b" d="m0-31 13.5 3.1 10.7 8.6 6 12.4V6.9l-6 12.4-10.7 8.6L0 31l-13.5-3.1-10.7-8.6-6-12.4V-6.9l6-12.4 10.7-8.6z" transform="translate(1278 926)"/><path fill="#2dca4b" d="m0-14 6.1 1.4 4.8 3.9 2.7 5.6v6.2l-2.7 5.6-4.8 3.9L0 14l-6.1-1.4-4.8-3.9-2.7-5.6v-6.2l2.7-5.6 4.8-3.9z" transform="translate(2473 1259)"/><path fill="#2dca4b" d="m0-23 10 2.3 8 6.4 4.4 9.2V5.1L18 14.3l-8 6.4L0 23l-10-2.3-8-6.4-4.4-9.2V-5.1l4.4-9.2 8-6.4z" transform="translate(1373 97)"/><path fill="#2dca4b" d="m0-20 8.7 2 6.9 5.5 3.9 8v9l-3.9 8L8.7 18 0 20l-8.7-2-6.9-5.5-3.9-8v-9l3.9-8 6.9-5.5z" transform="translate(859 688)"/><path fill="#2dca4b" d="m0-21 9.1 2.1 7.3 5.8 4.1 8.4v9.4l-4.1 8.4-7.3 5.8L0 21l-9.1-2.1-7.3-5.8-4.1-8.4v-9.4l4.1-8.4 7.3-5.8z" transform="translate(2200 412)"/><path fill="#2dca4b" d="m0-36 15.6 3.6 12.5 10 7 14.4V8l-7 14.4-12.5 10L0 36l-15.6-3.6-12.5-10-7-14.4V-8l7-14.4 12.5-10z" transform="translate(2682 150)"/><path fill="#2dca4b" d="m0-27 11.7 2.7 9.4 7.5L26.3-6V6l-5.2 10.8-9.4 7.5L0 27l-11.7-2.7-9.4-7.5L-26.3 6V-6l5.2-10.8 9.4-7.5z" transform="translate(1286 1328)"/><path fill="#2dca4b" d="m0-23 10 2.3 8 6.4 4.4 9.2V5.1L18 14.3l-8 6.4L0 23l-10-2.3-8-6.4-4.4-9.2V-5.1l4.4-9.2 8-6.4z" transform="translate(2567 627)"/><path fill="#2dca4b" d="m0-10 4.3 1 3.5 2.8 1.9 4v4.4l-1.9 4L4.3 9 0 10l-4.3-1-3.5-2.8-1.9-4v-4.4l1.9-4L-4.3-9z" transform="translate(1576 478)"/><path fill="#2dca4b" d="m0-19 8.2 1.9 6.7 5.3 3.6 7.6v8.4l-3.6 7.6-6.7 5.3L0 19l-8.2-1.9-6.7-5.3-3.6-7.6v-8.4l3.6-7.6 6.7-5.3z" transform="translate(2028 1588)"/><path fill="#2dca4b" d="m0-28 12.1 2.8 9.8 7.7 5.4 11.3V6.2l-5.4 11.3-9.8 7.7L0 28l-12.1-2.8-9.8-7.7-5.4-11.3V-6.2l5.4-11.3 9.8-7.7z" transform="translate(2279 1554)"/><path fill="#2dca4b" d="m0-23 10 2.3 8 6.4 4.4 9.2V5.1L18 14.3l-8 6.4L0 23l-10-2.3-8-6.4-4.4-9.2V-5.1l4.4-9.2 8-6.4z" transform="translate(1388 1107)"/><path fill="#2dca4b" d="m0-13 5.6 1.3 4.6 3.6 2.5 5.2v5.8l-2.5 5.2-4.6 3.6L0 13l-5.6-1.3-4.6-3.6-2.5-5.2v-5.8l2.5-5.2 4.6-3.6z" transform="translate(1011 455)"/><path fill="#2dca4b" d="m0-5 2.2.5 1.7 1.4 1 2v2.2l-1 2-1.7 1.4L0 5l-2.2-.5-1.7-1.4-1-2v-2.2l1-2 1.7-1.4z" transform="translate(371 1261)"/><path fill="#2dca4b" d="m0-12 5.2 1.2 4.2 3.3 2.3 4.8v5.4L9.4 7.5l-4.2 3.3L0 12l-5.2-1.2-4.2-3.3-2.3-4.8v-5.4l2.3-4.8 4.2-3.3z" transform="translate(483 18)"/><path fill="#2dca4b" d="m0-25 10.8 2.5 8.7 6.9 4.9 10V5.6l-4.9 10-8.7 6.9L0 25l-10.8-2.5-8.7-6.9-4.9-10V-5.6l4.9-10 8.7-6.9z" transform="translate(1112 483)"/><path fill="#2dca4b" d="m0-14 6.1 1.4 4.8 3.9 2.7 5.6v6.2l-2.7 5.6-4.8 3.9L0 14l-6.1-1.4-4.8-3.9-2.7-5.6v-6.2l2.7-5.6 4.8-3.9z" transform="translate(1382 998)"/><path fill="#2dca4b" d="m0-32 13.9 3.2L25-20l6.2 12.9V7.1L25 20l-11.1 8.8L0 32l-13.9-3.2L-25 20l-6.2-12.9V-7.1L-25-20l11.1-8.8z" transform="translate(2491 1068)"/><path fill="#2dca4b" d="m0-36 15.6 3.6 12.5 10 7 14.4V8l-7 14.4-12.5 10L0 36l-15.6-3.6-12.5-10-7-14.4V-8l7-14.4 12.5-10z" transform="translate(1755 480)"/><path fill="#2dca4b" d="m0-14 6.1 1.4 4.8 3.9 2.7 5.6v6.2l-2.7 5.6-4.8 3.9L0 14l-6.1-1.4-4.8-3.9-2.7-5.6v-6.2l2.7-5.6 4.8-3.9z" transform="translate(2045 1077)"/><path fill="#2dca4b" d="m0-12 5.2 1.2 4.2 3.3 2.3 4.8v5.4L9.4 7.5l-4.2 3.3L0 12l-5.2-1.2-4.2-3.3-2.3-4.8v-5.4l2.3-4.8 4.2-3.3z" transform="translate(724 1067)"/><path fill="#2dca4b" d="m0-31 13.5 3.1 10.7 8.6 6 12.4V6.9l-6 12.4-10.7 8.6L0 31l-13.5-3.1-10.7-8.6-6-12.4V-6.9l6-12.4 10.7-8.6z" transform="translate(1051 1549)"/><path fill="#2dca4b" d="m0-26 11.3 2.6 9 7.2 5 10.4V5.8l-5 10.4-9 7.2L0 26l-11.3-2.6-9-7.2-5-10.4V-5.8l5-10.4 9-7.2z" transform="translate(588 1195)"/><path fill="#2dca4b" d="m0-4 1.7.4 1.4 1.1.8 1.6V.9l-.8 1.6-1.4 1.1L0 4l-1.7-.4-1.4-1.1-.8-1.6V-.9l.8-1.6 1.4-1.1z" transform="translate(1202 1227)"/><path fill="#2dca4b" d="m0-9 3.9.9L7-5.6 8.8-2v4L7 5.6 3.9 8.1 0 9l-3.9-.9L-7 5.6-8.8 2v-4L-7-5.6l3.1-2.5z" transform="translate(900 1268)"/><path fill="#2dca4b" d="m0-12 5.2 1.2 4.2 3.3 2.3 4.8v5.4L9.4 7.5l-4.2 3.3L0 12l-5.2-1.2-4.2-3.3-2.3-4.8v-5.4l2.3-4.8 4.2-3.3z" transform="translate(363 1591)"/><path fill="#2dca4b" d="m0-28 12.1 2.8 9.8 7.7 5.4 11.3V6.2l-5.4 11.3-9.8 7.7L0 28l-12.1-2.8-9.8-7.7-5.4-11.3V-6.2l5.4-11.3 9.8-7.7z" transform="translate(2404 272)"/><path fill="#2dca4b" d="m0-34 14.8 3.4 11.8 9.4 6.5 13.6V7.6l-6.5 13.6-11.8 9.4L0 34l-14.8-3.4-11.8-9.4-6.5-13.6V-7.6l6.5-13.6 11.8-9.4z" transform="translate(1722 1096)"/><path fill="#2dca4b" d="m0-26 11.3 2.6 9 7.2 5 10.4V5.8l-5 10.4-9 7.2L0 26l-11.3-2.6-9-7.2-5-10.4V-5.8l5-10.4 9-7.2z" transform="translate(48 323)"/><path fill="#2dca4b" d="m0-12 5.2 1.2 4.2 3.3 2.3 4.8v5.4L9.4 7.5l-4.2 3.3L0 12l-5.2-1.2-4.2-3.3-2.3-4.8v-5.4l2.3-4.8 4.2-3.3z" transform="translate(2348 22)"/><path fill="#2dca4b" d="m0-15 6.5 1.5 5.2 4.1 2.9 6.1v6.6l-2.9 6.1-5.2 4.1L0 15l-6.5-1.5-5.2-4.1-2.9-6.1v-6.6l2.9-6.1 5.2-4.1z" transform="translate(2294 639)"/><path fill="#2dca4b" d="m0-17 7.4 1.7 5.9 4.7 3.3 6.8v7.6l-3.3 6.8-5.9 4.7L0 17l-7.4-1.7-5.9-4.7-3.3-6.8v-7.6l3.3-6.8 5.9-4.7z" transform="translate(363 925)"/><path fill="#2dca4b" d="m0-26 11.3 2.6 9 7.2 5 10.4V5.8l-5 10.4-9 7.2L0 26l-11.3-2.6-9-7.2-5-10.4V-5.8l5-10.4 9-7.2z" transform="translate(1509 1091)"/><path fill="#2dca4b" d="m0-23 10 2.3 8 6.4 4.4 9.2V5.1L18 14.3l-8 6.4L0 23l-10-2.3-8-6.4-4.4-9.2V-5.1l4.4-9.2 8-6.4z" transform="translate(1350 660)"/><path fill="#2dca4b" d="m0-30 13 3 10.5 8.3 5.7 12V6.7l-5.7 12L13 27 0 30l-13-3-10.5-8.3-5.7-12V-6.7l5.7-12L-13-27z" transform="translate(157 1360)"/><path fill="#2dca4b" d="m0-14 6.1 1.4 4.8 3.9 2.7 5.6v6.2l-2.7 5.6-4.8 3.9L0 14l-6.1-1.4-4.8-3.9-2.7-5.6v-6.2l2.7-5.6 4.8-3.9z" transform="translate(1741 610)"/><path fill="#2dca4b" d="m0-17 7.4 1.7 5.9 4.7 3.3 6.8v7.6l-3.3 6.8-5.9 4.7L0 17l-7.4-1.7-5.9-4.7-3.3-6.8v-7.6l3.3-6.8 5.9-4.7z" transform="translate(1053 1471)"/><path fill="#2dca4b" d="m0-16 6.9 1.6 5.6 4.4 3.1 6.4v7.2L12.5 10l-5.6 4.4L0 16l-6.9-1.6-5.6-4.4-3.1-6.4v-7.2l3.1-6.4 5.6-4.4z" transform="translate(2499 589)"/><path fill="#2dca4b" d="m0-36 15.6 3.6 12.5 10 7 14.4V8l-7 14.4-12.5 10L0 36l-15.6-3.6-12.5-10-7-14.4V-8l7-14.4 12.5-10z" transform="translate(1678 305)"/><path fill="#2dca4b" d="m0-6 2.6.6 2.1 1.7 1.1 2.4v2.6L4.7 3.7 2.6 5.4 0 6l-2.6-.6-2.1-1.7-1.1-2.4v-2.6l1.1-2.4 2.1-1.7z" transform="translate(1897 123)"/><path fill="#2dca4b" d="m0-25 10.8 2.5 8.7 6.9 4.9 10V5.6l-4.9 10-8.7 6.9L0 25l-10.8-2.5-8.7-6.9-4.9-10V-5.6l4.9-10 8.7-6.9z" transform="translate(452 1498)"/><path fill="#2dca4b" d="m0-13 5.6 1.3 4.6 3.6 2.5 5.2v5.8l-2.5 5.2-4.6 3.6L0 13l-5.6-1.3-4.6-3.6-2.5-5.2v-5.8l2.5-5.2 4.6-3.6z" transform="translate(2121 1291)"/><path fill="#2dca4b" d="m0-4 1.7.4 1.4 1.1.8 1.6V.9l-.8 1.6-1.4 1.1L0 4l-1.7-.4-1.4-1.1-.8-1.6V-.9l.8-1.6 1.4-1.1z" transform="translate(2090 234)"/><path fill="#2dca4b" d="m0-27 11.7 2.7 9.4 7.5L26.3-6V6l-5.2 10.8-9.4 7.5L0 27l-11.7-2.7-9.4-7.5L-26.3 6V-6l5.2-10.8 9.4-7.5z" transform="translate(2557 986)"/><path fill="#2dca4b" d="m0-21 9.1 2.1 7.3 5.8 4.1 8.4v9.4l-4.1 8.4-7.3 5.8L0 21l-9.1-2.1-7.3-5.8-4.1-8.4v-9.4l4.1-8.4 7.3-5.8z" transform="translate(1171 28)"/><path fill="#2dca4b" d="m0-24 10.4 2.4 8.4 6.6 4.6 9.7V5.3L18.8 15l-8.4 6.6L0 24l-10.4-2.4-8.4-6.6-4.6-9.7V-5.3l4.6-9.7 8.4-6.6z" transform="translate(2028 65)"/><path fill="#2dca4b" d="m0-9 3.9.9L7-5.6 8.8-2v4L7 5.6 3.9 8.1 0 9l-3.9-.9L-7 5.6-8.8 2v-4L-7-5.6l3.1-2.5z" transform="translate(574 1398)"/><path fill="#2dca4b" d="m0-27 11.7 2.7 9.4 7.5L26.3-6V6l-5.2 10.8-9.4 7.5L0 27l-11.7-2.7-9.4-7.5L-26.3 6V-6l5.2-10.8 9.4-7.5z" transform="translate(1744 1521)"/><path fill="#2dca4b" d="m0-31 13.5 3.1 10.7 8.6 6 12.4V6.9l-6 12.4-10.7 8.6L0 31l-13.5-3.1-10.7-8.6-6-12.4V-6.9l6-12.4 10.7-8.6z" transform="translate(969 210)"/><path fill="#2dca4b" d="m0-29 12.6 2.9 10.1 8 5.6 11.6v13l-5.6 11.6-10.1 8L0 29l-12.6-2.9-10.1-8-5.6-11.6v-13l5.6-11.6 10.1-8z" transform="translate(2608 111)"/><path fill="#2dca4b" d="m0-23 10 2.3 8 6.4 4.4 9.2V5.1L18 14.3l-8 6.4L0 23l-10-2.3-8-6.4-4.4-9.2V-5.1l4.4-9.2 8-6.4z" transform="translate(894 1065)"/><path fill="#2dca4b" d="m0-16 6.9 1.6 5.6 4.4 3.1 6.4v7.2L12.5 10l-5.6 4.4L0 16l-6.9-1.6-5.6-4.4-3.1-6.4v-7.2l3.1-6.4 5.6-4.4z" transform="translate(1419 890)"/><path fill="#2dca4b" d="m0-15 6.5 1.5 5.2 4.1 2.9 6.1v6.6l-2.9 6.1-5.2 4.1L0 15l-6.5-1.5-5.2-4.1-2.9-6.1v-6.6l2.9-6.1 5.2-4.1z" transform="translate(2091 597)"/><path fill="#2dca4b" d="m0-18 7.8 1.8 6.3 5L17.5-4v8l-3.4 7.2-6.3 5L0 18l-7.8-1.8-6.3-5-3.4-7.2v-8l3.4-7.2 6.3-5z" transform="translate(2499 1340)"/><path fill="#2dca4b" d="m0-5 2.2.5 1.7 1.4 1 2v2.2l-1 2-1.7 1.4L0 5l-2.2-.5-1.7-1.4-1-2v-2.2l1-2 1.7-1.4z" transform="translate(496 589)"/><path fill="#2dca4b" d="m0-9 3.9.9L7-5.6 8.8-2v4L7 5.6 3.9 8.1 0 9l-3.9-.9L-7 5.6-8.8 2v-4L-7-5.6l3.1-2.5z" transform="translate(2675 339)"/><path fill="#2dca4b" d="m0-21 9.1 2.1 7.3 5.8 4.1 8.4v9.4l-4.1 8.4-7.3 5.8L0 21l-9.1-2.1-7.3-5.8-4.1-8.4v-9.4l4.1-8.4 7.3-5.8z" transform="translate(434 818)"/><path fill="#2dca4b" d="m0-22 9.5 2.2 7.7 6.1 4.2 8.8v9.8l-4.2 8.8-7.7 6.1L0 22l-9.5-2.2-7.7-6.1-4.2-8.8v-9.8l4.2-8.8 7.7-6.1z" transform="translate(2457 10)"/><path fill="#2dca4b" d="m0-35 15.2 3.5 12.2 9.7 6.7 14V7.8l-6.7 14-12.2 9.7L0 35l-15.2-3.5-12.2-9.7-6.7-14V-7.8l6.7-14 12.2-9.7z" transform="translate(879 4)"/><path fill="#2dca4b" d="m0-10 4.3 1 3.5 2.8 1.9 4v4.4l-1.9 4L4.3 9 0 10l-4.3-1-3.5-2.8-1.9-4v-4.4l1.9-4L-4.3-9z" transform="translate(1736 864)"/><path fill="#2dca4b" d="m0-11 4.8 1.1 3.8 3 2.1 4.5v4.8L8.6 6.9l-3.8 3L0 11l-4.8-1.1-3.8-3-2.1-4.5v-4.8l2.1-4.5 3.8-3z" transform="translate(655 367)"/><path fill="#2dca4b" d="m0-29 12.6 2.9 10.1 8 5.6 11.6v13l-5.6 11.6-10.1 8L0 29l-12.6-2.9-10.1-8-5.6-11.6v-13l5.6-11.6 10.1-8z" transform="translate(450 1575)"/><path fill="#2dca4b" d="m0-29 12.6 2.9 10.1 8 5.6 11.6v13l-5.6 11.6-10.1 8L0 29l-12.6-2.9-10.1-8-5.6-11.6v-13l5.6-11.6 10.1-8z" transform="translate(1729 23)"/><path fill="#2dca4b" d="m0-23 10 2.3 8 6.4 4.4 9.2V5.1L18 14.3l-8 6.4L0 23l-10-2.3-8-6.4-4.4-9.2V-5.1l4.4-9.2 8-6.4z" transform="translate(2006 890)"/><path fill="#2dca4b" d="m0-29 12.6 2.9 10.1 8 5.6 11.6v13l-5.6 11.6-10.1 8L0 29l-12.6-2.9-10.1-8-5.6-11.6v-13l5.6-11.6 10.1-8z" transform="translate(2101 14)"/><path fill="#2dca4b" d="m0-15 6.5 1.5 5.2 4.1 2.9 6.1v6.6l-2.9 6.1-5.2 4.1L0 15l-6.5-1.5-5.2-4.1-2.9-6.1v-6.6l2.9-6.1 5.2-4.1z" transform="translate(698 649)"/><path fill="#2dca4b" d="m0-31 13.5 3.1 10.7 8.6 6 12.4V6.9l-6 12.4-10.7 8.6L0 31l-13.5-3.1-10.7-8.6-6-12.4V-6.9l6-12.4 10.7-8.6z" transform="translate(1128 281)"/><path fill="#2dca4b" d="m0-4 1.7.4 1.4 1.1.8 1.6V.9l-.8 1.6-1.4 1.1L0 4l-1.7-.4-1.4-1.1-.8-1.6V-.9l.8-1.6 1.4-1.1z" transform="translate(2200 536)"/><path fill="#2dca4b" d="m0-6 2.6.6 2.1 1.7 1.1 2.4v2.6L4.7 3.7 2.6 5.4 0 6l-2.6-.6-2.1-1.7-1.1-2.4v-2.6l1.1-2.4 2.1-1.7z" transform="translate(948 369)"/><path fill="#2dca4b" d="m0-24 10.4 2.4 8.4 6.6 4.6 9.7V5.3L18.8 15l-8.4 6.6L0 24l-10.4-2.4-8.4-6.6-4.6-9.7V-5.3l4.6-9.7 8.4-6.6z" transform="translate(2031 293)"/><path fill="#2dca4b" d="m0-14 6.1 1.4 4.8 3.9 2.7 5.6v6.2l-2.7 5.6-4.8 3.9L0 14l-6.1-1.4-4.8-3.9-2.7-5.6v-6.2l2.7-5.6 4.8-3.9z" transform="translate(2584 17)"/><path fill="#2dca4b" d="m0-25 10.8 2.5 8.7 6.9 4.9 10V5.6l-4.9 10-8.7 6.9L0 25l-10.8-2.5-8.7-6.9-4.9-10V-5.6l4.9-10 8.7-6.9z" transform="translate(1988 160)"/><path fill="#2dca4b" d="m0-17 7.4 1.7 5.9 4.7 3.3 6.8v7.6l-3.3 6.8-5.9 4.7L0 17l-7.4-1.7-5.9-4.7-3.3-6.8v-7.6l3.3-6.8 5.9-4.7z" transform="translate(705 1407)"/><path fill="#2dca4b" d="m0-6 2.6.6 2.1 1.7 1.1 2.4v2.6L4.7 3.7 2.6 5.4 0 6l-2.6-.6-2.1-1.7-1.1-2.4v-2.6l1.1-2.4 2.1-1.7z" transform="translate(2638 271)"/><path fill="#2dca4b" d="m0-20 8.7 2 6.9 5.5 3.9 8v9l-3.9 8L8.7 18 0 20l-8.7-2-6.9-5.5-3.9-8v-9l3.9-8 6.9-5.5z" transform="translate(1722 716)"/><path fill="#2dca4b" d="m0-27 11.7 2.7 9.4 7.5L26.3-6V6l-5.2 10.8-9.4 7.5L0 27l-11.7-2.7-9.4-7.5L-26.3 6V-6l5.2-10.8 9.4-7.5z" transform="translate(367 1490)"/><path fill="#2dca4b" d="m0-4 1.7.4 1.4 1.1.8 1.6V.9l-.8 1.6-1.4 1.1L0 4l-1.7-.4-1.4-1.1-.8-1.6V-.9l.8-1.6 1.4-1.1z" transform="translate(1558 1149)"/><path fill="#2dca4b" d="m0-12 5.2 1.2 4.2 3.3 2.3 4.8v5.4L9.4 7.5l-4.2 3.3L0 12l-5.2-1.2-4.2-3.3-2.3-4.8v-5.4l2.3-4.8 4.2-3.3z" transform="translate(943 1179)"/><path fill="#2dca4b" d="m0-15 6.5 1.5 5.2 4.1 2.9 6.1v6.6l-2.9 6.1-5.2 4.1L0 15l-6.5-1.5-5.2-4.1-2.9-6.1v-6.6l2.9-6.1 5.2-4.1z" transform="translate(1435 1484)"/><path fill="#2dca4b" d="m0-4 1.7.4 1.4 1.1.8 1.6V.9l-.8 1.6-1.4 1.1L0 4l-1.7-.4-1.4-1.1-.8-1.6V-.9l.8-1.6 1.4-1.1z" transform="translate(899 936)"/><path fill="#2dca4b" d="m0-12 5.2 1.2 4.2 3.3 2.3 4.8v5.4L9.4 7.5l-4.2 3.3L0 12l-5.2-1.2-4.2-3.3-2.3-4.8v-5.4l2.3-4.8 4.2-3.3z" transform="translate(1824 988)"/><path fill="#2dca4b" d="m0-15 6.5 1.5 5.2 4.1 2.9 6.1v6.6l-2.9 6.1-5.2 4.1L0 15l-6.5-1.5-5.2-4.1-2.9-6.1v-6.6l2.9-6.1 5.2-4.1z" transform="translate(626 687)"/><path fill="#2dca4b" d="m0-27 11.7 2.7 9.4 7.5L26.3-6V6l-5.2 10.8-9.4 7.5L0 27l-11.7-2.7-9.4-7.5L-26.3 6V-6l5.2-10.8 9.4-7.5z" transform="translate(250 246)"/><path fill="#2dca4b" d="m0-32 13.9 3.2L25-20l6.2 12.9V7.1L25 20l-11.1 8.8L0 32l-13.9-3.2L-25 20l-6.2-12.9V-7.1L-25-20l11.1-8.8z" transform="translate(681 866)"/><path fill="#2dca4b" d="m0-5 2.2.5 1.7 1.4 1 2v2.2l-1 2-1.7 1.4L0 5l-2.2-.5-1.7-1.4-1-2v-2.2l1-2 1.7-1.4z" transform="translate(665 196)"/><path fill="#2dca4b" d="m0-13 5.6 1.3 4.6 3.6 2.5 5.2v5.8l-2.5 5.2-4.6 3.6L0 13l-5.6-1.3-4.6-3.6-2.5-5.2v-5.8l2.5-5.2 4.6-3.6z" transform="translate(2232 807)"/><path fill="#2dca4b" d="m0-13 5.6 1.3 4.6 3.6 2.5 5.2v5.8l-2.5 5.2-4.6 3.6L0 13l-5.6-1.3-4.6-3.6-2.5-5.2v-5.8l2.5-5.2 4.6-3.6z" transform="translate(820 958)"/><path fill="#2dca4b" d="m0-15 6.5 1.5 5.2 4.1 2.9 6.1v6.6l-2.9 6.1-5.2 4.1L0 15l-6.5-1.5-5.2-4.1-2.9-6.1v-6.6l2.9-6.1 5.2-4.1z" transform="translate(515 376)"/><path fill="#2dca4b" d="m0-26 11.3 2.6 9 7.2 5 10.4V5.8l-5 10.4-9 7.2L0 26l-11.3-2.6-9-7.2-5-10.4V-5.8l5-10.4 9-7.2z" transform="translate(1784 1591)"/><path fill="#2dca4b" d="m0-26 11.3 2.6 9 7.2 5 10.4V5.8l-5 10.4-9 7.2L0 26l-11.3-2.6-9-7.2-5-10.4V-5.8l5-10.4 9-7.2z" transform="translate(1049 806)"/><path fill="#2dca4b" d="m0-10 4.3 1 3.5 2.8 1.9 4v4.4l-1.9 4L4.3 9 0 10l-4.3-1-3.5-2.8-1.9-4v-4.4l1.9-4L-4.3-9z" transform="translate(457 1054)"/><path fill="#2dca4b" d="m0-5 2.2.5 1.7 1.4 1 2v2.2l-1 2-1.7 1.4L0 5l-2.2-.5-1.7-1.4-1-2v-2.2l1-2 1.7-1.4z" transform="translate(1063 1187)"/><path fill="#2dca4b" d="m0-34 14.8 3.4 11.8 9.4 6.5 13.6V7.6l-6.5 13.6-11.8 9.4L0 34l-14.8-3.4-11.8-9.4-6.5-13.6V-7.6l6.5-13.6 11.8-9.4z" transform="translate(2436 733)"/><path fill="#2dca4b" d="m0-10 4.3 1 3.5 2.8 1.9 4v4.4l-1.9 4L4.3 9 0 10l-4.3-1-3.5-2.8-1.9-4v-4.4l1.9-4L-4.3-9z" transform="translate(2210 1226)"/><path fill="#2dca4b" d="m0-25 10.8 2.5 8.7 6.9 4.9 10V5.6l-4.9 10-8.7 6.9L0 25l-10.8-2.5-8.7-6.9-4.9-10V-5.6l4.9-10 8.7-6.9z" transform="translate(732 32)"/><path fill="#2dca4b" d="m0-20 8.7 2 6.9 5.5 3.9 8v9l-3.9 8L8.7 18 0 20l-8.7-2-6.9-5.5-3.9-8v-9l3.9-8 6.9-5.5z" transform="translate(1802 539)"/><path fill="#2dca4b" d="m0-16 6.9 1.6 5.6 4.4 3.1 6.4v7.2L12.5 10l-5.6 4.4L0 16l-6.9-1.6-5.6-4.4-3.1-6.4v-7.2l3.1-6.4 5.6-4.4z" transform="translate(2109 1502)"/><path fill="#2dca4b" d="m0-23 10 2.3 8 6.4 4.4 9.2V5.1L18 14.3l-8 6.4L0 23l-10-2.3-8-6.4-4.4-9.2V-5.1l4.4-9.2 8-6.4z" transform="translate(2627 677)"/><path fill="#2dca4b" d="m0-24 10.4 2.4 8.4 6.6 4.6 9.7V5.3L18.8 15l-8.4 6.6L0 24l-10.4-2.4-8.4-6.6-4.6-9.7V-5.3l4.6-9.7 8.4-6.6z" transform="translate(1129 1121)"/><path fill="#2dca4b" d="m0-13 5.6 1.3 4.6 3.6 2.5 5.2v5.8l-2.5 5.2-4.6 3.6L0 13l-5.6-1.3-4.6-3.6-2.5-5.2v-5.8l2.5-5.2 4.6-3.6z" transform="translate(1996 1508)"/><path fill="#2dca4b" d="m0-23 10 2.3 8 6.4 4.4 9.2V5.1L18 14.3l-8 6.4L0 23l-10-2.3-8-6.4-4.4-9.2V-5.1l4.4-9.2 8-6.4z" transform="translate(1624 399)"/><path fill="#2dca4b" d="m0-34 14.8 3.4 11.8 9.4 6.5 13.6V7.6l-6.5 13.6-11.8 9.4L0 34l-14.8-3.4-11.8-9.4-6.5-13.6V-7.6l6.5-13.6 11.8-9.4z" transform="translate(404 376)"/><path fill="#2dca4b" d="m0-33 14.3 3.3 11.5 9.1 6.4 13.3V7.3l-6.4 13.3-11.5 9.1L0 33l-14.3-3.3-11.5-9.1-6.4-13.3V-7.3l6.4-13.3 11.5-9.1z" transform="translate(1884 747)"/><path fill="#2dca4b" d="m0-12 5.2 1.2 4.2 3.3 2.3 4.8v5.4L9.4 7.5l-4.2 3.3L0 12l-5.2-1.2-4.2-3.3-2.3-4.8v-5.4l2.3-4.8 4.2-3.3z" transform="translate(813 1430)"/><path fill="#2dca4b" d="m0-34 14.8 3.4 11.8 9.4 6.5 13.6V7.6l-6.5 13.6-11.8 9.4L0 34l-14.8-3.4-11.8-9.4-6.5-13.6V-7.6l6.5-13.6 11.8-9.4z" transform="translate(848 107)"/><path fill="#2dca4b" d="m0-20 8.7 2 6.9 5.5 3.9 8v9l-3.9 8L8.7 18 0 20l-8.7-2-6.9-5.5-3.9-8v-9l3.9-8 6.9-5.5z" transform="translate(401 1382)"/><path fill="#2dca4b" d="m0-25 10.8 2.5 8.7 6.9 4.9 10V5.6l-4.9 10-8.7 6.9L0 25l-10.8-2.5-8.7-6.9-4.9-10V-5.6l4.9-10 8.7-6.9z" transform="translate(867 250)"/><path fill="#2dca4b" d="m0-29 12.6 2.9 10.1 8 5.6 11.6v13l-5.6 11.6-10.1 8L0 29l-12.6-2.9-10.1-8-5.6-11.6v-13l5.6-11.6 10.1-8z" transform="translate(1964 428)"/><path fill="#2dca4b" d="m0-14 6.1 1.4 4.8 3.9 2.7 5.6v6.2l-2.7 5.6-4.8 3.9L0 14l-6.1-1.4-4.8-3.9-2.7-5.6v-6.2l2.7-5.6 4.8-3.9z" transform="translate(775 254)"/><path fill="#2dca4b" d="m0-5 2.2.5 1.7 1.4 1 2v2.2l-1 2-1.7 1.4L0 5l-2.2-.5-1.7-1.4-1-2v-2.2l1-2 1.7-1.4z" transform="translate(1515 1324)"/><path fill="#2dca4b" d="m0-19 8.2 1.9 6.7 5.3 3.6 7.6v8.4l-3.6 7.6-6.7 5.3L0 19l-8.2-1.9-6.7-5.3-3.6-7.6v-8.4l3.6-7.6 6.7-5.3z" transform="translate(2621 397)"/><path fill="#2dca4b" d="m0-5 2.2.5 1.7 1.4 1 2v2.2l-1 2-1.7 1.4L0 5l-2.2-.5-1.7-1.4-1-2v-2.2l1-2 1.7-1.4z" transform="translate(2030 1319)"/><path fill="#2dca4b" d="m0-26 11.3 2.6 9 7.2 5 10.4V5.8l-5 10.4-9 7.2L0 26l-11.3-2.6-9-7.2-5-10.4V-5.8l5-10.4 9-7.2z" transform="translate(1856 1282)"/><path fill="#2dca4b" d="m0-31 13.5 3.1 10.7 8.6 6 12.4V6.9l-6 12.4-10.7 8.6L0 31l-13.5-3.1-10.7-8.6-6-12.4V-6.9l6-12.4 10.7-8.6z" transform="translate(1691 1417)"/><path fill="#2dca4b" d="m0-36 15.6 3.6 12.5 10 7 14.4V8l-7 14.4-12.5 10L0 36l-15.6-3.6-12.5-10-7-14.4V-8l7-14.4 12.5-10z" transform="translate(1493 11)"/><path fill="#2dca4b" d="m0-33 14.3 3.3 11.5 9.1 6.4 13.3V7.3l-6.4 13.3-11.5 9.1L0 33l-14.3-3.3-11.5-9.1-6.4-13.3V-7.3l6.4-13.3 11.5-9.1z" transform="translate(1595 1288)"/><path fill="#2dca4b" d="m0-13 5.6 1.3 4.6 3.6 2.5 5.2v5.8l-2.5 5.2-4.6 3.6L0 13l-5.6-1.3-4.6-3.6-2.5-5.2v-5.8l2.5-5.2 4.6-3.6z" transform="translate(517 800)"/><path fill="#2dca4b" d="m0-10 4.3 1 3.5 2.8 1.9 4v4.4l-1.9 4L4.3 9 0 10l-4.3-1-3.5-2.8-1.9-4v-4.4l1.9-4L-4.3-9z" transform="translate(1282 378)"/><path fill="#2dca4b" d="m0-4 1.7.4 1.4 1.1.8 1.6V.9l-.8 1.6-1.4 1.1L0 4l-1.7-.4-1.4-1.1-.8-1.6V-.9l.8-1.6 1.4-1.1z" transform="translate(2161 277)"/><path fill="#2dca4b" d="m0-27 11.7 2.7 9.4 7.5L26.3-6V6l-5.2 10.8-9.4 7.5L0 27l-11.7-2.7-9.4-7.5L-26.3 6V-6l5.2-10.8 9.4-7.5z" transform="translate(2514 146)"/><path fill="#2dca4b" d="m0-20 8.7 2 6.9 5.5 3.9 8v9l-3.9 8L8.7 18 0 20l-8.7-2-6.9-5.5-3.9-8v-9l3.9-8 6.9-5.5z" transform="translate(1857 345)"/><path fill="#2dca4b" d="m0-20 8.7 2 6.9 5.5 3.9 8v9l-3.9 8L8.7 18 0 20l-8.7-2-6.9-5.5-3.9-8v-9l3.9-8 6.9-5.5z" transform="translate(358 60)"/><path fill="#2dca4b" d="m0-26 11.3 2.6 9 7.2 5 10.4V5.8l-5 10.4-9 7.2L0 26l-11.3-2.6-9-7.2-5-10.4V-5.8l5-10.4 9-7.2z" transform="translate(335 265)"/><path fill="#2dca4b" d="m0-23 10 2.3 8 6.4 4.4 9.2V5.1L18 14.3l-8 6.4L0 23l-10-2.3-8-6.4-4.4-9.2V-5.1l4.4-9.2 8-6.4z" transform="translate(179 1134)"/><path fill="#2dca4b" d="m0-30 13 3 10.5 8.3 5.7 12V6.7l-5.7 12L13 27 0 30l-13-3-10.5-8.3-5.7-12V-6.7l5.7-12L-13-27z" transform="translate(1629 826)"/><path fill="#2dca4b" d="m0-34 14.8 3.4 11.8 9.4 6.5 13.6V7.6l-6.5 13.6-11.8 9.4L0 34l-14.8-3.4-11.8-9.4-6.5-13.6V-7.6l6.5-13.6 11.8-9.4z" transform="translate(761 352)"/><path fill="#2dca4b" d="m0-34 14.8 3.4 11.8 9.4 6.5 13.6V7.6l-6.5 13.6-11.8 9.4L0 34l-14.8-3.4-11.8-9.4-6.5-13.6V-7.6l6.5-13.6 11.8-9.4z" transform="translate(2301 1194)"/><path fill="#2dca4b" d="m0-9 3.9.9L7-5.6 8.8-2v4L7 5.6 3.9 8.1 0 9l-3.9-.9L-7 5.6-8.8 2v-4L-7-5.6l3.1-2.5z" transform="translate(1544 1471)"/><path fill="#2dca4b" d="m0-6 2.6.6 2.1 1.7 1.1 2.4v2.6L4.7 3.7 2.6 5.4 0 6l-2.6-.6-2.1-1.7-1.1-2.4v-2.6l1.1-2.4 2.1-1.7z" transform="translate(1090 1310)"/><path fill="#2dca4b" d="m0-8 3.5.8L6.3-5l1.5 3.2v3.6L6.3 5 3.5 7.2 0 8l-3.5-.8L-6.3 5l-1.5-3.2v-3.6L-6.3-5l2.8-2.2z" transform="translate(278 1372)"/><path fill="#2dca4b" d="m0-28 12.1 2.8 9.8 7.7 5.4 11.3V6.2l-5.4 11.3-9.8 7.7L0 28l-12.1-2.8-9.8-7.7-5.4-11.3V-6.2l5.4-11.3 9.8-7.7z" transform="translate(1945 1346)"/><path fill="#2dca4b" d="m0-13 5.6 1.3 4.6 3.6 2.5 5.2v5.8l-2.5 5.2-4.6 3.6L0 13l-5.6-1.3-4.6-3.6-2.5-5.2v-5.8l2.5-5.2 4.6-3.6z" transform="translate(2117 344)"/><path fill="#2dca4b" d="m0-11 4.8 1.1 3.8 3 2.1 4.5v4.8L8.6 6.9l-3.8 3L0 11l-4.8-1.1-3.8-3-2.1-4.5v-4.8l2.1-4.5 3.8-3z" transform="translate(641 1125)"/><path fill="#2dca4b" d="m0-19 8.2 1.9 6.7 5.3 3.6 7.6v8.4l-3.6 7.6-6.7 5.3L0 19l-8.2-1.9-6.7-5.3-3.6-7.6v-8.4l3.6-7.6 6.7-5.3z" transform="translate(1158 1040)"/><path fill="#2dca4b" d="m0-27 11.7 2.7 9.4 7.5L26.3-6V6l-5.2 10.8-9.4 7.5L0 27l-11.7-2.7-9.4-7.5L-26.3 6V-6l5.2-10.8 9.4-7.5z" transform="translate(2154 742)"/><path fill="#2dca4b" d="m0-4 1.7.4 1.4 1.1.8 1.6V.9l-.8 1.6-1.4 1.1L0 4l-1.7-.4-1.4-1.1-.8-1.6V-.9l.8-1.6 1.4-1.1z" transform="translate(63 586)"/><path fill="#2dca4b" d="m0-18 7.8 1.8 6.3 5L17.5-4v8l-3.4 7.2-6.3 5L0 18l-7.8-1.8-6.3-5-3.4-7.2v-8l3.4-7.2 6.3-5z" transform="translate(1241 1040)"/><path fill="#2dca4b" d="m0-34 14.8 3.4 11.8 9.4 6.5 13.6V7.6l-6.5 13.6-11.8 9.4L0 34l-14.8-3.4-11.8-9.4-6.5-13.6V-7.6l6.5-13.6 11.8-9.4z" transform="translate(1931 32)"/><path fill="#2dca4b" d="m0-19 8.2 1.9 6.7 5.3 3.6 7.6v8.4l-3.6 7.6-6.7 5.3L0 19l-8.2-1.9-6.7-5.3-3.6-7.6v-8.4l3.6-7.6 6.7-5.3z" transform="translate(868 1590)"/><path fill="#2dca4b" d="m0-30 13 3 10.5 8.3 5.7 12V6.7l-5.7 12L13 27 0 30l-13-3-10.5-8.3-5.7-12V-6.7l5.7-12L-13-27z" transform="translate(1010 61)"/><path fill="#2dca4b" d="m0-13 5.6 1.3 4.6 3.6 2.5 5.2v5.8l-2.5 5.2-4.6 3.6L0 13l-5.6-1.3-4.6-3.6-2.5-5.2v-5.8l2.5-5.2 4.6-3.6z" transform="translate(1131 1558)"/><path fill="#2dca4b" d="m0-33 14.3 3.3 11.5 9.1 6.4 13.3V7.3l-6.4 13.3-11.5 9.1L0 33l-14.3-3.3-11.5-9.1-6.4-13.3V-7.3l6.4-13.3 11.5-9.1z" transform="translate(1747 1360)"/><path fill="#2dca4b" d="m0-9 3.9.9L7-5.6 8.8-2v4L7 5.6 3.9 8.1 0 9l-3.9-.9L-7 5.6-8.8 2v-4L-7-5.6l3.1-2.5z" transform="translate(541 146)"/><path fill="#2dca4b" d="m0-13 5.6 1.3 4.6 3.6 2.5 5.2v5.8l-2.5 5.2-4.6 3.6L0 13l-5.6-1.3-4.6-3.6-2.5-5.2v-5.8l2.5-5.2 4.6-3.6z" transform="translate(1368 1241)"/><path fill="#2dca4b" d="m0-10 4.3 1 3.5 2.8 1.9 4v4.4l-1.9 4L4.3 9 0 10l-4.3-1-3.5-2.8-1.9-4v-4.4l1.9-4L-4.3-9z" transform="translate(15 1094)"/><path fill="#2dca4b" d="m0-29 12.6 2.9 10.1 8 5.6 11.6v13l-5.6 11.6-10.1 8L0 29l-12.6-2.9-10.1-8-5.6-11.6v-13l5.6-11.6 10.1-8z" transform="translate(2586 1073)"/><path fill="#2dca4b" d="m0-34 14.8 3.4 11.8 9.4 6.5 13.6V7.6l-6.5 13.6-11.8 9.4L0 34l-14.8-3.4-11.8-9.4-6.5-13.6V-7.6l6.5-13.6 11.8-9.4z" transform="translate(2021 1438)"/><path fill="#2dca4b" d="m0-7 3 .7 2.5 1.9 1.3 2.8v3.2L5.5 4.4 3 6.3 0 7l-3-.7-2.5-1.9-1.3-2.8v-3.2l1.3-2.8L-3-6.3z" transform="translate(1555 355)"/><path fill="#2dca4b" d="m0-28 12.1 2.8 9.8 7.7 5.4 11.3V6.2l-5.4 11.3-9.8 7.7L0 28l-12.1-2.8-9.8-7.7-5.4-11.3V-6.2l5.4-11.3 9.8-7.7z" transform="translate(197 1037)"/><path fill="#2dca4b" d="m0-28 12.1 2.8 9.8 7.7 5.4 11.3V6.2l-5.4 11.3-9.8 7.7L0 28l-12.1-2.8-9.8-7.7-5.4-11.3V-6.2l5.4-11.3 9.8-7.7z" transform="translate(1342 15)"/><path fill="#2dca4b" d="m0-32 13.9 3.2L25-20l6.2 12.9V7.1L25 20l-11.1 8.8L0 32l-13.9-3.2L-25 20l-6.2-12.9V-7.1L-25-20l11.1-8.8z" transform="translate(651 1591)"/><path fill="#2dca4b" d="m0-23 10 2.3 8 6.4 4.4 9.2V5.1L18 14.3l-8 6.4L0 23l-10-2.3-8-6.4-4.4-9.2V-5.1l4.4-9.2 8-6.4z" transform="translate(25 153)"/><path fill="#2dca4b" d="m0-14 6.1 1.4 4.8 3.9 2.7 5.6v6.2l-2.7 5.6-4.8 3.9L0 14l-6.1-1.4-4.8-3.9-2.7-5.6v-6.2l2.7-5.6 4.8-3.9z" transform="translate(1098 739)"/><path fill="#2dca4b" d="m0-27 11.7 2.7 9.4 7.5L26.3-6V6l-5.2 10.8-9.4 7.5L0 27l-11.7-2.7-9.4-7.5L-26.3 6V-6l5.2-10.8 9.4-7.5z" transform="translate(168 869)"/><path fill="#2dca4b" d="m0-36 15.6 3.6 12.5 10 7 14.4V8l-7 14.4-12.5 10L0 36l-15.6-3.6-12.5-10-7-14.4V-8l7-14.4 12.5-10z" transform="translate(2236 1016)"/><path fill="#2dca4b" d="m0-23 10 2.3 8 6.4 4.4 9.2V5.1L18 14.3l-8 6.4L0 23l-10-2.3-8-6.4-4.4-9.2V-5.1l4.4-9.2 8-6.4z" transform="translate(329 1189)"/><path fill="#2dca4b" d="m0-25 10.8 2.5 8.7 6.9 4.9 10V5.6l-4.9 10-8.7 6.9L0 25l-10.8-2.5-8.7-6.9-4.9-10V-5.6l4.9-10 8.7-6.9z" transform="translate(1994 996)"/><path fill="#2dca4b" d="m0-13 5.6 1.3 4.6 3.6 2.5 5.2v5.8l-2.5 5.2-4.6 3.6L0 13l-5.6-1.3-4.6-3.6-2.5-5.2v-5.8l2.5-5.2 4.6-3.6z" transform="translate(972 1080)"/><path fill="#2dca4b" d="m0-23 10 2.3 8 6.4 4.4 9.2V5.1L18 14.3l-8 6.4L0 23l-10-2.3-8-6.4-4.4-9.2V-5.1l4.4-9.2 8-6.4z" transform="translate(2359 206)"/><path fill="#2dca4b" d="m0-19 8.2 1.9 6.7 5.3 3.6 7.6v8.4l-3.6 7.6-6.7 5.3L0 19l-8.2-1.9-6.7-5.3-3.6-7.6v-8.4l3.6-7.6 6.7-5.3z" transform="translate(1485 234)"/><path fill="#2dca4b" d="m0-22 9.5 2.2 7.7 6.1 4.2 8.8v9.8l-4.2 8.8-7.7 6.1L0 22l-9.5-2.2-7.7-6.1-4.2-8.8v-9.8l4.2-8.8 7.7-6.1z" transform="translate(948 526)"/><path fill="#2dca4b" d="m0-6 2.6.6 2.1 1.7 1.1 2.4v2.6L4.7 3.7 2.6 5.4 0 6l-2.6-.6-2.1-1.7-1.1-2.4v-2.6l1.1-2.4 2.1-1.7z" transform="translate(1982 1136)"/><path fill="#2dca4b" d="m0-18 7.8 1.8 6.3 5L17.5-4v8l-3.4 7.2-6.3 5L0 18l-7.8-1.8-6.3-5-3.4-7.2v-8l3.4-7.2 6.3-5z" transform="translate(236 727)"/><path fill="#2dca4b" d="m0-30 13 3 10.5 8.3 5.7 12V6.7l-5.7 12L13 27 0 30l-13-3-10.5-8.3-5.7-12V-6.7l5.7-12L-13-27z" transform="translate(2481 924)"/><path fill="#2dca4b" d="m0-11 4.8 1.1 3.8 3 2.1 4.5v4.8L8.6 6.9l-3.8 3L0 11l-4.8-1.1-3.8-3-2.1-4.5v-4.8l2.1-4.5 3.8-3z" transform="translate(2424 1596)"/><path fill="#2dca4b" d="m0-35 15.2 3.5 12.2 9.7 6.7 14V7.8l-6.7 14-12.2 9.7L0 35l-15.2-3.5-12.2-9.7-6.7-14V-7.8l6.7-14 12.2-9.7z" transform="translate(77 688)"/><path fill="#2dca4b" d="m0-34 14.8 3.4 11.8 9.4 6.5 13.6V7.6l-6.5 13.6-11.8 9.4L0 34l-14.8-3.4-11.8-9.4-6.5-13.6V-7.6l6.5-13.6 11.8-9.4z" transform="translate(147 88)"/><path fill="#2dca4b" d="m0-17 7.4 1.7 5.9 4.7 3.3 6.8v7.6l-3.3 6.8-5.9 4.7L0 17l-7.4-1.7-5.9-4.7-3.3-6.8v-7.6l3.3-6.8 5.9-4.7z" transform="translate(631 1336)"/><path fill="#2dca4b" d="m0-20 8.7 2 6.9 5.5 3.9 8v9l-3.9 8L8.7 18 0 20l-8.7-2-6.9-5.5-3.9-8v-9l3.9-8 6.9-5.5z" transform="translate(599 52)"/><path fill="#2dca4b" d="m0-30 13 3 10.5 8.3 5.7 12V6.7l-5.7 12L13 27 0 30l-13-3-10.5-8.3-5.7-12V-6.7l5.7-12L-13-27z" transform="translate(993 1243)"/><path fill="#2dca4b" d="m0-33 14.3 3.3 11.5 9.1 6.4 13.3V7.3l-6.4 13.3-11.5 9.1L0 33l-14.3-3.3-11.5-9.1-6.4-13.3V-7.3l6.4-13.3 11.5-9.1z" transform="translate(153 1237)"/><path fill="#2dca4b" d="m0-13 5.6 1.3 4.6 3.6 2.5 5.2v5.8l-2.5 5.2-4.6 3.6L0 13l-5.6-1.3-4.6-3.6-2.5-5.2v-5.8l2.5-5.2 4.6-3.6z" transform="translate(566 734)"/><path fill="#2dca4b" d="m0-25 10.8 2.5 8.7 6.9 4.9 10V5.6l-4.9 10-8.7 6.9L0 25l-10.8-2.5-8.7-6.9-4.9-10V-5.6l4.9-10 8.7-6.9z" transform="translate(2569 1595)"/><path fill="#2dca4b" d="m0-5 2.2.5 1.7 1.4 1 2v2.2l-1 2-1.7 1.4L0 5l-2.2-.5-1.7-1.4-1-2v-2.2l1-2 1.7-1.4z" transform="translate(967 1432)"/><path fill="#2dca4b" d="m0-10 4.3 1 3.5 2.8 1.9 4v4.4l-1.9 4L4.3 9 0 10l-4.3-1-3.5-2.8-1.9-4v-4.4l1.9-4L-4.3-9z" transform="translate(1529 591)"/><path fill="#2dca4b" d="m0-36 15.6 3.6 12.5 10 7 14.4V8l-7 14.4-12.5 10L0 36l-15.6-3.6-12.5-10-7-14.4V-8l7-14.4 12.5-10z" transform="translate(1562 274)"/><path fill="#2dca4b" d="m0-12 5.2 1.2 4.2 3.3 2.3 4.8v5.4L9.4 7.5l-4.2 3.3L0 12l-5.2-1.2-4.2-3.3-2.3-4.8v-5.4l2.3-4.8 4.2-3.3z" transform="translate(1513 830)"/><path fill="#2dca4b" d="m0-20 8.7 2 6.9 5.5 3.9 8v9l-3.9 8L8.7 18 0 20l-8.7-2-6.9-5.5-3.9-8v-9l3.9-8 6.9-5.5z" transform="translate(2145 650)"/><path fill="#2dca4b" d="m0-13 5.6 1.3 4.6 3.6 2.5 5.2v5.8l-2.5 5.2-4.6 3.6L0 13l-5.6-1.3-4.6-3.6-2.5-5.2v-5.8l2.5-5.2 4.6-3.6z" transform="translate(2684 1386)"/><path fill="#2dca4b" d="m0-20 8.7 2 6.9 5.5 3.9 8v9l-3.9 8L8.7 18 0 20l-8.7-2-6.9-5.5-3.9-8v-9l3.9-8 6.9-5.5z" transform="translate(18 940)"/><path fill="#2dca4b" d="m0-17 7.4 1.7 5.9 4.7 3.3 6.8v7.6l-3.3 6.8-5.9 4.7L0 17l-7.4-1.7-5.9-4.7-3.3-6.8v-7.6l3.3-6.8 5.9-4.7z" transform="translate(479 1415)"/><path fill="#2dca4b" d="m0-30 13 3 10.5 8.3 5.7 12V6.7l-5.7 12L13 27 0 30l-13-3-10.5-8.3-5.7-12V-6.7l5.7-12L-13-27z" transform="translate(559 1311)"/><path fill="#2dca4b" d="m0-27 11.7 2.7 9.4 7.5L26.3-6V6l-5.2 10.8-9.4 7.5L0 27l-11.7-2.7-9.4-7.5L-26.3 6V-6l5.2-10.8 9.4-7.5z" transform="translate(1310 265)"/><path fill="#2dca4b" d="m0-11 4.8 1.1 3.8 3 2.1 4.5v4.8L8.6 6.9l-3.8 3L0 11l-4.8-1.1-3.8-3-2.1-4.5v-4.8l2.1-4.5 3.8-3z" transform="translate(1785 280)"/><path fill="#2dca4b" d="m0-29 12.6 2.9 10.1 8 5.6 11.6v13l-5.6 11.6-10.1 8L0 29l-12.6-2.9-10.1-8-5.6-11.6v-13l5.6-11.6 10.1-8z" transform="translate(1816 903)"/><path fill="#2dca4b" d="m0-19 8.2 1.9 6.7 5.3 3.6 7.6v8.4l-3.6 7.6-6.7 5.3L0 19l-8.2-1.9-6.7-5.3-3.6-7.6v-8.4l3.6-7.6 6.7-5.3z" transform="translate(1857 829)"/><path fill="#2dca4b" d="m0-30 13 3 10.5 8.3 5.7 12V6.7l-5.7 12L13 27 0 30l-13-3-10.5-8.3-5.7-12V-6.7l5.7-12L-13-27z" transform="translate(675 445)"/><path fill="#2dca4b" d="m0-28 12.1 2.8 9.8 7.7 5.4 11.3V6.2l-5.4 11.3-9.8 7.7L0 28l-12.1-2.8-9.8-7.7-5.4-11.3V-6.2l5.4-11.3 9.8-7.7z" transform="translate(2699 533)"/><path fill="#2dca4b" d="m0-26 11.3 2.6 9 7.2 5 10.4V5.8l-5 10.4-9 7.2L0 26l-11.3-2.6-9-7.2-5-10.4V-5.8l5-10.4 9-7.2z" transform="translate(1278 623)"/><path fill="#2dca4b" d="m0-6 2.6.6 2.1 1.7 1.1 2.4v2.6L4.7 3.7 2.6 5.4 0 6l-2.6-.6-2.1-1.7-1.1-2.4v-2.6l1.1-2.4 2.1-1.7z" transform="translate(961 1542)"/><path fill="#2dca4b" d="m0-13 5.6 1.3 4.6 3.6 2.5 5.2v5.8l-2.5 5.2-4.6 3.6L0 13l-5.6-1.3-4.6-3.6-2.5-5.2v-5.8l2.5-5.2 4.6-3.6z" transform="translate(1464 1027)"/><path fill="#2dca4b" d="m0-23 10 2.3 8 6.4 4.4 9.2V5.1L18 14.3l-8 6.4L0 23l-10-2.3-8-6.4-4.4-9.2V-5.1l4.4-9.2 8-6.4z" transform="translate(8 864)"/><path fill="#2dca4b" d="m0-16 6.9 1.6 5.6 4.4 3.1 6.4v7.2L12.5 10l-5.6 4.4L0 16l-6.9-1.6-5.6-4.4-3.1-6.4v-7.2l3.1-6.4 5.6-4.4z" transform="translate(1220 260)"/><path fill="#2dca4b" d="m0-20 8.7 2 6.9 5.5 3.9 8v9l-3.9 8L8.7 18 0 20l-8.7-2-6.9-5.5-3.9-8v-9l3.9-8 6.9-5.5z" transform="translate(891 175)"/><path fill="#2dca4b" d="m0-13 5.6 1.3 4.6 3.6 2.5 5.2v5.8l-2.5 5.2-4.6 3.6L0 13l-5.6-1.3-4.6-3.6-2.5-5.2v-5.8l2.5-5.2 4.6-3.6z" transform="translate(979 834)"/><path fill="#2dca4b" d="m0-9 3.9.9L7-5.6 8.8-2v4L7 5.6 3.9 8.1 0 9l-3.9-.9L-7 5.6-8.8 2v-4L-7-5.6l3.1-2.5z" transform="translate(423 979)"/><path fill="#2dca4b" d="m0-29 12.6 2.9 10.1 8 5.6 11.6v13l-5.6 11.6-10.1 8L0 29l-12.6-2.9-10.1-8-5.6-11.6v-13l5.6-11.6 10.1-8z" transform="translate(150 573)"/><path fill="#2dca4b" d="m0-24 10.4 2.4 8.4 6.6 4.6 9.7V5.3L18.8 15l-8.4 6.6L0 24l-10.4-2.4-8.4-6.6-4.6-9.7V-5.3l4.6-9.7 8.4-6.6z" transform="translate(2157 166)"/><path fill="#2dca4b" d="m0-13 5.6 1.3 4.6 3.6 2.5 5.2v5.8l-2.5 5.2-4.6 3.6L0 13l-5.6-1.3-4.6-3.6-2.5-5.2v-5.8l2.5-5.2 4.6-3.6z" transform="translate(631 1047)"/><path fill="#2dca4b" d="m0-25 10.8 2.5 8.7 6.9 4.9 10V5.6l-4.9 10-8.7 6.9L0 25l-10.8-2.5-8.7-6.9-4.9-10V-5.6l4.9-10 8.7-6.9z" transform="translate(1451 607)"/><path fill="#2dca4b" d="m0-15 6.5 1.5 5.2 4.1 2.9 6.1v6.6l-2.9 6.1-5.2 4.1L0 15l-6.5-1.5-5.2-4.1-2.9-6.1v-6.6l2.9-6.1 5.2-4.1z" transform="translate(806 1076)"/><path fill="#2dca4b" d="m0-16 6.9 1.6 5.6 4.4 3.1 6.4v7.2L12.5 10l-5.6 4.4L0 16l-6.9-1.6-5.6-4.4-3.1-6.4v-7.2l3.1-6.4 5.6-4.4z" transform="translate(231 156)"/><path fill="#2dca4b" d="m0-36 15.6 3.6 12.5 10 7 14.4V8l-7 14.4-12.5 10L0 36l-15.6-3.6-12.5-10-7-14.4V-8l7-14.4 12.5-10z" transform="translate(2049 1236)"/><path fill="#2dca4b" d="m0-26 11.3 2.6 9 7.2 5 10.4V5.8l-5 10.4-9 7.2L0 26l-11.3-2.6-9-7.2-5-10.4V-5.8l5-10.4 9-7.2z" transform="translate(1793 1064)"/><path fill="#2dca4b" d="m0-10 4.3 1 3.5 2.8 1.9 4v4.4l-1.9 4L4.3 9 0 10l-4.3-1-3.5-2.8-1.9-4v-4.4l1.9-4L-4.3-9z" transform="translate(2577 523)"/><path fill="#2dca4b" d="m0-32 13.9 3.2L25-20l6.2 12.9V7.1L25 20l-11.1 8.8L0 32l-13.9-3.2L-25 20l-6.2-12.9V-7.1L-25-20l11.1-8.8z" transform="translate(2326 870)"/><path fill="#2dca4b" d="m0-5 2.2.5 1.7 1.4 1 2v2.2l-1 2-1.7 1.4L0 5l-2.2-.5-1.7-1.4-1-2v-2.2l1-2 1.7-1.4z" transform="translate(746 921)"/><path fill="#2dca4b" d="m0-19 8.2 1.9 6.7 5.3 3.6 7.6v8.4l-3.6 7.6-6.7 5.3L0 19l-8.2-1.9-6.7-5.3-3.6-7.6v-8.4l3.6-7.6 6.7-5.3z" transform="translate(201 1436)"/><path fill="#2dca4b" d="m0-14 6.1 1.4 4.8 3.9 2.7 5.6v6.2l-2.7 5.6-4.8 3.9L0 14l-6.1-1.4-4.8-3.9-2.7-5.6v-6.2l2.7-5.6 4.8-3.9z" transform="translate(2563 1243)"/><path fill="#2dca4b" d="m0-11 4.8 1.1 3.8 3 2.1 4.5v4.8L8.6 6.9l-3.8 3L0 11l-4.8-1.1-3.8-3-2.1-4.5v-4.8l2.1-4.5 3.8-3z" transform="translate(735 738)"/><path fill="#2dca4b" d="m0-26 11.3 2.6 9 7.2 5 10.4V5.8l-5 10.4-9 7.2L0 26l-11.3-2.6-9-7.2-5-10.4V-5.8l5-10.4 9-7.2z" transform="translate(1960 268)"/><path fill="#2dca4b" d="m0-12 5.2 1.2 4.2 3.3 2.3 4.8v5.4L9.4 7.5l-4.2 3.3L0 12l-5.2-1.2-4.2-3.3-2.3-4.8v-5.4l2.3-4.8 4.2-3.3z" transform="translate(2219 691)"/><path fill="#2dca4b" d="m0-22 9.5 2.2 7.7 6.1 4.2 8.8v9.8l-4.2 8.8-7.7 6.1L0 22l-9.5-2.2-7.7-6.1-4.2-8.8v-9.8l4.2-8.8 7.7-6.1z" transform="translate(1797 415)"/><path fill="#2dca4b" d="m0-29 12.6 2.9 10.1 8 5.6 11.6v13l-5.6 11.6-10.1 8L0 29l-12.6-2.9-10.1-8-5.6-11.6v-13l5.6-11.6 10.1-8z" transform="translate(2417 1210)"/><path fill="#2dca4b" d="m0-10 4.3 1 3.5 2.8 1.9 4v4.4l-1.9 4L4.3 9 0 10l-4.3-1-3.5-2.8-1.9-4v-4.4l1.9-4L-4.3-9z" transform="translate(2298 492)"/><path fill="#2dca4b" d="m0-31 13.5 3.1 10.7 8.6 6 12.4V6.9l-6 12.4-10.7 8.6L0 31l-13.5-3.1-10.7-8.6-6-12.4V-6.9l6-12.4 10.7-8.6z" transform="translate(1111 157)"/><path fill="#2dca4b" d="m0-28 12.1 2.8 9.8 7.7 5.4 11.3V6.2l-5.4 11.3-9.8 7.7L0 28l-12.1-2.8-9.8-7.7-5.4-11.3V-6.2l5.4-11.3 9.8-7.7z" transform="translate(2187 1444)"/><path fill="#2dca4b" d="m0-7 3 .7 2.5 1.9 1.3 2.8v3.2L5.5 4.4 3 6.3 0 7l-3-.7-2.5-1.9-1.3-2.8v-3.2l1.3-2.8L-3-6.3z" transform="translate(2125 85)"/><path fill="#2dca4b" d="m0-32 13.9 3.2L25-20l6.2 12.9V7.1L25 20l-11.1 8.8L0 32l-13.9-3.2L-25 20l-6.2-12.9V-7.1L-25-20l11.1-8.8z" transform="translate(799 530)"/><path fill="#2dca4b" d="m0-12 5.2 1.2 4.2 3.3 2.3 4.8v5.4L9.4 7.5l-4.2 3.3L0 12l-5.2-1.2-4.2-3.3-2.3-4.8v-5.4l2.3-4.8 4.2-3.3z" transform="translate(2176 1069)"/><path fill="#2dca4b" d="m0-7 3 .7 2.5 1.9 1.3 2.8v3.2L5.5 4.4 3 6.3 0 7l-3-.7-2.5-1.9-1.3-2.8v-3.2l1.3-2.8L-3-6.3z" transform="translate(1025 145)"/><path fill="#2dca4b" d="m0-28 12.1 2.8 9.8 7.7 5.4 11.3V6.2l-5.4 11.3-9.8 7.7L0 28l-12.1-2.8-9.8-7.7-5.4-11.3V-6.2l5.4-11.3 9.8-7.7z" transform="translate(1292 1533)"/><path fill="#2dca4b" d="m0-21 9.1 2.1 7.3 5.8 4.1 8.4v9.4l-4.1 8.4-7.3 5.8L0 21l-9.1-2.1-7.3-5.8-4.1-8.4v-9.4l4.1-8.4 7.3-5.8z" transform="translate(1821 6)"/><path fill="#2dca4b" d="m0-15 6.5 1.5 5.2 4.1 2.9 6.1v6.6l-2.9 6.1-5.2 4.1L0 15l-6.5-1.5-5.2-4.1-2.9-6.1v-6.6l2.9-6.1 5.2-4.1z" transform="translate(1816 1484)"/><path fill="#2dca4b" d="m0-25 10.8 2.5 8.7 6.9 4.9 10V5.6l-4.9 10-8.7 6.9L0 25l-10.8-2.5-8.7-6.9-4.9-10V-5.6l4.9-10 8.7-6.9z" transform="translate(620 296)"/><path fill="#2dca4b" d="m0-8 3.5.8L6.3-5l1.5 3.2v3.6L6.3 5 3.5 7.2 0 8l-3.5-.8L-6.3 5l-1.5-3.2v-3.6L-6.3-5l2.8-2.2z" transform="translate(1398 456)"/><path fill="#2dca4b" d="m0-35 15.2 3.5 12.2 9.7 6.7 14V7.8l-6.7 14-12.2 9.7L0 35l-15.2-3.5-12.2-9.7-6.7-14V-7.8l6.7-14 12.2-9.7z" transform="translate(1494 520)"/><path fill="#2dca4b" d="m0-35 15.2 3.5 12.2 9.7 6.7 14V7.8l-6.7 14-12.2 9.7L0 35l-15.2-3.5-12.2-9.7-6.7-14V-7.8l6.7-14 12.2-9.7z" transform="translate(2288 266)"/><path fill="#2dca4b" d="m0-24 10.4 2.4 8.4 6.6 4.6 9.7V5.3L18.8 15l-8.4 6.6L0 24l-10.4-2.4-8.4-6.6-4.6-9.7V-5.3l4.6-9.7 8.4-6.6z" transform="translate(2022 662)"/><path fill="#2dca4b" d="m0-15 6.5 1.5 5.2 4.1 2.9 6.1v6.6l-2.9 6.1-5.2 4.1L0 15l-6.5-1.5-5.2-4.1-2.9-6.1v-6.6l2.9-6.1 5.2-4.1z" transform="translate(2340 1500)"/><path fill="#2dca4b" d="m0-10 4.3 1 3.5 2.8 1.9 4v4.4l-1.9 4L4.3 9 0 10l-4.3-1-3.5-2.8-1.9-4v-4.4l1.9-4L-4.3-9z" transform="translate(1059 539)"/><path fill="#2dca4b" d="m0-33 14.3 3.3 11.5 9.1 6.4 13.3V7.3l-6.4 13.3-11.5 9.1L0 33l-14.3-3.3-11.5-9.1-6.4-13.3V-7.3l6.4-13.3 11.5-9.1z" transform="translate(2063 1160)"/><path fill="#2dca4b" d="m0-14 6.1 1.4 4.8 3.9 2.7 5.6v6.2l-2.7 5.6-4.8 3.9L0 14l-6.1-1.4-4.8-3.9-2.7-5.6v-6.2l2.7-5.6 4.8-3.9z" transform="translate(1808 81)"/><path fill="#2dca4b" d="m0-28 12.1 2.8 9.8 7.7 5.4 11.3V6.2l-5.4 11.3-9.8 7.7L0 28l-12.1-2.8-9.8-7.7-5.4-11.3V-6.2l5.4-11.3 9.8-7.7z" transform="translate(2677 1064)"/><path fill="#2dca4b" d="m0-32 13.9 3.2L25-20l6.2 12.9V7.1L25 20l-11.1 8.8L0 32l-13.9-3.2L-25 20l-6.2-12.9V-7.1L-25-20l11.1-8.8z" transform="translate(2181 963)"/><path fill="#2dca4b" d="m0-23 10 2.3 8 6.4 4.4 9.2V5.1L18 14.3l-8 6.4L0 23l-10-2.3-8-6.4-4.4-9.2V-5.1l4.4-9.2 8-6.4z" transform="translate(232 1196)"/><path fill="#2dca4b" d="m0-24 10.4 2.4 8.4 6.6 4.6 9.7V5.3L18.8 15l-8.4 6.6L0 24l-10.4-2.4-8.4-6.6-4.6-9.7V-5.3l4.6-9.7 8.4-6.6z" transform="translate(2421 590)"/><path fill="#2dca4b" d="m0-4 1.7.4 1.4 1.1.8 1.6V.9l-.8 1.6-1.4 1.1L0 4l-1.7-.4-1.4-1.1-.8-1.6V-.9l.8-1.6 1.4-1.1z" transform="translate(2459 210)"/><path fill="#2dca4b" d="m0-12 5.2 1.2 4.2 3.3 2.3 4.8v5.4L9.4 7.5l-4.2 3.3L0 12l-5.2-1.2-4.2-3.3-2.3-4.8v-5.4l2.3-4.8 4.2-3.3z" transform="translate(733 1594)"/><path fill="#2dca4b" d="m0-17 7.4 1.7 5.9 4.7 3.3 6.8v7.6l-3.3 6.8-5.9 4.7L0 17l-7.4-1.7-5.9-4.7-3.3-6.8v-7.6l3.3-6.8 5.9-4.7z" transform="translate(2159 831)"/><path fill="#2dca4b" d="m0-36 15.6 3.6 12.5 10 7 14.4V8l-7 14.4-12.5 10L0 36l-15.6-3.6-12.5-10-7-14.4V-8l7-14.4 12.5-10z" transform="translate(945 289)"/><path fill="#2dca4b" d="m0-33 14.3 3.3 11.5 9.1 6.4 13.3V7.3l-6.4 13.3-11.5 9.1L0 33l-14.3-3.3-11.5-9.1-6.4-13.3V-7.3l6.4-13.3 11.5-9.1z" transform="translate(1673 648)"/><path fill="#2dca4b" d="m0-27 11.7 2.7 9.4 7.5L26.3-6V6l-5.2 10.8-9.4 7.5L0 27l-11.7-2.7-9.4-7.5L-26.3 6V-6l5.2-10.8 9.4-7.5z" transform="translate(68 398)"/><path fill="#2dca4b" d="m0-20 8.7 2 6.9 5.5 3.9 8v9l-3.9 8L8.7 18 0 20l-8.7-2-6.9-5.5-3.9-8v-9l3.9-8 6.9-5.5z" transform="translate(1222 1127)"/><path fill="#2dca4b" d="m0-16 6.9 1.6 5.6 4.4 3.1 6.4v7.2L12.5 10l-5.6 4.4L0 16l-6.9-1.6-5.6-4.4-3.1-6.4v-7.2l3.1-6.4 5.6-4.4z" transform="translate(2356 1360)"/><path fill="#2dca4b" d="m0-27 11.7 2.7 9.4 7.5L26.3-6V6l-5.2 10.8-9.4 7.5L0 27l-11.7-2.7-9.4-7.5L-26.3 6V-6l5.2-10.8 9.4-7.5z" transform="translate(2254 1)"/><path fill="#2dca4b" d="m0-12 5.2 1.2 4.2 3.3 2.3 4.8v5.4L9.4 7.5l-4.2 3.3L0 12l-5.2-1.2-4.2-3.3-2.3-4.8v-5.4l2.3-4.8 4.2-3.3z" transform="translate(272 958)"/><path fill="#2dca4b" d="m0-14 6.1 1.4 4.8 3.9 2.7 5.6v6.2l-2.7 5.6-4.8 3.9L0 14l-6.1-1.4-4.8-3.9-2.7-5.6v-6.2l2.7-5.6 4.8-3.9z" transform="translate(1418 2)"/><path fill="#2dca4b" d="m0-8 3.5.8L6.3-5l1.5 3.2v3.6L6.3 5 3.5 7.2 0 8l-3.5-.8L-6.3 5l-1.5-3.2v-3.6L-6.3-5l2.8-2.2z" transform="translate(2199 100)"/><path fill="#2dca4b" d="m0-32 13.9 3.2L25-20l6.2 12.9V7.1L25 20l-11.1 8.8L0 32l-13.9-3.2L-25 20l-6.2-12.9V-7.1L-25-20l11.1-8.8z" transform="translate(1418 815)"/><path fill="#2dca4b" d="m0-26 11.3 2.6 9 7.2 5 10.4V5.8l-5 10.4-9 7.2L0 26l-11.3-2.6-9-7.2-5-10.4V-5.8l5-10.4 9-7.2z" transform="translate(2407 1128)"/><path fill="#2dca4b" d="m0-13 5.6 1.3 4.6 3.6 2.5 5.2v5.8l-2.5 5.2-4.6 3.6L0 13l-5.6-1.3-4.6-3.6-2.5-5.2v-5.8l2.5-5.2 4.6-3.6z" transform="translate(11 243)"/><path fill="#2dca4b" d="m0-32 13.9 3.2L25-20l6.2 12.9V7.1L25 20l-11.1 8.8L0 32l-13.9-3.2L-25 20l-6.2-12.9V-7.1L-25-20l11.1-8.8z" transform="translate(2560 1506)"/><path fill="#2dca4b" d="m0-28 12.1 2.8 9.8 7.7 5.4 11.3V6.2l-5.4 11.3-9.8 7.7L0 28l-12.1-2.8-9.8-7.7-5.4-11.3V-6.2l5.4-11.3 9.8-7.7z" transform="translate(86 1295)"/><path fill="#2dca4b" d="m0-36 15.6 3.6 12.5 10 7 14.4V8l-7 14.4-12.5 10L0 36l-15.6-3.6-12.5-10-7-14.4V-8l7-14.4 12.5-10z" transform="translate(10 1430)"/><path fill="#2dca4b" d="m0-35 15.2 3.5 12.2 9.7 6.7 14V7.8l-6.7 14-12.2 9.7L0 35l-15.2-3.5-12.2-9.7-6.7-14V-7.8l6.7-14 12.2-9.7z" transform="translate(1174 526)"/><path fill="#2dca4b" d="m0-34 14.8 3.4 11.8 9.4 6.5 13.6V7.6l-6.5 13.6-11.8 9.4L0 34l-14.8-3.4-11.8-9.4-6.5-13.6V-7.6l6.5-13.6 11.8-9.4z" transform="translate(434 641)"/><path fill="#2dca4b" d="m0-29 12.6 2.9 10.1 8 5.6 11.6v13l-5.6 11.6-10.1 8L0 29l-12.6-2.9-10.1-8-5.6-11.6v-13l5.6-11.6 10.1-8z" transform="translate(1592 653)"/><path fill="#2dca4b" d="m0-12 5.2 1.2 4.2 3.3 2.3 4.8v5.4L9.4 7.5l-4.2 3.3L0 12l-5.2-1.2-4.2-3.3-2.3-4.8v-5.4l2.3-4.8 4.2-3.3z" transform="translate(292 665)"/><path fill="#2dca4b" d="m0-21 9.1 2.1 7.3 5.8 4.1 8.4v9.4l-4.1 8.4-7.3 5.8L0 21l-9.1-2.1-7.3-5.8-4.1-8.4v-9.4l4.1-8.4 7.3-5.8z" transform="translate(198 488)"/><path fill="#2dca4b" d="m0-4 1.7.4 1.4 1.1.8 1.6V.9l-.8 1.6-1.4 1.1L0 4l-1.7-.4-1.4-1.1-.8-1.6V-.9l.8-1.6 1.4-1.1z" transform="translate(741 580)"/><path fill="#2dca4b" d="m0-4 1.7.4 1.4 1.1.8 1.6V.9l-.8 1.6-1.4 1.1L0 4l-1.7-.4-1.4-1.1-.8-1.6V-.9l.8-1.6 1.4-1.1z" transform="translate(1780 1289)"/><path fill="#2dca4b" d="m0-18 7.8 1.8 6.3 5L17.5-4v8l-3.4 7.2-6.3 5L0 18l-7.8-1.8-6.3-5-3.4-7.2v-8l3.4-7.2 6.3-5z" transform="translate(1415 1181)"/><path fill="#2dca4b" d="m0-27 11.7 2.7 9.4 7.5L26.3-6V6l-5.2 10.8-9.4 7.5L0 27l-11.7-2.7-9.4-7.5L-26.3 6V-6l5.2-10.8 9.4-7.5z" transform="translate(1650 1043)"/><path fill="#2dca4b" d="m0-12 5.2 1.2 4.2 3.3 2.3 4.8v5.4L9.4 7.5l-4.2 3.3L0 12l-5.2-1.2-4.2-3.3-2.3-4.8v-5.4l2.3-4.8 4.2-3.3z" transform="translate(200 801)"/><path fill="#2dca4b" d="m0-27 11.7 2.7 9.4 7.5L26.3-6V6l-5.2 10.8-9.4 7.5L0 27l-11.7-2.7-9.4-7.5L-26.3 6V-6l5.2-10.8 9.4-7.5z" transform="translate(2060 955)"/><path fill="#2dca4b" d="m0-29 12.6 2.9 10.1 8 5.6 11.6v13l-5.6 11.6-10.1 8L0 29l-12.6-2.9-10.1-8-5.6-11.6v-13l5.6-11.6 10.1-8z" transform="translate(1380 1419)"/><path fill="#2dca4b" d="m0-28 12.1 2.8 9.8 7.7 5.4 11.3V6.2l-5.4 11.3-9.8 7.7L0 28l-12.1-2.8-9.8-7.7-5.4-11.3V-6.2l5.4-11.3 9.8-7.7z" transform="translate(1193 745)"/><path fill="#2dca4b" d="m0-13 5.6 1.3 4.6 3.6 2.5 5.2v5.8l-2.5 5.2-4.6 3.6L0 13l-5.6-1.3-4.6-3.6-2.5-5.2v-5.8l2.5-5.2 4.6-3.6z" transform="translate(2284 749)"/><path fill="#2dca4b" d="m0-26 11.3 2.6 9 7.2 5 10.4V5.8l-5 10.4-9 7.2L0 26l-11.3-2.6-9-7.2-5-10.4V-5.8l5-10.4 9-7.2z" transform="translate(2690 896)"/><path fill="#2dca4b" d="m0-6 2.6.6 2.1 1.7 1.1 2.4v2.6L4.7 3.7 2.6 5.4 0 6l-2.6-.6-2.1-1.7-1.1-2.4v-2.6l1.1-2.4 2.1-1.7z" transform="translate(1326 563)"/><path fill="#2dca4b" d="m0-6 2.6.6 2.1 1.7 1.1 2.4v2.6L4.7 3.7 2.6 5.4 0 6l-2.6-.6-2.1-1.7-1.1-2.4v-2.6l1.1-2.4 2.1-1.7z" transform="translate(1608 120)"/><path fill="#2dca4b" d="m0-32 13.9 3.2L25-20l6.2 12.9V7.1L25 20l-11.1 8.8L0 32l-13.9-3.2L-25 20l-6.2-12.9V-7.1L-25-20l11.1-8.8z" transform="translate(1707 1594)"/><path fill="#2dca4b" d="m0-19 8.2 1.9 6.7 5.3 3.6 7.6v8.4l-3.6 7.6-6.7 5.3L0 19l-8.2-1.9-6.7-5.3-3.6-7.6v-8.4l3.6-7.6 6.7-5.3z" transform="translate(1193 607)"/><path fill="#2dca4b" d="m0-16 6.9 1.6 5.6 4.4 3.1 6.4v7.2L12.5 10l-5.6 4.4L0 16l-6.9-1.6-5.6-4.4-3.1-6.4v-7.2l3.1-6.4 5.6-4.4z" transform="translate(1517 683)"/><path fill="#2dca4b" d="m0-13 5.6 1.3 4.6 3.6 2.5 5.2v5.8l-2.5 5.2-4.6 3.6L0 13l-5.6-1.3-4.6-3.6-2.5-5.2v-5.8l2.5-5.2 4.6-3.6z" transform="translate(475 111)"/><path fill="#2dca4b" d="m0-34 14.8 3.4 11.8 9.4 6.5 13.6V7.6l-6.5 13.6-11.8 9.4L0 34l-14.8-3.4-11.8-9.4-6.5-13.6V-7.6l6.5-13.6 11.8-9.4z" transform="translate(447 530)"/><path fill="#2dca4b" d="m0-35 15.2 3.5 12.2 9.7 6.7 14V7.8l-6.7 14-12.2 9.7L0 35l-15.2-3.5-12.2-9.7-6.7-14V-7.8l6.7-14 12.2-9.7z" transform="translate(275 3)"/><path fill="#2dca4b" d="m0-21 9.1 2.1 7.3 5.8 4.1 8.4v9.4l-4.1 8.4-7.3 5.8L0 21l-9.1-2.1-7.3-5.8-4.1-8.4v-9.4l4.1-8.4 7.3-5.8z" transform="translate(1454 1595)"/><path fill="#2dca4b" d="m0-4 1.7.4 1.4 1.1.8 1.6V.9l-.8 1.6-1.4 1.1L0 4l-1.7-.4-1.4-1.1-.8-1.6V-.9l.8-1.6 1.4-1.1z" transform="translate(1307 132)"/><path fill="#2dca4b" d="m0-32 13.9 3.2L25-20l6.2 12.9V7.1L25 20l-11.1 8.8L0 32l-13.9-3.2L-25 20l-6.2-12.9V-7.1L-25-20l11.1-8.8z" transform="translate(7 1020)"/><path fill="#2dca4b" d="m0-28 12.1 2.8 9.8 7.7 5.4 11.3V6.2l-5.4 11.3-9.8 7.7L0 28l-12.1-2.8-9.8-7.7-5.4-11.3V-6.2l5.4-11.3 9.8-7.7z" transform="translate(1406 285)"/><path fill="#2dca4b" d="m0-4 1.7.4 1.4 1.1.8 1.6V.9l-.8 1.6-1.4 1.1L0 4l-1.7-.4-1.4-1.1-.8-1.6V-.9l.8-1.6 1.4-1.1z" transform="translate(785 671)"/><path fill="#2dca4b" d="m0-28 12.1 2.8 9.8 7.7 5.4 11.3V6.2l-5.4 11.3-9.8 7.7L0 28l-12.1-2.8-9.8-7.7-5.4-11.3V-6.2l5.4-11.3 9.8-7.7z" transform="translate(1260 786)"/><path fill="#2dca4b" d="m0-25 10.8 2.5 8.7 6.9 4.9 10V5.6l-4.9 10-8.7 6.9L0 25l-10.8-2.5-8.7-6.9-4.9-10V-5.6l4.9-10 8.7-6.9z" transform="translate(1037 1376)"/><path fill="#2dca4b" d="m0-22 9.5 2.2 7.7 6.1 4.2 8.8v9.8l-4.2 8.8-7.7 6.1L0 22l-9.5-2.2-7.7-6.1-4.2-8.8v-9.8l4.2-8.8 7.7-6.1z" transform="translate(739 107)"/><path fill="#2dca4b" d="m0-8 3.5.8L6.3-5l1.5 3.2v3.6L6.3 5 3.5 7.2 0 8l-3.5-.8L-6.3 5l-1.5-3.2v-3.6L-6.3-5l2.8-2.2z" transform="translate(722 1513)"/><path fill="#2dca4b" d="m0-32 13.9 3.2L25-20l6.2 12.9V7.1L25 20l-11.1 8.8L0 32l-13.9-3.2L-25 20l-6.2-12.9V-7.1L-25-20l11.1-8.8z" transform="translate(135 3)"/><path fill="#2dca4b" d="m0-28 12.1 2.8 9.8 7.7 5.4 11.3V6.2l-5.4 11.3-9.8 7.7L0 28l-12.1-2.8-9.8-7.7-5.4-11.3V-6.2l5.4-11.3 9.8-7.7z" transform="translate(1128 1224)"/><path fill="#2dca4b" d="m0-21 9.1 2.1 7.3 5.8 4.1 8.4v9.4l-4.1 8.4-7.3 5.8L0 21l-9.1-2.1-7.3-5.8-4.1-8.4v-9.4l4.1-8.4 7.3-5.8z" transform="translate(2576 1167)"/><path fill="#2dca4b" d="m0-30 13 3 10.5 8.3 5.7 12V6.7l-5.7 12L13 27 0 30l-13-3-10.5-8.3-5.7-12V-6.7l5.7-12L-13-27z" transform="translate(1648 8)"/><path fill="#2dca4b" d="m0-36 15.6 3.6 12.5 10 7 14.4V8l-7 14.4-12.5 10L0 36l-15.6-3.6-12.5-10-7-14.4V-8l7-14.4 12.5-10z" transform="translate(1048 681)"/><path fill="#2dca4b" d="m0-4 1.7.4 1.4 1.1.8 1.6V.9l-.8 1.6-1.4 1.1L0 4l-1.7-.4-1.4-1.1-.8-1.6V-.9l.8-1.6 1.4-1.1z" transform="translate(463 1341)"/><path fill="#2dca4b" d="m0-35 15.2 3.5 12.2 9.7 6.7 14V7.8l-6.7 14-12.2 9.7L0 35l-15.2-3.5-12.2-9.7-6.7-14V-7.8l6.7-14 12.2-9.7z" transform="translate(2221 614)"/><path fill="#2dca4b" d="m0-35 15.2 3.5 12.2 9.7 6.7 14V7.8l-6.7 14-12.2 9.7L0 35l-15.2-3.5-12.2-9.7-6.7-14V-7.8l6.7-14 12.2-9.7z" transform="translate(114 977)"/><path fill="#2dca4b" d="m0-27 11.7 2.7 9.4 7.5L26.3-6V6l-5.2 10.8-9.4 7.5L0 27l-11.7-2.7-9.4-7.5L-26.3 6V-6l5.2-10.8 9.4-7.5z" transform="translate(980 909)"/><path fill="#2dca4b" d="m0-19 8.2 1.9 6.7 5.3 3.6 7.6v8.4l-3.6 7.6-6.7 5.3L0 19l-8.2-1.9-6.7-5.3-3.6-7.6v-8.4l3.6-7.6 6.7-5.3z" transform="translate(1767 1158)"/><path fill="#2dca4b" d="m0-24 10.4 2.4 8.4 6.6 4.6 9.7V5.3L18.8 15l-8.4 6.6L0 24l-10.4-2.4-8.4-6.6-4.6-9.7V-5.3l4.6-9.7 8.4-6.6z" transform="translate(2470 84)"/><path fill="#2dca4b" d="m0-14 6.1 1.4 4.8 3.9 2.7 5.6v6.2l-2.7 5.6-4.8 3.9L0 14l-6.1-1.4-4.8-3.9-2.7-5.6v-6.2l2.7-5.6 4.8-3.9z" transform="translate(1898 985)"/><path fill="#2dca4b" d="m0-30 13 3 10.5 8.3 5.7 12V6.7l-5.7 12L13 27 0 30l-13-3-10.5-8.3-5.7-12V-6.7l5.7-12L-13-27z" transform="translate(15 3)"/><path fill="#2dca4b" d="m0-27 11.7 2.7 9.4 7.5L26.3-6V6l-5.2 10.8-9.4 7.5L0 27l-11.7-2.7-9.4-7.5L-26.3 6V-6l5.2-10.8 9.4-7.5z" transform="translate(436 892)"/><path fill="#2dca4b" d="m0-12 5.2 1.2 4.2 3.3 2.3 4.8v5.4L9.4 7.5l-4.2 3.3L0 12l-5.2-1.2-4.2-3.3-2.3-4.8v-5.4l2.3-4.8 4.2-3.3z" transform="translate(382 1049)"/><path fill="#2dca4b" d="m0-5 2.2.5 1.7 1.4 1 2v2.2l-1 2-1.7 1.4L0 5l-2.2-.5-1.7-1.4-1-2v-2.2l1-2 1.7-1.4z" transform="translate(1200 335)"/><path fill="#2dca4b" d="m0-32 13.9 3.2L25-20l6.2 12.9V7.1L25 20l-11.1 8.8L0 32l-13.9-3.2L-25 20l-6.2-12.9V-7.1L-25-20l11.1-8.8z" transform="translate(554 650)"/><path fill="#2dca4b" d="m0-5 2.2.5 1.7 1.4 1 2v2.2l-1 2-1.7 1.4L0 5l-2.2-.5-1.7-1.4-1-2v-2.2l1-2 1.7-1.4z" transform="translate(1709 791)"/><path fill="#2dca4b" d="m0-31 13.5 3.1 10.7 8.6 6 12.4V6.9l-6 12.4-10.7 8.6L0 31l-13.5-3.1-10.7-8.6-6-12.4V-6.9l6-12.4 10.7-8.6z" transform="translate(1475 948)"/><path fill="#2dca4b" d="m0-5 2.2.5 1.7 1.4 1 2v2.2l-1 2-1.7 1.4L0 5l-2.2-.5-1.7-1.4-1-2v-2.2l1-2 1.7-1.4z" transform="translate(869 869)"/><path fill="#2dca4b" d="m0-35 15.2 3.5 12.2 9.7 6.7 14V7.8l-6.7 14-12.2 9.7L0 35l-15.2-3.5-12.2-9.7-6.7-14V-7.8l6.7-14 12.2-9.7z" transform="translate(2378 429)"/><path fill="#2dca4b" d="m0-30 13 3 10.5 8.3 5.7 12V6.7l-5.7 12L13 27 0 30l-13-3-10.5-8.3-5.7-12V-6.7l5.7-12L-13-27z" transform="translate(572 1474)"/><path fill="#2dca4b" d="m0-10 4.3 1 3.5 2.8 1.9 4v4.4l-1.9 4L4.3 9 0 10l-4.3-1-3.5-2.8-1.9-4v-4.4l1.9-4L-4.3-9z" transform="translate(2692 429)"/><path fill="#2dca4b" d="m0-9 3.9.9L7-5.6 8.8-2v4L7 5.6 3.9 8.1 0 9l-3.9-.9L-7 5.6-8.8 2v-4L-7-5.6l3.1-2.5z" transform="translate(178 218)"/></svg>