<svg id="visual" viewBox="0 0 900 675" width="900" height="675"
xmlns="http://www.w3.org/2000/svg" xmlns:xlink="http://www.w3.org/1999/xlink"
version="1.1"><rect x="0" y="0" width="900" height="675" fill="#001220"></rect>
<path d="M0 543L12.5 550.3C25 557.7 50 572.3 75 573C100 573.7 125 560.3 150 551C175 541.7 200 536.3 225 535.2C250
534 275 537 300 539C325 541 350 542 375 540.3C400 538.7 425 534.3 450 530.2C475 526 500 522 525 522.2C550 522.3
575 526.7 600 533.2C625 539.7 650 548.3 675 552.8C700 557.3 725 557.7 750 560.7C775 563.7 800 569.3 825 569C850
568.7 875 562.3 887.5 559.2L900 556L900 676L887.5 676C875 676 850 676 825 676C800 676 775 676 750 676C725 676
700 676 675 676C650 676 625 676 600 676C575 676 550 676 525 676C500 676 475 676 450 676C425 676 400 676 375 676C350
676 325 676 300 676C275 676 250 676 225 676C200 676 175 676 150 676C125 676 100 676 75 676C50 676 25 676 12.5 676L0 676Z"
fill="#2dca4b"></path>
<path d="M0 616L12.5 611.5C25 607 50 598 75 595.8C100 593.7 125 598.3 150 602.3C175 606.3 200 609.7 225 612C250 614.3
275 615.7 300 613C325 610.3 350 603.7 375 597.2C400 590.7 425 584.3 450 585.7C475 587 500 596 525 596.8C550 597.7 575 590.3
600 591.3C625 592.3 650 601.7 675 602.2C700 602.7 725 594.3 750 591.7C775 589 800 592 825 588.5C850 585 875 575 887.5 570L900
565L900 676L887.5 676C875 676 850 676 825 676C800 676 775 676 750 676C725 676 700 676 675 676C650 676 625 676 600 676C575 676
550 676 525 676C500 676 475 676 450 676C425 676 400 676 375 676C350 676 325 676 300 676C275 676 250 676 225 676C200 676 175 676
150 676C125 676 100 676 75 676C50 676 25 676 12.5 676L0 676Z" fill="#c87a00"></path>
<path d="M0 619L12.5 616.8C25 614.7 50 610.3 75 614.3C100 618.3 125 630.7 150 631.5C175 632.3 200 621.7 225 616.2C250 610.7 275
610.3 300 617C325 623.7 350 637.3 375 636.3C400 635.3 425 619.7 450 619.8C475 620 500 636 525 634.7C550 633.3 575 614.7 600
609.3C625 604 650 612 675 619C700 626 725 632 750 633.7C775 635.3 800 632.7 825 629.2C850 625.7 875 621.3 887.5 619.2L900 617L900
676L887.5 676C875 676 850 676 825 676C800 676 775 676 750 676C725 676 700 676 675 676C650 676 625 676 600 676C575 676 550 676 525
676C500 676 475 676 450 676C425 676 400 676 375 676C350 676 325 676 300 676C275 676 250 676 225 676C200 676 175 676 150 676C125
676 100 676 75 676C50 676 25 676 12.5 676L0 676Z" fill="#c62368"></path>
</svg>