<svg width="120" height="100" viewBox="0 0 120 100" fill="none" xmlns="http://www.w3.org/2000/svg">
<g id="triangles" clip-path="url(#clip0)">
<rect width="120" height="100" fill="white"/>
<g id="lightGroup">
<path id="light1" opacity="0.7" d="M42.2315 48.2957C43.5721 49.0526 43.5907 50.9771 42.2648 51.7597L9.44983 71.1292C8.12397 71.9118 6.44812 70.9656 6.43329 69.4261L6.06631 31.3227C6.05148 29.7832 7.7088 28.8049 9.04949 29.5619L42.2315 48.2957Z" fill="#00F0FF"/>
</g>
<g id="darkGroup">
<path id="dark2" opacity="0.7" d="M42.1985 47.8125C43.5392 48.5695 43.5577 50.4939 42.2319 51.2765L9.41688 70.646C8.09102 71.4286 6.41517 70.4824 6.40034 68.9429L6.03335 30.8395C6.01853 29.3 7.67585 28.3218 9.01653 29.0787L42.1985 47.8125Z" fill="#00D1FF"/>
<path id="dark1" opacity="0.7" d="M57.2315 48.2957C58.5721 49.0526 58.5907 50.9771 57.2648 51.7597L24.4498 71.1292C23.124 71.9118 21.4481 70.9656 21.4333 69.4261L21.0663 31.3227C21.0515 29.7832 22.7088 28.8049 24.0495 29.5619L57.2315 48.2957Z" fill="#00D1FF"/>
</g>
</g>
<defs>
<clipPath id="clip0">
<rect width="120" height="100" fill="white"/>
</clipPath>
</defs>
</svg>
