<svg id="visual" viewBox="0 0 2100 300" width="2100" height="300" xmlns="http://www.w3.org/2000/svg" xmlns:xlink="http://www.w3.org/1999/xlink" version="1.1"><rect x="0" y="0" width="2100" height="300" fill="#001220"></rect><path d="M0 132L27 123.3C54 114.7 108 97.3 161.8 91C215.7 84.7 269.3 89.3 323.2 92C377 94.7 431 95.3 484.8 88.2C538.7 81 592.3 66 646.2 74.2C700 82.3 754 113.7 807.8 123.8C861.7 134 915.3 123 969.2 117C1023 111 1077 110 1130.8 110C1184.7 110 1238.3 111 1292.2 101.5C1346 92 1400 72 1453.8 71.2C1507.7 70.3 1561.3 88.7 1615.2 103C1669 117.3 1723 127.7 1776.8 128.3C1830.7 129 1884.3 120 1938.2 120.2C1992 120.3 2046 129.7 2073 134.3L2100 139L2100 301L2073 301C2046 301 1992 301 1938.2 301C1884.3 301 1830.7 301 1776.8 301C1723 301 1669 301 1615.2 301C1561.3 301 1507.7 301 1453.8 301C1400 301 1346 301 1292.2 301C1238.3 301 1184.7 301 1130.8 301C1077 301 1023 301 969.2 301C915.3 301 861.7 301 807.8 301C754 301 700 301 646.2 301C592.3 301 538.7 301 484.8 301C431 301 377 301 323.2 301C269.3 301 215.7 301 161.8 301C108 301 54 301 27 301L0 301Z" fill="#2dca4b"></path><path d="M0 170L27 159C54 148 108 126 161.8 122.5C215.7 119 269.3 134 323.2 143.2C377 152.3 431 155.7 484.8 149.8C538.7 144 592.3 129 646.2 127.8C700 126.7 754 139.3 807.8 138C861.7 136.7 915.3 121.3 969.2 115C1023 108.7 1077 111.3 1130.8 112.3C1184.7 113.3 1238.3 112.7 1292.2 120.2C1346 127.7 1400 143.3 1453.8 139.8C1507.7 136.3 1561.3 113.7 1615.2 111.3C1669 109 1723 127 1776.8 132.7C1830.7 138.3 1884.3 131.7 1938.2 131C1992 130.3 2046 135.7 2073 138.3L2100 141L2100 301L2073 301C2046 301 1992 301 1938.2 301C1884.3 301 1830.7 301 1776.8 301C1723 301 1669 301 1615.2 301C1561.3 301 1507.7 301 1453.8 301C1400 301 1346 301 1292.2 301C1238.3 301 1184.7 301 1130.8 301C1077 301 1023 301 969.2 301C915.3 301 861.7 301 807.8 301C754 301 700 301 646.2 301C592.3 301 538.7 301 484.8 301C431 301 377 301 323.2 301C269.3 301 215.7 301 161.8 301C108 301 54 301 27 301L0 301Z" fill="#7cb60d"></path><path d="M0 139L27 142C54 145 108 151 161.8 151.2C215.7 151.3 269.3 145.7 323.2 143C377 140.3 431 140.7 484.8 144.3C538.7 148 592.3 155 646.2 159.5C700 164 754 166 807.8 166.7C861.7 167.3 915.3 166.7 969.2 166.7C1023 166.7 1077 167.3 1130.8 162.7C1184.7 158 1238.3 148 1292.2 140.2C1346 132.3 1400 126.7 1453.8 127.3C1507.7 128 1561.3 135 1615.2 137.5C1669 140 1723 138 1776.8 134C1830.7 130 1884.3 124 1938.2 128.5C1992 133 2046 148 2073 155.5L2100 163L2100 301L2073 301C2046 301 1992 301 1938.2 301C1884.3 301 1830.7 301 1776.8 301C1723 301 1669 301 1615.2 301C1561.3 301 1507.7 301 1453.8 301C1400 301 1346 301 1292.2 301C1238.3 301 1184.7 301 1130.8 301C1077 301 1023 301 969.2 301C915.3 301 861.7 301 807.8 301C754 301 700 301 646.2 301C592.3 301 538.7 301 484.8 301C431 301 377 301 323.2 301C269.3 301 215.7 301 161.8 301C108 301 54 301 27 301L0 301Z" fill="#a4a000"></path><path d="M0 199L27 199C54 199 108 199 161.8 188.5C215.7 178 269.3 157 323.2 155.7C377 154.3 431 172.7 484.8 176.2C538.7 179.7 592.3 168.3 646.2 164.5C700 160.7 754 164.3 807.8 163.2C861.7 162 915.3 156 969.2 152.2C1023 148.3 1077 146.7 1130.8 151.3C1184.7 156 1238.3 167 1292.2 170.5C1346 174 1400 170 1453.8 174C1507.7 178 1561.3 190 1615.2 186C1669 182 1723 162 1776.8 157.5C1830.7 153 1884.3 164 1938.2 174.5C1992 185 2046 195 2073 200L2100 205L2100 301L2073 301C2046 301 1992 301 1938.2 301C1884.3 301 1830.7 301 1776.8 301C1723 301 1669 301 1615.2 301C1561.3 301 1507.7 301 1453.8 301C1400 301 1346 301 1292.2 301C1238.3 301 1184.7 301 1130.8 301C1077 301 1023 301 969.2 301C915.3 301 861.7 301 807.8 301C754 301 700 301 646.2 301C592.3 301 538.7 301 484.8 301C431 301 377 301 323.2 301C269.3 301 215.7 301 161.8 301C108 301 54 301 27 301L0 301Z" fill="#bf8700"></path><path d="M0 196L27 201.7C54 207.3 108 218.7 161.8 219.8C215.7 221 269.3 212 323.2 208.3C377 204.7 431 206.3 484.8 205.8C538.7 205.3 592.3 202.7 646.2 196.8C700 191 754 182 807.8 181.8C861.7 181.7 915.3 190.3 969.2 196.7C1023 203 1077 207 1130.8 208.7C1184.7 210.3 1238.3 209.7 1292.2 210.2C1346 210.7 1400 212.3 1453.8 209.2C1507.7 206 1561.3 198 1615.2 192.3C1669 186.7 1723 183.3 1776.8 182.5C1830.7 181.7 1884.3 183.3 1938.2 190.3C1992 197.3 2046 209.7 2073 215.8L2100 222L2100 301L2073 301C2046 301 1992 301 1938.2 301C1884.3 301 1830.7 301 1776.8 301C1723 301 1669 301 1615.2 301C1561.3 301 1507.7 301 1453.8 301C1400 301 1346 301 1292.2 301C1238.3 301 1184.7 301 1130.8 301C1077 301 1023 301 969.2 301C915.3 301 861.7 301 807.8 301C754 301 700 301 646.2 301C592.3 301 538.7 301 484.8 301C431 301 377 301 323.2 301C269.3 301 215.7 301 161.8 301C108 301 54 301 27 301L0 301Z" fill="#cf6d16"></path><path d="M0 202L27 200.3C54 198.7 108 195.3 161.8 199.5C215.7 203.7 269.3 215.3 323.2 223.2C377 231 431 235 484.8 233C538.7 231 592.3 223 646.2 216.7C700 210.3 754 205.7 807.8 208C861.7 210.3 915.3 219.7 969.2 226.3C1023 233 1077 237 1130.8 235.3C1184.7 233.7 1238.3 226.3 1292.2 223.8C1346 221.3 1400 223.7 1453.8 224.3C1507.7 225 1561.3 224 1615.2 218.8C1669 213.7 1723 204.3 1776.8 208C1830.7 211.7 1884.3 228.3 1938.2 235.5C1992 242.7 2046 240.3 2073 239.2L2100 238L2100 301L2073 301C2046 301 1992 301 1938.2 301C1884.3 301 1830.7 301 1776.8 301C1723 301 1669 301 1615.2 301C1561.3 301 1507.7 301 1453.8 301C1400 301 1346 301 1292.2 301C1238.3 301 1184.7 301 1130.8 301C1077 301 1023 301 969.2 301C915.3 301 861.7 301 807.8 301C754 301 700 301 646.2 301C592.3 301 538.7 301 484.8 301C431 301 377 301 323.2 301C269.3 301 215.7 301 161.8 301C108 301 54 301 27 301L0 301Z" fill="#d65133"></path><path d="M0 253L27 255C54 257 108 261 161.8 258C215.7 255 269.3 245 323.2 245.7C377 246.3 431 257.7 484.8 258.3C538.7 259 592.3 249 646.2 246.3C700 243.7 754 248.3 807.8 249.8C861.7 251.3 915.3 249.7 969.2 248.3C1023 247 1077 246 1130.8 244.8C1184.7 243.7 1238.3 242.3 1292.2 240.7C1346 239 1400 237 1453.8 239C1507.7 241 1561.3 247 1615.2 250C1669 253 1723 253 1776.8 251.5C1830.7 250 1884.3 247 1938.2 244.5C1992 242 2046 240 2073 239L2100 238L2100 301L2073 301C2046 301 1992 301 1938.2 301C1884.3 301 1830.7 301 1776.8 301C1723 301 1669 301 1615.2 301C1561.3 301 1507.7 301 1453.8 301C1400 301 1346 301 1292.2 301C1238.3 301 1184.7 301 1130.8 301C1077 301 1023 301 969.2 301C915.3 301 861.7 301 807.8 301C754 301 700 301 646.2 301C592.3 301 538.7 301 484.8 301C431 301 377 301 323.2 301C269.3 301 215.7 301 161.8 301C108 301 54 301 27 301L0 301Z" fill="#d4364e"></path><path d="M0 279L27 278.5C54 278 108 277 161.8 273.8C215.7 270.7 269.3 265.3 323.2 263.3C377 261.3 431 262.7 484.8 260.8C538.7 259 592.3 254 646.2 254.3C700 254.7 754 260.3 807.8 267.2C861.7 274 915.3 282 969.2 280.5C1023 279 1077 268 1130.8 266C1184.7 264 1238.3 271 1292.2 271.7C1346 272.3 1400 266.7 1453.8 262.2C1507.7 257.7 1561.3 254.3 1615.2 256C1669 257.7 1723 264.3 1776.8 269.7C1830.7 275 1884.3 279 1938.2 279.5C1992 280 2046 277 2073 275.5L2100 274L2100 301L2073 301C2046 301 1992 301 1938.2 301C1884.3 301 1830.7 301 1776.8 301C1723 301 1669 301 1615.2 301C1561.3 301 1507.7 301 1453.8 301C1400 301 1346 301 1292.2 301C1238.3 301 1184.7 301 1130.8 301C1077 301 1023 301 969.2 301C915.3 301 861.7 301 807.8 301C754 301 700 301 646.2 301C592.3 301 538.7 301 484.8 301C431 301 377 301 323.2 301C269.3 301 215.7 301 161.8 301C108 301 54 301 27 301L0 301Z" fill="#c62368"></path></svg>