<svg id="visual" viewBox="0 0 2100 300" width="2100" height="300" xmlns="http://www.w3.org/2000/svg" xmlns:xlink="http://www.w3.org/1999/xlink" version="1.1"><rect x="0" y="0" width="2100" height="300" fill="#001220"></rect><path d="M0 124L27 114.7C54 105.3 108 86.7 161.8 81.5C215.7 76.3 269.3 84.7 323.2 90.3C377 96 431 99 484.8 106.8C538.7 114.7 592.3 127.3 646.2 124.3C700 121.3 754 102.7 807.8 102.3C861.7 102 915.3 120 969.2 121C1023 122 1077 106 1130.8 95.5C1184.7 85 1238.3 80 1292.2 88C1346 96 1400 117 1453.8 117.8C1507.7 118.7 1561.3 99.3 1615.2 89C1669 78.7 1723 77.3 1776.8 86.3C1830.7 95.3 1884.3 114.7 1938.2 112.5C1992 110.3 2046 86.7 2073 74.8L2100 63L2100 301L2073 301C2046 301 1992 301 1938.2 301C1884.3 301 1830.7 301 1776.8 301C1723 301 1669 301 1615.2 301C1561.3 301 1507.7 301 1453.8 301C1400 301 1346 301 1292.2 301C1238.3 301 1184.7 301 1130.8 301C1077 301 1023 301 969.2 301C915.3 301 861.7 301 807.8 301C754 301 700 301 646.2 301C592.3 301 538.7 301 484.8 301C431 301 377 301 323.2 301C269.3 301 215.7 301 161.8 301C108 301 54 301 27 301L0 301Z" fill="#2dca4b"></path><path d="M0 106L27 108C54 110 108 114 161.8 110.8C215.7 107.7 269.3 97.3 323.2 96.5C377 95.7 431 104.3 484.8 108.5C538.7 112.7 592.3 112.3 646.2 113.7C700 115 754 118 807.8 126.2C861.7 134.3 915.3 147.7 969.2 142C1023 136.3 1077 111.7 1130.8 113.3C1184.7 115 1238.3 143 1292.2 143.5C1346 144 1400 117 1453.8 107.2C1507.7 97.3 1561.3 104.7 1615.2 112C1669 119.3 1723 126.7 1776.8 123.5C1830.7 120.3 1884.3 106.7 1938.2 112.7C1992 118.7 2046 144.3 2073 157.2L2100 170L2100 301L2073 301C2046 301 1992 301 1938.2 301C1884.3 301 1830.7 301 1776.8 301C1723 301 1669 301 1615.2 301C1561.3 301 1507.7 301 1453.8 301C1400 301 1346 301 1292.2 301C1238.3 301 1184.7 301 1130.8 301C1077 301 1023 301 969.2 301C915.3 301 861.7 301 807.8 301C754 301 700 301 646.2 301C592.3 301 538.7 301 484.8 301C431 301 377 301 323.2 301C269.3 301 215.7 301 161.8 301C108 301 54 301 27 301L0 301Z" fill="#7cb60d"></path><path d="M0 142L27 139.5C54 137 108 132 161.8 132.7C215.7 133.3 269.3 139.7 323.2 143.3C377 147 431 148 484.8 152.7C538.7 157.3 592.3 165.7 646.2 166C700 166.3 754 158.7 807.8 155C861.7 151.3 915.3 151.7 969.2 144.5C1023 137.3 1077 122.7 1130.8 115.7C1184.7 108.7 1238.3 109.3 1292.2 111.5C1346 113.7 1400 117.3 1453.8 122.3C1507.7 127.3 1561.3 133.7 1615.2 132.2C1669 130.7 1723 121.3 1776.8 123.2C1830.7 125 1884.3 138 1938.2 148C1992 158 2046 165 2073 168.5L2100 172L2100 301L2073 301C2046 301 1992 301 1938.2 301C1884.3 301 1830.7 301 1776.8 301C1723 301 1669 301 1615.2 301C1561.3 301 1507.7 301 1453.8 301C1400 301 1346 301 1292.2 301C1238.3 301 1184.7 301 1130.8 301C1077 301 1023 301 969.2 301C915.3 301 861.7 301 807.8 301C754 301 700 301 646.2 301C592.3 301 538.7 301 484.8 301C431 301 377 301 323.2 301C269.3 301 215.7 301 161.8 301C108 301 54 301 27 301L0 301Z" fill="#a4a000"></path><path d="M0 206L27 195.7C54 185.3 108 164.7 161.8 153.5C215.7 142.3 269.3 140.7 323.2 145.5C377 150.3 431 161.7 484.8 163.5C538.7 165.3 592.3 157.7 646.2 158C700 158.3 754 166.7 807.8 166.2C861.7 165.7 915.3 156.3 969.2 159.5C1023 162.7 1077 178.3 1130.8 176.7C1184.7 175 1238.3 156 1292.2 156.2C1346 156.3 1400 175.7 1453.8 175.5C1507.7 175.3 1561.3 155.7 1615.2 156C1669 156.3 1723 176.7 1776.8 181.5C1830.7 186.3 1884.3 175.7 1938.2 175C1992 174.3 2046 183.7 2073 188.3L2100 193L2100 301L2073 301C2046 301 1992 301 1938.2 301C1884.3 301 1830.7 301 1776.8 301C1723 301 1669 301 1615.2 301C1561.3 301 1507.7 301 1453.8 301C1400 301 1346 301 1292.2 301C1238.3 301 1184.7 301 1130.8 301C1077 301 1023 301 969.2 301C915.3 301 861.7 301 807.8 301C754 301 700 301 646.2 301C592.3 301 538.7 301 484.8 301C431 301 377 301 323.2 301C269.3 301 215.7 301 161.8 301C108 301 54 301 27 301L0 301Z" fill="#bf8700"></path><path d="M0 218L27 215.3C54 212.7 108 207.3 161.8 206.3C215.7 205.3 269.3 208.7 323.2 206.2C377 203.7 431 195.3 484.8 190.8C538.7 186.3 592.3 185.7 646.2 189.2C700 192.7 754 200.3 807.8 197.5C861.7 194.7 915.3 181.3 969.2 176.7C1023 172 1077 176 1130.8 177C1184.7 178 1238.3 176 1292.2 177.8C1346 179.7 1400 185.3 1453.8 189.5C1507.7 193.7 1561.3 196.3 1615.2 202.3C1669 208.3 1723 217.7 1776.8 212.3C1830.7 207 1884.3 187 1938.2 178.2C1992 169.3 2046 171.7 2073 172.8L2100 174L2100 301L2073 301C2046 301 1992 301 1938.2 301C1884.3 301 1830.7 301 1776.8 301C1723 301 1669 301 1615.2 301C1561.3 301 1507.7 301 1453.8 301C1400 301 1346 301 1292.2 301C1238.3 301 1184.7 301 1130.8 301C1077 301 1023 301 969.2 301C915.3 301 861.7 301 807.8 301C754 301 700 301 646.2 301C592.3 301 538.7 301 484.8 301C431 301 377 301 323.2 301C269.3 301 215.7 301 161.8 301C108 301 54 301 27 301L0 301Z" fill="#cf6d16"></path><path d="M0 198L27 201.7C54 205.3 108 212.7 161.8 218C215.7 223.3 269.3 226.7 323.2 228.8C377 231 431 232 484.8 233.3C538.7 234.7 592.3 236.3 646.2 234C700 231.7 754 225.3 807.8 218.3C861.7 211.3 915.3 203.7 969.2 205.5C1023 207.3 1077 218.7 1130.8 220C1184.7 221.3 1238.3 212.7 1292.2 212.2C1346 211.7 1400 219.3 1453.8 225.7C1507.7 232 1561.3 237 1615.2 233.3C1669 229.7 1723 217.3 1776.8 218.3C1830.7 219.3 1884.3 233.7 1938.2 232.5C1992 231.3 2046 214.7 2073 206.3L2100 198L2100 301L2073 301C2046 301 1992 301 1938.2 301C1884.3 301 1830.7 301 1776.8 301C1723 301 1669 301 1615.2 301C1561.3 301 1507.7 301 1453.8 301C1400 301 1346 301 1292.2 301C1238.3 301 1184.7 301 1130.8 301C1077 301 1023 301 969.2 301C915.3 301 861.7 301 807.8 301C754 301 700 301 646.2 301C592.3 301 538.7 301 484.8 301C431 301 377 301 323.2 301C269.3 301 215.7 301 161.8 301C108 301 54 301 27 301L0 301Z" fill="#d65133"></path><path d="M0 246L27 246.5C54 247 108 248 161.8 246.7C215.7 245.3 269.3 241.7 323.2 240.2C377 238.7 431 239.3 484.8 243.2C538.7 247 592.3 254 646.2 252.5C700 251 754 241 807.8 240C861.7 239 915.3 247 969.2 246.7C1023 246.3 1077 237.7 1130.8 234.3C1184.7 231 1238.3 233 1292.2 234.2C1346 235.3 1400 235.7 1453.8 235.3C1507.7 235 1561.3 234 1615.2 235.7C1669 237.3 1723 241.7 1776.8 245.8C1830.7 250 1884.3 254 1938.2 257.7C1992 261.3 2046 264.7 2073 266.3L2100 268L2100 301L2073 301C2046 301 1992 301 1938.2 301C1884.3 301 1830.7 301 1776.8 301C1723 301 1669 301 1615.2 301C1561.3 301 1507.7 301 1453.8 301C1400 301 1346 301 1292.2 301C1238.3 301 1184.7 301 1130.8 301C1077 301 1023 301 969.2 301C915.3 301 861.7 301 807.8 301C754 301 700 301 646.2 301C592.3 301 538.7 301 484.8 301C431 301 377 301 323.2 301C269.3 301 215.7 301 161.8 301C108 301 54 301 27 301L0 301Z" fill="#d4364e"></path><path d="M0 267L27 270.8C54 274.7 108 282.3 161.8 282C215.7 281.7 269.3 273.3 323.2 271.5C377 269.7 431 274.3 484.8 277.8C538.7 281.3 592.3 283.7 646.2 282C700 280.3 754 274.7 807.8 271.7C861.7 268.7 915.3 268.3 969.2 269.5C1023 270.7 1077 273.3 1130.8 271.8C1184.7 270.3 1238.3 264.7 1292.2 264.8C1346 265 1400 271 1453.8 274C1507.7 277 1561.3 277 1615.2 272.5C1669 268 1723 259 1776.8 260.8C1830.7 262.7 1884.3 275.3 1938.2 278.8C1992 282.3 2046 276.7 2073 273.8L2100 271L2100 301L2073 301C2046 301 1992 301 1938.2 301C1884.3 301 1830.7 301 1776.8 301C1723 301 1669 301 1615.2 301C1561.3 301 1507.7 301 1453.8 301C1400 301 1346 301 1292.2 301C1238.3 301 1184.7 301 1130.8 301C1077 301 1023 301 969.2 301C915.3 301 861.7 301 807.8 301C754 301 700 301 646.2 301C592.3 301 538.7 301 484.8 301C431 301 377 301 323.2 301C269.3 301 215.7 301 161.8 301C108 301 54 301 27 301L0 301Z" fill="#c62368"></path></svg>