<svg id="visual" viewBox="0 0 1800 300" width="1800" height="300" xmlns="http://www.w3.org/2000/svg" xmlns:xlink="http://www.w3.org/1999/xlink" version="1.1"><rect x="0" y="0" width="1800" height="300" fill="#001220"></rect><path d="M0 132L23 123.3C46 114.7 92 97.3 138.2 91C184.3 84.7 230.7 89.3 276.8 92C323 94.7 369 95.3 415.2 88.2C461.3 81 507.7 66 553.8 74.2C600 82.3 646 113.7 692.2 123.8C738.3 134 784.7 123 830.8 117C877 111 923 110 969.2 110C1015.3 110 1061.7 111 1107.8 101.5C1154 92 1200 72 1246.2 71.2C1292.3 70.3 1338.7 88.7 1384.8 103C1431 117.3 1477 127.7 1523.2 128.3C1569.3 129 1615.7 120 1661.8 120.2C1708 120.3 1754 129.7 1777 134.3L1800 139L1800 301L1777 301C1754 301 1708 301 1661.8 301C1615.7 301 1569.3 301 1523.2 301C1477 301 1431 301 1384.8 301C1338.7 301 1292.3 301 1246.2 301C1200 301 1154 301 1107.8 301C1061.7 301 1015.3 301 969.2 301C923 301 877 301 830.8 301C784.7 301 738.3 301 692.2 301C646 301 600 301 553.8 301C507.7 301 461.3 301 415.2 301C369 301 323 301 276.8 301C230.7 301 184.3 301 138.2 301C92 301 46 301 23 301L0 301Z" fill="#2dca4b"></path><path d="M0 170L23 159C46 148 92 126 138.2 122.5C184.3 119 230.7 134 276.8 143.2C323 152.3 369 155.7 415.2 149.8C461.3 144 507.7 129 553.8 127.8C600 126.7 646 139.3 692.2 138C738.3 136.7 784.7 121.3 830.8 115C877 108.7 923 111.3 969.2 112.3C1015.3 113.3 1061.7 112.7 1107.8 120.2C1154 127.7 1200 143.3 1246.2 139.8C1292.3 136.3 1338.7 113.7 1384.8 111.3C1431 109 1477 127 1523.2 132.7C1569.3 138.3 1615.7 131.7 1661.8 131C1708 130.3 1754 135.7 1777 138.3L1800 141L1800 301L1777 301C1754 301 1708 301 1661.8 301C1615.7 301 1569.3 301 1523.2 301C1477 301 1431 301 1384.8 301C1338.7 301 1292.3 301 1246.2 301C1200 301 1154 301 1107.8 301C1061.7 301 1015.3 301 969.2 301C923 301 877 301 830.8 301C784.7 301 738.3 301 692.2 301C646 301 600 301 553.8 301C507.7 301 461.3 301 415.2 301C369 301 323 301 276.8 301C230.7 301 184.3 301 138.2 301C92 301 46 301 23 301L0 301Z" fill="#7cb60d"></path><path d="M0 139L23 142C46 145 92 151 138.2 151.2C184.3 151.3 230.7 145.7 276.8 143C323 140.3 369 140.7 415.2 144.3C461.3 148 507.7 155 553.8 159.5C600 164 646 166 692.2 166.7C738.3 167.3 784.7 166.7 830.8 166.7C877 166.7 923 167.3 969.2 162.7C1015.3 158 1061.7 148 1107.8 140.2C1154 132.3 1200 126.7 1246.2 127.3C1292.3 128 1338.7 135 1384.8 137.5C1431 140 1477 138 1523.2 134C1569.3 130 1615.7 124 1661.8 128.5C1708 133 1754 148 1777 155.5L1800 163L1800 301L1777 301C1754 301 1708 301 1661.8 301C1615.7 301 1569.3 301 1523.2 301C1477 301 1431 301 1384.8 301C1338.7 301 1292.3 301 1246.2 301C1200 301 1154 301 1107.8 301C1061.7 301 1015.3 301 969.2 301C923 301 877 301 830.8 301C784.7 301 738.3 301 692.2 301C646 301 600 301 553.8 301C507.7 301 461.3 301 415.2 301C369 301 323 301 276.8 301C230.7 301 184.3 301 138.2 301C92 301 46 301 23 301L0 301Z" fill="#a4a000"></path><path d="M0 199L23 199C46 199 92 199 138.2 188.5C184.3 178 230.7 157 276.8 155.7C323 154.3 369 172.7 415.2 176.2C461.3 179.7 507.7 168.3 553.8 164.5C600 160.7 646 164.3 692.2 163.2C738.3 162 784.7 156 830.8 152.2C877 148.3 923 146.7 969.2 151.3C1015.3 156 1061.7 167 1107.8 170.5C1154 174 1200 170 1246.2 174C1292.3 178 1338.7 190 1384.8 186C1431 182 1477 162 1523.2 157.5C1569.3 153 1615.7 164 1661.8 174.5C1708 185 1754 195 1777 200L1800 205L1800 301L1777 301C1754 301 1708 301 1661.8 301C1615.7 301 1569.3 301 1523.2 301C1477 301 1431 301 1384.8 301C1338.7 301 1292.3 301 1246.2 301C1200 301 1154 301 1107.8 301C1061.7 301 1015.3 301 969.2 301C923 301 877 301 830.8 301C784.7 301 738.3 301 692.2 301C646 301 600 301 553.8 301C507.7 301 461.3 301 415.2 301C369 301 323 301 276.8 301C230.7 301 184.3 301 138.2 301C92 301 46 301 23 301L0 301Z" fill="#bf8700"></path><path d="M0 196L23 201.7C46 207.3 92 218.7 138.2 219.8C184.3 221 230.7 212 276.8 208.3C323 204.7 369 206.3 415.2 205.8C461.3 205.3 507.7 202.7 553.8 196.8C600 191 646 182 692.2 181.8C738.3 181.7 784.7 190.3 830.8 196.7C877 203 923 207 969.2 208.7C1015.3 210.3 1061.7 209.7 1107.8 210.2C1154 210.7 1200 212.3 1246.2 209.2C1292.3 206 1338.7 198 1384.8 192.3C1431 186.7 1477 183.3 1523.2 182.5C1569.3 181.7 1615.7 183.3 1661.8 190.3C1708 197.3 1754 209.7 1777 215.8L1800 222L1800 301L1777 301C1754 301 1708 301 1661.8 301C1615.7 301 1569.3 301 1523.2 301C1477 301 1431 301 1384.8 301C1338.7 301 1292.3 301 1246.2 301C1200 301 1154 301 1107.8 301C1061.7 301 1015.3 301 969.2 301C923 301 877 301 830.8 301C784.7 301 738.3 301 692.2 301C646 301 600 301 553.8 301C507.7 301 461.3 301 415.2 301C369 301 323 301 276.8 301C230.7 301 184.3 301 138.2 301C92 301 46 301 23 301L0 301Z" fill="#cf6d16"></path><path d="M0 202L23 200.3C46 198.7 92 195.3 138.2 199.5C184.3 203.7 230.7 215.3 276.8 223.2C323 231 369 235 415.2 233C461.3 231 507.7 223 553.8 216.7C600 210.3 646 205.7 692.2 208C738.3 210.3 784.7 219.7 830.8 226.3C877 233 923 237 969.2 235.3C1015.3 233.7 1061.7 226.3 1107.8 223.8C1154 221.3 1200 223.7 1246.2 224.3C1292.3 225 1338.7 224 1384.8 218.8C1431 213.7 1477 204.3 1523.2 208C1569.3 211.7 1615.7 228.3 1661.8 235.5C1708 242.7 1754 240.3 1777 239.2L1800 238L1800 301L1777 301C1754 301 1708 301 1661.8 301C1615.7 301 1569.3 301 1523.2 301C1477 301 1431 301 1384.8 301C1338.7 301 1292.3 301 1246.2 301C1200 301 1154 301 1107.8 301C1061.7 301 1015.3 301 969.2 301C923 301 877 301 830.8 301C784.7 301 738.3 301 692.2 301C646 301 600 301 553.8 301C507.7 301 461.3 301 415.2 301C369 301 323 301 276.8 301C230.7 301 184.3 301 138.2 301C92 301 46 301 23 301L0 301Z" fill="#d65133"></path><path d="M0 253L23 255C46 257 92 261 138.2 258C184.3 255 230.7 245 276.8 245.7C323 246.3 369 257.7 415.2 258.3C461.3 259 507.7 249 553.8 246.3C600 243.7 646 248.3 692.2 249.8C738.3 251.3 784.7 249.7 830.8 248.3C877 247 923 246 969.2 244.8C1015.3 243.7 1061.7 242.3 1107.8 240.7C1154 239 1200 237 1246.2 239C1292.3 241 1338.7 247 1384.8 250C1431 253 1477 253 1523.2 251.5C1569.3 250 1615.7 247 1661.8 244.5C1708 242 1754 240 1777 239L1800 238L1800 301L1777 301C1754 301 1708 301 1661.8 301C1615.7 301 1569.3 301 1523.2 301C1477 301 1431 301 1384.8 301C1338.7 301 1292.3 301 1246.2 301C1200 301 1154 301 1107.8 301C1061.7 301 1015.3 301 969.2 301C923 301 877 301 830.8 301C784.7 301 738.3 301 692.2 301C646 301 600 301 553.8 301C507.7 301 461.3 301 415.2 301C369 301 323 301 276.8 301C230.7 301 184.3 301 138.2 301C92 301 46 301 23 301L0 301Z" fill="#d4364e"></path><path d="M0 279L23 278.5C46 278 92 277 138.2 273.8C184.3 270.7 230.7 265.3 276.8 263.3C323 261.3 369 262.7 415.2 260.8C461.3 259 507.7 254 553.8 254.3C600 254.7 646 260.3 692.2 267.2C738.3 274 784.7 282 830.8 280.5C877 279 923 268 969.2 266C1015.3 264 1061.7 271 1107.8 271.7C1154 272.3 1200 266.7 1246.2 262.2C1292.3 257.7 1338.7 254.3 1384.8 256C1431 257.7 1477 264.3 1523.2 269.7C1569.3 275 1615.7 279 1661.8 279.5C1708 280 1754 277 1777 275.5L1800 274L1800 301L1777 301C1754 301 1708 301 1661.8 301C1615.7 301 1569.3 301 1523.2 301C1477 301 1431 301 1384.8 301C1338.7 301 1292.3 301 1246.2 301C1200 301 1154 301 1107.8 301C1061.7 301 1015.3 301 969.2 301C923 301 877 301 830.8 301C784.7 301 738.3 301 692.2 301C646 301 600 301 553.8 301C507.7 301 461.3 301 415.2 301C369 301 323 301 276.8 301C230.7 301 184.3 301 138.2 301C92 301 46 301 23 301L0 301Z" fill="#c62368"></path></svg>