<svg id="visual" viewBox="0 0 2100 100" width="2100" height="100" xmlns="http://www.w3.org/2000/svg" xmlns:xlink="http://www.w3.org/1999/xlink" version="1.1"><rect x="0" y="0" width="2100" height="100" fill="#000000"></rect><path d="M0 45L27 45.3C54 45.7 108 46.3 161.8 42.8C215.7 39.3 269.3 31.7 323.2 28.8C377 26 431 28 484.8 27.2C538.7 26.3 592.3 22.7 646.2 24.3C700 26 754 33 807.8 32.5C861.7 32 915.3 24 969.2 25.3C1023 26.7 1077 37.3 1130.8 42C1184.7 46.7 1238.3 45.3 1292.2 43C1346 40.7 1400 37.3 1453.8 35C1507.7 32.7 1561.3 31.3 1615.2 31.7C1669 32 1723 34 1776.8 36.8C1830.7 39.7 1884.3 43.3 1938.2 44C1992 44.7 2046 42.3 2073 41.2L2100 40L2100 101L2073 101C2046 101 1992 101 1938.2 101C1884.3 101 1830.7 101 1776.8 101C1723 101 1669 101 1615.2 101C1561.3 101 1507.7 101 1453.8 101C1400 101 1346 101 1292.2 101C1238.3 101 1184.7 101 1130.8 101C1077 101 1023 101 969.2 101C915.3 101 861.7 101 807.8 101C754 101 700 101 646.2 101C592.3 101 538.7 101 484.8 101C431 101 377 101 323.2 101C269.3 101 215.7 101 161.8 101C108 101 54 101 27 101L0 101Z" fill="#2dca4b"></path><path d="M0 41L27 43.2C54 45.3 108 49.7 161.8 52C215.7 54.3 269.3 54.7 323.2 53C377 51.3 431 47.7 484.8 46C538.7 44.3 592.3 44.7 646.2 45.2C700 45.7 754 46.3 807.8 46.2C861.7 46 915.3 45 969.2 44C1023 43 1077 42 1130.8 43.2C1184.7 44.3 1238.3 47.7 1292.2 48.3C1346 49 1400 47 1453.8 46.8C1507.7 46.7 1561.3 48.3 1615.2 46.3C1669 44.3 1723 38.7 1776.8 39C1830.7 39.3 1884.3 45.7 1938.2 46.2C1992 46.7 2046 41.3 2073 38.7L2100 36L2100 101L2073 101C2046 101 1992 101 1938.2 101C1884.3 101 1830.7 101 1776.8 101C1723 101 1669 101 1615.2 101C1561.3 101 1507.7 101 1453.8 101C1400 101 1346 101 1292.2 101C1238.3 101 1184.7 101 1130.8 101C1077 101 1023 101 969.2 101C915.3 101 861.7 101 807.8 101C754 101 700 101 646.2 101C592.3 101 538.7 101 484.8 101C431 101 377 101 323.2 101C269.3 101 215.7 101 161.8 101C108 101 54 101 27 101L0 101Z" fill="#23ad36"></path><path d="M0 37L27 38.3C54 39.7 108 42.3 161.8 44.2C215.7 46 269.3 47 323.2 45.5C377 44 431 40 484.8 38.7C538.7 37.3 592.3 38.7 646.2 40.5C700 42.3 754 44.7 807.8 46.8C861.7 49 915.3 51 969.2 53.5C1023 56 1077 59 1130.8 59.8C1184.7 60.7 1238.3 59.3 1292.2 57.7C1346 56 1400 54 1453.8 51C1507.7 48 1561.3 44 1615.2 43C1669 42 1723 44 1776.8 45.8C1830.7 47.7 1884.3 49.3 1938.2 49.5C1992 49.7 2046 48.3 2073 47.7L2100 47L2100 101L2073 101C2046 101 1992 101 1938.2 101C1884.3 101 1830.7 101 1776.8 101C1723 101 1669 101 1615.2 101C1561.3 101 1507.7 101 1453.8 101C1400 101 1346 101 1292.2 101C1238.3 101 1184.7 101 1130.8 101C1077 101 1023 101 969.2 101C915.3 101 861.7 101 807.8 101C754 101 700 101 646.2 101C592.3 101 538.7 101 484.8 101C431 101 377 101 323.2 101C269.3 101 215.7 101 161.8 101C108 101 54 101 27 101L0 101Z" fill="#189021"></path><path d="M0 61L27 60.5C54 60 108 59 161.8 58.5C215.7 58 269.3 58 323.2 57.3C377 56.7 431 55.3 484.8 53.7C538.7 52 592.3 50 646.2 51.3C700 52.7 754 57.3 807.8 58.2C861.7 59 915.3 56 969.2 55.7C1023 55.3 1077 57.7 1130.8 58.8C1184.7 60 1238.3 60 1292.2 58.8C1346 57.7 1400 55.3 1453.8 52.8C1507.7 50.3 1561.3 47.7 1615.2 47C1669 46.3 1723 47.7 1776.8 49.5C1830.7 51.3 1884.3 53.7 1938.2 53.7C1992 53.7 2046 51.3 2073 50.2L2100 49L2100 101L2073 101C2046 101 1992 101 1938.2 101C1884.3 101 1830.7 101 1776.8 101C1723 101 1669 101 1615.2 101C1561.3 101 1507.7 101 1453.8 101C1400 101 1346 101 1292.2 101C1238.3 101 1184.7 101 1130.8 101C1077 101 1023 101 969.2 101C915.3 101 861.7 101 807.8 101C754 101 700 101 646.2 101C592.3 101 538.7 101 484.8 101C431 101 377 101 323.2 101C269.3 101 215.7 101 161.8 101C108 101 54 101 27 101L0 101Z" fill="#08750b"></path><path d="M0 73L27 71C54 69 108 65 161.8 63.3C215.7 61.7 269.3 62.3 323.2 61.5C377 60.7 431 58.3 484.8 58C538.7 57.7 592.3 59.3 646.2 59.8C700 60.3 754 59.7 807.8 58.7C861.7 57.7 915.3 56.3 969.2 59.2C1023 62 1077 69 1130.8 70.5C1184.7 72 1238.3 68 1292.2 66C1346 64 1400 64 1453.8 63.7C1507.7 63.3 1561.3 62.7 1615.2 61.8C1669 61 1723 60 1776.8 58.8C1830.7 57.7 1884.3 56.3 1938.2 59C1992 61.7 2046 68.3 2073 71.7L2100 75L2100 101L2073 101C2046 101 1992 101 1938.2 101C1884.3 101 1830.7 101 1776.8 101C1723 101 1669 101 1615.2 101C1561.3 101 1507.7 101 1453.8 101C1400 101 1346 101 1292.2 101C1238.3 101 1184.7 101 1130.8 101C1077 101 1023 101 969.2 101C915.3 101 861.7 101 807.8 101C754 101 700 101 646.2 101C592.3 101 538.7 101 484.8 101C431 101 377 101 323.2 101C269.3 101 215.7 101 161.8 101C108 101 54 101 27 101L0 101Z" fill="#005a00"></path><path d="M0 82L27 81.3C54 80.7 108 79.3 161.8 78.2C215.7 77 269.3 76 323.2 74C377 72 431 69 484.8 69.2C538.7 69.3 592.3 72.7 646.2 73.8C700 75 754 74 807.8 72.7C861.7 71.3 915.3 69.7 969.2 68.5C1023 67.3 1077 66.7 1130.8 68C1184.7 69.3 1238.3 72.7 1292.2 73.7C1346 74.7 1400 73.3 1453.8 72.2C1507.7 71 1561.3 70 1615.2 71.2C1669 72.3 1723 75.7 1776.8 75C1830.7 74.3 1884.3 69.7 1938.2 67.8C1992 66 2046 67 2073 67.5L2100 68L2100 101L2073 101C2046 101 1992 101 1938.2 101C1884.3 101 1830.7 101 1776.8 101C1723 101 1669 101 1615.2 101C1561.3 101 1507.7 101 1453.8 101C1400 101 1346 101 1292.2 101C1238.3 101 1184.7 101 1130.8 101C1077 101 1023 101 969.2 101C915.3 101 861.7 101 807.8 101C754 101 700 101 646.2 101C592.3 101 538.7 101 484.8 101C431 101 377 101 323.2 101C269.3 101 215.7 101 161.8 101C108 101 54 101 27 101L0 101Z" fill="#004000"></path><path d="M0 76L27 77.2C54 78.3 108 80.7 161.8 81.7C215.7 82.7 269.3 82.3 323.2 81.2C377 80 431 78 484.8 78.2C538.7 78.3 592.3 80.7 646.2 81.8C700 83 754 83 807.8 82.2C861.7 81.3 915.3 79.7 969.2 80.2C1023 80.7 1077 83.3 1130.8 82.8C1184.7 82.3 1238.3 78.7 1292.2 77.2C1346 75.7 1400 76.3 1453.8 77.2C1507.7 78 1561.3 79 1615.2 80.7C1669 82.3 1723 84.7 1776.8 84C1830.7 83.3 1884.3 79.7 1938.2 79.7C1992 79.7 2046 83.3 2073 85.2L2100 87L2100 101L2073 101C2046 101 1992 101 1938.2 101C1884.3 101 1830.7 101 1776.8 101C1723 101 1669 101 1615.2 101C1561.3 101 1507.7 101 1453.8 101C1400 101 1346 101 1292.2 101C1238.3 101 1184.7 101 1130.8 101C1077 101 1023 101 969.2 101C915.3 101 861.7 101 807.8 101C754 101 700 101 646.2 101C592.3 101 538.7 101 484.8 101C431 101 377 101 323.2 101C269.3 101 215.7 101 161.8 101C108 101 54 101 27 101L0 101Z" fill="#002900"></path><path d="M0 95L27 94.3C54 93.7 108 92.3 161.8 90.7C215.7 89 269.3 87 323.2 85.8C377 84.7 431 84.3 484.8 84.7C538.7 85 592.3 86 646.2 86.7C700 87.3 754 87.7 807.8 89C861.7 90.3 915.3 92.7 969.2 92.3C1023 92 1077 89 1130.8 87.7C1184.7 86.3 1238.3 86.7 1292.2 86.7C1346 86.7 1400 86.3 1453.8 87C1507.7 87.7 1561.3 89.3 1615.2 89.3C1669 89.3 1723 87.7 1776.8 88.3C1830.7 89 1884.3 92 1938.2 91.8C1992 91.7 2046 88.3 2073 86.7L2100 85L2100 101L2073 101C2046 101 1992 101 1938.2 101C1884.3 101 1830.7 101 1776.8 101C1723 101 1669 101 1615.2 101C1561.3 101 1507.7 101 1453.8 101C1400 101 1346 101 1292.2 101C1238.3 101 1184.7 101 1130.8 101C1077 101 1023 101 969.2 101C915.3 101 861.7 101 807.8 101C754 101 700 101 646.2 101C592.3 101 538.7 101 484.8 101C431 101 377 101 323.2 101C269.3 101 215.7 101 161.8 101C108 101 54 101 27 101L0 101Z" fill="#000000"></path></svg>