<svg id="visual" viewBox="0 0 1400 900" width="1400" height="900" xmlns="http://www.w3.org/2000/svg" xmlns:xlink="http://www.w3.org/1999/xlink" version="1.1">
<rect x="0" y="0" width="1400" height="900" fill="#001220"></rect><path d="M0 579L18 572.8C36 566.7 72 554.3 107.8 537.8C143.7 521.3 179.3 500.7 215.2 501.3C251 502 287 524 323 534.7C359 545.3 395 544.7 430.8 542.7C466.7 540.7 502.3 537.3 538.2 527.8C574 518.3 610 502.7 646 506.3C682 510 718 533 754 548.3C790 563.7 826 571.3 861.8 575C897.7 578.7 933.3 578.3 969.2 571.3C1005 564.3 1041 550.7 1077 541.8C1113 533 1149 529 1184.8 534.3C1220.7 539.7 1256.3 554.3 1292.2 542.5C1328 530.7 1364 492.3 1382 473.2L1400 454L1400 901L1382 901C1364 901 1328 901 1292.2 901C1256.3 901 1220.7 901 1184.8 901C1149 901 1113 901 1077 901C1041 901 1005 901 969.2 901C933.3 901 897.7 901 861.8 901C826 901 790 901 754 901C718 901 682 901 646 901C610 901 574 901 538.2 901C502.3 901 466.7 901 430.8 901C395 901 359 901 323 901C287 901 251 901 215.2 901C179.3 901 143.7 901 107.8 901C72 901 36 901 18 901L0 901Z" fill="#2dca4b"></path><path d="M0 516L18 533.5C36 551 72 586 107.8 584.2C143.7 582.3 179.3 543.7 215.2 533.3C251 523 287 541 323 544.2C359 547.3 395 535.7 430.8 533.7C466.7 531.7 502.3 539.3 538.2 552.8C574 566.3 610 585.7 646 580.5C682 575.3 718 545.7 754 526.5C790 507.3 826 498.7 861.8 511C897.7 523.3 933.3 556.7 969.2 558.8C1005 561 1041 532 1077 536.7C1113 541.3 1149 579.7 1184.8 592.2C1220.7 604.7 1256.3 591.3 1292.2 577.2C1328 563 1364 548 1382 540.5L1400 533L1400 901L1382 901C1364 901 1328 901 1292.2 901C1256.3 901 1220.7 901 1184.8 901C1149 901 1113 901 1077 901C1041 901 1005 901 969.2 901C933.3 901 897.7 901 861.8 901C826 901 790 901 754 901C718 901 682 901 646 901C610 901 574 901 538.2 901C502.3 901 466.7 901 430.8 901C395 901 359 901 323 901C287 901 251 901 215.2 901C179.3 901 143.7 901 107.8 901C72 901 36 901 18 901L0 901Z" fill="#62c433"></path><path d="M0 580L18 571.7C36 563.3 72 546.7 107.8 545.3C143.7 544 179.3 558 215.2 568.7C251 579.3 287 586.7 323 579.7C359 572.7 395 551.3 430.8 559C466.7 566.7 502.3 603.3 538.2 622.3C574 641.3 610 642.7 646 634.8C682 627 718 610 754 600.8C790 591.7 826 590.3 861.8 589.7C897.7 589 933.3 589 969.2 591.2C1005 593.3 1041 597.7 1077 597.3C1113 597 1149 592 1184.8 595.5C1220.7 599 1256.3 611 1292.2 614C1328 617 1364 611 1382 608L1400 605L1400 901L1382 901C1364 901 1328 901 1292.2 901C1256.3 901 1220.7 901 1184.8 901C1149 901 1113 901 1077 901C1041 901 1005 901 969.2 901C933.3 901 897.7 901 861.8 901C826 901 790 901 754 901C718 901 682 901 646 901C610 901 574 901 538.2 901C502.3 901 466.7 901 430.8 901C395 901 359 901 323 901C287 901 251 901 215.2 901C179.3 901 143.7 901 107.8 901C72 901 36 901 18 901L0 901Z" fill="#82bd1c"></path><path d="M0 619L18 626.3C36 633.7 72 648.3 107.8 643.7C143.7 639 179.3 615 215.2 611.3C251 607.7 287 624.3 323 624C359 623.7 395 606.3 430.8 604.7C466.7 603 502.3 617 538.2 624.2C574 631.3 610 631.7 646 636.2C682 640.7 718 649.3 754 654.2C790 659 826 660 861.8 652.7C897.7 645.3 933.3 629.7 969.2 620.8C1005 612 1041 610 1077 610C1113 610 1149 612 1184.8 605.5C1220.7 599 1256.3 584 1292.2 575.8C1328 567.7 1364 566.3 1382 565.7L1400 565L1400 901L1382 901C1364 901 1328 901 1292.2 901C1256.3 901 1220.7 901 1184.8 901C1149 901 1113 901 1077 901C1041 901 1005 901 969.2 901C933.3 901 897.7 901 861.8 901C826 901 790 901 754 901C718 901 682 901 646 901C610 901 574 901 538.2 901C502.3 901 466.7 901 430.8 901C395 901 359 901 323 901C287 901 251 901 215.2 901C179.3 901 143.7 901 107.8 901C72 901 36 901 18 901L0 901Z" fill="#9cb600"></path><path d="M0 621L18 620.5C36 620 72 619 107.8 620.8C143.7 622.7 179.3 627.3 215.2 629.3C251 631.3 287 630.7 323 623.8C359 617 395 604 430.8 601.3C466.7 598.7 502.3 606.3 538.2 609.3C574 612.3 610 610.7 646 608.2C682 605.7 718 602.3 754 611.3C790 620.3 826 641.7 861.8 658.5C897.7 675.3 933.3 687.7 969.2 689.8C1005 692 1041 684 1077 677.2C1113 670.3 1149 664.7 1184.8 650C1220.7 635.3 1256.3 611.7 1292.2 614.5C1328 617.3 1364 646.7 1382 661.3L1400 676L1400 901L1382 901C1364 901 1328 901 1292.2 901C1256.3 901 1220.7 901 1184.8 901C1149 901 1113 901 1077 901C1041 901 1005 901 969.2 901C933.3 901 897.7 901 861.8 901C826 901 790 901 754 901C718 901 682 901 646 901C610 901 574 901 538.2 901C502.3 901 466.7 901 430.8 901C395 901 359 901 323 901C287 901 251 901 215.2 901C179.3 901 143.7 901 107.8 901C72 901 36 901 18 901L0 901Z" fill="#b1ad00"></path><path d="M0 711L18 708.3C36 705.7 72 700.3 107.8 696.7C143.7 693 179.3 691 215.2 694.5C251 698 287 707 323 705.2C359 703.3 395 690.7 430.8 682.7C466.7 674.7 502.3 671.3 538.2 678.2C574 685 610 702 646 705C682 708 718 697 754 681.3C790 665.7 826 645.3 861.8 651.3C897.7 657.3 933.3 689.7 969.2 695.2C1005 700.7 1041 679.3 1077 663.5C1113 647.7 1149 637.3 1184.8 645.2C1220.7 653 1256.3 679 1292.2 682C1328 685 1364 665 1382 655L1400 645L1400 901L1382 901C1364 901 1328 901 1292.2 901C1256.3 901 1220.7 901 1184.8 901C1149 901 1113 901 1077 901C1041 901 1005 901 969.2 901C933.3 901 897.7 901 861.8 901C826 901 790 901 754 901C718 901 682 901 646 901C610 901 574 901 538.2 901C502.3 901 466.7 901 430.8 901C395 901 359 901 323 901C287 901 251 901 215.2 901C179.3 901 143.7 901 107.8 901C72 901 36 901 18 901L0 901Z" fill="#c4a500"></path><path d="M0 696L18 699.5C36 703 72 710 107.8 704.2C143.7 698.3 179.3 679.7 215.2 681.2C251 682.7 287 704.3 323 718.2C359 732 395 738 430.8 740.3C466.7 742.7 502.3 741.3 538.2 730.5C574 719.7 610 699.3 646 693.5C682 687.7 718 696.3 754 692.8C790 689.3 826 673.7 861.8 668C897.7 662.3 933.3 666.7 969.2 680.5C1005 694.3 1041 717.7 1077 732.3C1113 747 1149 753 1184.8 751.8C1220.7 750.7 1256.3 742.3 1292.2 728.2C1328 714 1364 694 1382 684L1400 674L1400 901L1382 901C1364 901 1328 901 1292.2 901C1256.3 901 1220.7 901 1184.8 901C1149 901 1113 901 1077 901C1041 901 1005 901 969.2 901C933.3 901 897.7 901 861.8 901C826 901 790 901 754 901C718 901 682 901 646 901C610 901 574 901 538.2 901C502.3 901 466.7 901 430.8 901C395 901 359 901 323 901C287 901 251 901 215.2 901C179.3 901 143.7 901 107.8 901C72 901 36 901 18 901L0 901Z" fill="#d49b12"></path><path d="M0 720L18 716.7C36 713.3 72 706.7 107.8 707.2C143.7 707.7 179.3 715.3 215.2 726.5C251 737.7 287 752.3 323 754.2C359 756 395 745 430.8 736.3C466.7 727.7 502.3 721.3 538.2 719.3C574 717.3 610 719.7 646 731.7C682 743.7 718 765.3 754 772.3C790 779.3 826 771.7 861.8 764.3C897.7 757 933.3 750 969.2 739.5C1005 729 1041 715 1077 711.5C1113 708 1149 715 1184.8 728.3C1220.7 741.7 1256.3 761.3 1292.2 761.8C1328 762.3 1364 743.7 1382 734.3L1400 725L1400 901L1382 901C1364 901 1328 901 1292.2 901C1256.3 901 1220.7 901 1184.8 901C1149 901 1113 901 1077 901C1041 901 1005 901 969.2 901C933.3 901 897.7 901 861.8 901C826 901 790 901 754 901C718 901 682 901 646 901C610 901 574 901 538.2 901C502.3 901 466.7 901 430.8 901C395 901 359 901 323 901C287 901 251 901 215.2 901C179.3 901 143.7 901 107.8 901C72 901 36 901 18 901L0 901Z" fill="#e19225"></path><path d="M0 793L18 785.3C36 777.7 72 762.3 107.8 753.2C143.7 744 179.3 741 215.2 745.5C251 750 287 762 323 771.7C359 781.3 395 788.7 430.8 785C466.7 781.3 502.3 766.7 538.2 763.3C574 760 610 768 646 775.8C682 783.7 718 791.3 754 787.8C790 784.3 826 769.7 861.8 770.2C897.7 770.7 933.3 786.3 969.2 790C1005 793.7 1041 785.3 1077 785.3C1113 785.3 1149 793.7 1184.8 786.5C1220.7 779.3 1256.3 756.7 1292.2 748.5C1328 740.3 1364 746.7 1382 749.8L1400 753L1400 901L1382 901C1364 901 1328 901 1292.2 901C1256.3 901 1220.7 901 1184.8 901C1149 901 1113 901 1077 901C1041 901 1005 901 969.2 901C933.3 901 897.7 901 861.8 901C826 901 790 901 754 901C718 901 682 901 646 901C610 901 574 901 538.2 901C502.3 901 466.7 901 430.8 901C395 901 359 901 323 901C287 901 251 901 215.2 901C179.3 901 143.7 901 107.8 901C72 901 36 901 18 901L0 901Z" fill="#ec8936"></path><path d="M0 836L18 834.7C36 833.3 72 830.7 107.8 827.5C143.7 824.3 179.3 820.7 215.2 811.2C251 801.7 287 786.3 323 778.8C359 771.3 395 771.7 430.8 771.8C466.7 772 502.3 772 538.2 780C574 788 610 804 646 803.8C682 803.7 718 787.3 754 780.2C790 773 826 775 861.8 780.8C897.7 786.7 933.3 796.3 969.2 798.5C1005 800.7 1041 795.3 1077 791.3C1113 787.3 1149 784.7 1184.8 792.5C1220.7 800.3 1256.3 818.7 1292.2 818.2C1328 817.7 1364 798.3 1382 788.7L1400 779L1400 901L1382 901C1364 901 1328 901 1292.2 901C1256.3 901 1220.7 901 1184.8 901C1149 901 1113 901 1077 901C1041 901 1005 901 969.2 901C933.3 901 897.7 901 861.8 901C826 901 790 901 754 901C718 901 682 901 646 901C610 901 574 901 538.2 901C502.3 901 466.7 901 430.8 901C395 901 359 901 323 901C287 901 251 901 215.2 901C179.3 901 143.7 901 107.8 901C72 901 36 901 18 901L0 901Z" fill="#f38047"></path><path d="M0 803L18 811.2C36 819.3 72 835.7 107.8 843.8C143.7 852 179.3 852 215.2 846.8C251 841.7 287 831.3 323 833C359 834.7 395 848.3 430.8 848.2C466.7 848 502.3 834 538.2 823C574 812 610 804 646 806.8C682 809.7 718 823.3 754 828C790 832.7 826 828.3 861.8 828.2C897.7 828 933.3 832 969.2 833C1005 834 1041 832 1077 833C1113 834 1149 838 1184.8 833.2C1220.7 828.3 1256.3 814.7 1292.2 817.5C1328 820.3 1364 839.7 1382 849.3L1400 859L1400 901L1382 901C1364 901 1328 901 1292.2 901C1256.3 901 1220.7 901 1184.8 901C1149 901 1113 901 1077 901C1041 901 1005 901 969.2 901C933.3 901 897.7 901 861.8 901C826 901 790 901 754 901C718 901 682 901 646 901C610 901 574 901 538.2 901C502.3 901 466.7 901 430.8 901C395 901 359 901 323 901C287 901 251 901 215.2 901C179.3 901 143.7 901 107.8 901C72 901 36 901 18 901L0 901Z" fill="#f87857"></path><path d="M0 844L18 843.3C36 842.7 72 841.3 107.8 846.2C143.7 851 179.3 862 215.2 861.8C251 861.7 287 850.3 323 846.2C359 842 395 845 430.8 850C466.7 855 502.3 862 538.2 859.5C574 857 610 845 646 841.7C682 838.3 718 843.7 754 849.3C790 855 826 861 861.8 866.7C897.7 872.3 933.3 877.7 969.2 871.8C1005 866 1041 849 1077 844.7C1113 840.3 1149 848.7 1184.8 855.5C1220.7 862.3 1256.3 867.7 1292.2 872.8C1328 878 1364 883 1382 885.5L1400 888L1400 901L1382 901C1364 901 1328 901 1292.2 901C1256.3 901 1220.7 901 1184.8 901C1149 901 1113 901 1077 901C1041 901 1005 901 969.2 901C933.3 901 897.7 901 861.8 901C826 901 790 901 754 901C718 901 682 901 646 901C610 901 574 901 538.2 901C502.3 901 466.7 901 430.8 901C395 901 359 901 323 901C287 901 251 901 215.2 901C179.3 901 143.7 901 107.8 901C72 901 36 901 18 901L0 901Z" fill="#fa7268"></path></svg>