<svg id="visual" viewBox="0 0 1400 900" width="1400" height="900" xmlns="http://www.w3.org/2000/svg" xmlns:xlink="http://www.w3.org/1999/xlink" version="1.1"><rect x="0" y="0" width="1400" height="900" fill="#001220"></rect><path d="M0 594L18 589.2C36 584.3 72 574.7 107.8 551.2C143.7 527.7 179.3 490.3 215.2 490.3C251 490.3 287 527.7 323 539C359 550.3 395 535.7 430.8 520.8C466.7 506 502.3 491 538.2 502.3C574 513.7 610 551.3 646 560.8C682 570.3 718 551.7 754 541.5C790 531.3 826 529.7 861.8 519.5C897.7 509.3 933.3 490.7 969.2 492C1005 493.3 1041 514.7 1077 527.7C1113 540.7 1149 545.3 1184.8 533.5C1220.7 521.7 1256.3 493.3 1292.2 497.8C1328 502.3 1364 539.7 1382 558.3L1400 577L1400 901L1382 901C1364 901 1328 901 1292.2 901C1256.3 901 1220.7 901 1184.8 901C1149 901 1113 901 1077 901C1041 901 1005 901 969.2 901C933.3 901 897.7 901 861.8 901C826 901 790 901 754 901C718 901 682 901 646 901C610 901 574 901 538.2 901C502.3 901 466.7 901 430.8 901C395 901 359 901 323 901C287 901 251 901 215.2 901C179.3 901 143.7 901 107.8 901C72 901 36 901 18 901L0 901Z" fill="#2dca4b"></path><path d="M0 551L18 551.7C36 552.3 72 553.7 107.8 547.5C143.7 541.3 179.3 527.7 215.2 524.3C251 521 287 528 323 523.5C359 519 395 503 430.8 503.3C466.7 503.7 502.3 520.3 538.2 536.7C574 553 610 569 646 568C682 567 718 549 754 550.2C790 551.3 826 571.7 861.8 568.3C897.7 565 933.3 538 969.2 523.5C1005 509 1041 507 1077 524.5C1113 542 1149 579 1184.8 577.2C1220.7 575.3 1256.3 534.7 1292.2 532.2C1328 529.7 1364 565.3 1382 583.2L1400 601L1400 901L1382 901C1364 901 1328 901 1292.2 901C1256.3 901 1220.7 901 1184.8 901C1149 901 1113 901 1077 901C1041 901 1005 901 969.2 901C933.3 901 897.7 901 861.8 901C826 901 790 901 754 901C718 901 682 901 646 901C610 901 574 901 538.2 901C502.3 901 466.7 901 430.8 901C395 901 359 901 323 901C287 901 251 901 215.2 901C179.3 901 143.7 901 107.8 901C72 901 36 901 18 901L0 901Z" fill="#62c433"></path><path d="M0 578L18 586C36 594 72 610 107.8 617C143.7 624 179.3 622 215.2 624.7C251 627.3 287 634.7 323 636.7C359 638.7 395 635.3 430.8 627.5C466.7 619.7 502.3 607.3 538.2 598.5C574 589.7 610 584.3 646 573.8C682 563.3 718 547.7 754 559.2C790 570.7 826 609.3 861.8 620.8C897.7 632.3 933.3 616.7 969.2 604.3C1005 592 1041 583 1077 588.5C1113 594 1149 614 1184.8 605.5C1220.7 597 1256.3 560 1292.2 542.3C1328 524.7 1364 526.3 1382 527.2L1400 528L1400 901L1382 901C1364 901 1328 901 1292.2 901C1256.3 901 1220.7 901 1184.8 901C1149 901 1113 901 1077 901C1041 901 1005 901 969.2 901C933.3 901 897.7 901 861.8 901C826 901 790 901 754 901C718 901 682 901 646 901C610 901 574 901 538.2 901C502.3 901 466.7 901 430.8 901C395 901 359 901 323 901C287 901 251 901 215.2 901C179.3 901 143.7 901 107.8 901C72 901 36 901 18 901L0 901Z" fill="#82bd1c"></path><path d="M0 582L18 588.2C36 594.3 72 606.7 107.8 613.3C143.7 620 179.3 621 215.2 616.7C251 612.3 287 602.7 323 593.2C359 583.7 395 574.3 430.8 569.2C466.7 564 502.3 563 538.2 576.8C574 590.7 610 619.3 646 619.7C682 620 718 592 754 579.8C790 567.7 826 571.3 861.8 570C897.7 568.7 933.3 562.3 969.2 564.7C1005 567 1041 578 1077 594.3C1113 610.7 1149 632.3 1184.8 646.3C1220.7 660.3 1256.3 666.7 1292.2 663.5C1328 660.3 1364 647.7 1382 641.3L1400 635L1400 901L1382 901C1364 901 1328 901 1292.2 901C1256.3 901 1220.7 901 1184.8 901C1149 901 1113 901 1077 901C1041 901 1005 901 969.2 901C933.3 901 897.7 901 861.8 901C826 901 790 901 754 901C718 901 682 901 646 901C610 901 574 901 538.2 901C502.3 901 466.7 901 430.8 901C395 901 359 901 323 901C287 901 251 901 215.2 901C179.3 901 143.7 901 107.8 901C72 901 36 901 18 901L0 901Z" fill="#9cb600"></path><path d="M0 625L18 632.2C36 639.3 72 653.7 107.8 655.2C143.7 656.7 179.3 645.3 215.2 648.8C251 652.3 287 670.7 323 664C359 657.3 395 625.7 430.8 618.7C466.7 611.7 502.3 629.3 538.2 642.5C574 655.7 610 664.3 646 659C682 653.7 718 634.3 754 637.7C790 641 826 667 861.8 681.2C897.7 695.3 933.3 697.7 969.2 685.5C1005 673.3 1041 646.7 1077 637.5C1113 628.3 1149 636.7 1184.8 636.7C1220.7 636.7 1256.3 628.3 1292.2 619.7C1328 611 1364 602 1382 597.5L1400 593L1400 901L1382 901C1364 901 1328 901 1292.2 901C1256.3 901 1220.7 901 1184.8 901C1149 901 1113 901 1077 901C1041 901 1005 901 969.2 901C933.3 901 897.7 901 861.8 901C826 901 790 901 754 901C718 901 682 901 646 901C610 901 574 901 538.2 901C502.3 901 466.7 901 430.8 901C395 901 359 901 323 901C287 901 251 901 215.2 901C179.3 901 143.7 901 107.8 901C72 901 36 901 18 901L0 901Z" fill="#b1ad00"></path><path d="M0 683L18 674.7C36 666.3 72 649.7 107.8 642.3C143.7 635 179.3 637 215.2 642C251 647 287 655 323 655.3C359 655.7 395 648.3 430.8 653.7C466.7 659 502.3 677 538.2 691.3C574 705.7 610 716.3 646 712.5C682 708.7 718 690.3 754 688C790 685.7 826 699.3 861.8 696.8C897.7 694.3 933.3 675.7 969.2 672.7C1005 669.7 1041 682.3 1077 687.7C1113 693 1149 691 1184.8 685.3C1220.7 679.7 1256.3 670.3 1292.2 675C1328 679.7 1364 698.3 1382 707.7L1400 717L1400 901L1382 901C1364 901 1328 901 1292.2 901C1256.3 901 1220.7 901 1184.8 901C1149 901 1113 901 1077 901C1041 901 1005 901 969.2 901C933.3 901 897.7 901 861.8 901C826 901 790 901 754 901C718 901 682 901 646 901C610 901 574 901 538.2 901C502.3 901 466.7 901 430.8 901C395 901 359 901 323 901C287 901 251 901 215.2 901C179.3 901 143.7 901 107.8 901C72 901 36 901 18 901L0 901Z" fill="#c4a500"></path><path d="M0 676L18 674C36 672 72 668 107.8 664.8C143.7 661.7 179.3 659.3 215.2 672.3C251 685.3 287 713.7 323 725.7C359 737.7 395 733.3 430.8 728.7C466.7 724 502.3 719 538.2 716.2C574 713.3 610 712.7 646 711.8C682 711 718 710 754 712C790 714 826 719 861.8 711.5C897.7 704 933.3 684 969.2 680.2C1005 676.3 1041 688.7 1077 698.3C1113 708 1149 715 1184.8 712.7C1220.7 710.3 1256.3 698.7 1292.2 697.8C1328 697 1364 707 1382 712L1400 717L1400 901L1382 901C1364 901 1328 901 1292.2 901C1256.3 901 1220.7 901 1184.8 901C1149 901 1113 901 1077 901C1041 901 1005 901 969.2 901C933.3 901 897.7 901 861.8 901C826 901 790 901 754 901C718 901 682 901 646 901C610 901 574 901 538.2 901C502.3 901 466.7 901 430.8 901C395 901 359 901 323 901C287 901 251 901 215.2 901C179.3 901 143.7 901 107.8 901C72 901 36 901 18 901L0 901Z" fill="#d49b12"></path><path d="M0 723L18 726.8C36 730.7 72 738.3 107.8 738.5C143.7 738.7 179.3 731.3 215.2 735.2C251 739 287 754 323 763.2C359 772.3 395 775.7 430.8 771C466.7 766.3 502.3 753.7 538.2 745.8C574 738 610 735 646 732.2C682 729.3 718 726.7 754 734.7C790 742.7 826 761.3 861.8 765.3C897.7 769.3 933.3 758.7 969.2 757.3C1005 756 1041 764 1077 763.5C1113 763 1149 754 1184.8 748.2C1220.7 742.3 1256.3 739.7 1292.2 740.7C1328 741.7 1364 746.3 1382 748.7L1400 751L1400 901L1382 901C1364 901 1328 901 1292.2 901C1256.3 901 1220.7 901 1184.8 901C1149 901 1113 901 1077 901C1041 901 1005 901 969.2 901C933.3 901 897.7 901 861.8 901C826 901 790 901 754 901C718 901 682 901 646 901C610 901 574 901 538.2 901C502.3 901 466.7 901 430.8 901C395 901 359 901 323 901C287 901 251 901 215.2 901C179.3 901 143.7 901 107.8 901C72 901 36 901 18 901L0 901Z" fill="#e19225"></path><path d="M0 812L18 810.2C36 808.3 72 804.7 107.8 793.5C143.7 782.3 179.3 763.7 215.2 757.3C251 751 287 757 323 762.2C359 767.3 395 771.7 430.8 780.2C466.7 788.7 502.3 801.3 538.2 798C574 794.7 610 775.3 646 767.2C682 759 718 762 754 761.3C790 760.7 826 756.3 861.8 753.5C897.7 750.7 933.3 749.3 969.2 749C1005 748.7 1041 749.3 1077 759.7C1113 770 1149 790 1184.8 791.2C1220.7 792.3 1256.3 774.7 1292.2 762.2C1328 749.7 1364 742.3 1382 738.7L1400 735L1400 901L1382 901C1364 901 1328 901 1292.2 901C1256.3 901 1220.7 901 1184.8 901C1149 901 1113 901 1077 901C1041 901 1005 901 969.2 901C933.3 901 897.7 901 861.8 901C826 901 790 901 754 901C718 901 682 901 646 901C610 901 574 901 538.2 901C502.3 901 466.7 901 430.8 901C395 901 359 901 323 901C287 901 251 901 215.2 901C179.3 901 143.7 901 107.8 901C72 901 36 901 18 901L0 901Z" fill="#ec8936"></path><path d="M0 802L18 799C36 796 72 790 107.8 789.5C143.7 789 179.3 794 215.2 790.5C251 787 287 775 323 771.2C359 767.3 395 771.7 430.8 783.7C466.7 795.7 502.3 815.3 538.2 823.2C574 831 610 827 646 824.3C682 821.7 718 820.3 754 814.2C790 808 826 797 861.8 795.7C897.7 794.3 933.3 802.7 969.2 810.8C1005 819 1041 827 1077 819.7C1113 812.3 1149 789.7 1184.8 780C1220.7 770.3 1256.3 773.7 1292.2 785.3C1328 797 1364 817 1382 827L1400 837L1400 901L1382 901C1364 901 1328 901 1292.2 901C1256.3 901 1220.7 901 1184.8 901C1149 901 1113 901 1077 901C1041 901 1005 901 969.2 901C933.3 901 897.7 901 861.8 901C826 901 790 901 754 901C718 901 682 901 646 901C610 901 574 901 538.2 901C502.3 901 466.7 901 430.8 901C395 901 359 901 323 901C287 901 251 901 215.2 901C179.3 901 143.7 901 107.8 901C72 901 36 901 18 901L0 901Z" fill="#f38047"></path><path d="M0 846L18 844C36 842 72 838 107.8 841.8C143.7 845.7 179.3 857.3 215.2 861.5C251 865.7 287 862.3 323 853.8C359 845.3 395 831.7 430.8 831C466.7 830.3 502.3 842.7 538.2 839.5C574 836.3 610 817.7 646 817.8C682 818 718 837 754 841.5C790 846 826 836 861.8 834.2C897.7 832.3 933.3 838.7 969.2 835.3C1005 832 1041 819 1077 813.8C1113 808.7 1149 811.3 1184.8 814.2C1220.7 817 1256.3 820 1292.2 827.7C1328 835.3 1364 847.7 1382 853.8L1400 860L1400 901L1382 901C1364 901 1328 901 1292.2 901C1256.3 901 1220.7 901 1184.8 901C1149 901 1113 901 1077 901C1041 901 1005 901 969.2 901C933.3 901 897.7 901 861.8 901C826 901 790 901 754 901C718 901 682 901 646 901C610 901 574 901 538.2 901C502.3 901 466.7 901 430.8 901C395 901 359 901 323 901C287 901 251 901 215.2 901C179.3 901 143.7 901 107.8 901C72 901 36 901 18 901L0 901Z" fill="#f87857"></path><path d="M0 839L18 840.5C36 842 72 845 107.8 846C143.7 847 179.3 846 215.2 848C251 850 287 855 323 855.7C359 856.3 395 852.7 430.8 856.2C466.7 859.7 502.3 870.3 538.2 869.7C574 869 610 857 646 851.3C682 845.7 718 846.3 754 852C790 857.7 826 868.3 861.8 876.7C897.7 885 933.3 891 969.2 886.5C1005 882 1041 867 1077 856.8C1113 846.7 1149 841.3 1184.8 841.7C1220.7 842 1256.3 848 1292.2 851C1328 854 1364 854 1382 854L1400 854L1400 901L1382 901C1364 901 1328 901 1292.2 901C1256.3 901 1220.7 901 1184.8 901C1149 901 1113 901 1077 901C1041 901 1005 901 969.2 901C933.3 901 897.7 901 861.8 901C826 901 790 901 754 901C718 901 682 901 646 901C610 901 574 901 538.2 901C502.3 901 466.7 901 430.8 901C395 901 359 901 323 901C287 901 251 901 215.2 901C179.3 901 143.7 901 107.8 901C72 901 36 901 18 901L0 901Z" fill="#fa7268"></path></svg>