<svg id="visual" viewBox="0 0 2100 100" width="2100" height="100" xmlns="http://www.w3.org/2000/svg" xmlns:xlink="http://www.w3.org/1999/xlink" version="1.1"><rect x="0" y="0" width="2100" height="100" fill="#000000"></rect><path d="M0 41L27 37.8C54 34.7 108 28.3 161.8 26.5C215.7 24.7 269.3 27.3 323.2 29.2C377 31 431 32 484.8 34.7C538.7 37.3 592.3 41.7 646.2 40.7C700 39.7 754 33.3 807.8 33.2C861.7 33 915.3 39 969.2 39.3C1023 39.7 1077 34.3 1130.8 30.8C1184.7 27.3 1238.3 25.7 1292.2 28.3C1346 31 1400 38 1453.8 38.3C1507.7 38.7 1561.3 32.3 1615.2 29C1669 25.7 1723 25.3 1776.8 28.3C1830.7 31.3 1884.3 37.7 1938.2 36.8C1992 36 2046 28 2073 24L2100 20L2100 101L2073 101C2046 101 1992 101 1938.2 101C1884.3 101 1830.7 101 1776.8 101C1723 101 1669 101 1615.2 101C1561.3 101 1507.7 101 1453.8 101C1400 101 1346 101 1292.2 101C1238.3 101 1184.7 101 1130.8 101C1077 101 1023 101 969.2 101C915.3 101 861.7 101 807.8 101C754 101 700 101 646.2 101C592.3 101 538.7 101 484.8 101C431 101 377 101 323.2 101C269.3 101 215.7 101 161.8 101C108 101 54 101 27 101L0 101Z" fill="#2dca4b"></path><path d="M0 35L27 35.7C54 36.3 108 37.7 161.8 36.5C215.7 35.3 269.3 31.7 323.2 31.3C377 31 431 34 484.8 35.5C538.7 37 592.3 37 646.2 37.5C700 38 754 39 807.8 41.7C861.7 44.3 915.3 48.7 969.2 46.7C1023 44.7 1077 36.3 1130.8 36.8C1184.7 37.3 1238.3 46.7 1292.2 46.8C1346 47 1400 38 1453.8 34.8C1507.7 31.7 1561.3 34.3 1615.2 36.8C1669 39.3 1723 41.7 1776.8 40.5C1830.7 39.3 1884.3 34.7 1938.2 36.7C1992 38.7 2046 47.3 2073 51.7L2100 56L2100 101L2073 101C2046 101 1992 101 1938.2 101C1884.3 101 1830.7 101 1776.8 101C1723 101 1669 101 1615.2 101C1561.3 101 1507.7 101 1453.8 101C1400 101 1346 101 1292.2 101C1238.3 101 1184.7 101 1130.8 101C1077 101 1023 101 969.2 101C915.3 101 861.7 101 807.8 101C754 101 700 101 646.2 101C592.3 101 538.7 101 484.8 101C431 101 377 101 323.2 101C269.3 101 215.7 101 161.8 101C108 101 54 101 27 101L0 101Z" fill="#23ad36"></path><path d="M0 47L27 46.2C54 45.3 108 43.7 161.8 43.8C215.7 44 269.3 46 323.2 47.2C377 48.3 431 48.7 484.8 50.2C538.7 51.7 592.3 54.3 646.2 54.5C700 54.7 754 52.3 807.8 51.2C861.7 50 915.3 50 969.2 47.5C1023 45 1077 40 1130.8 37.7C1184.7 35.3 1238.3 35.7 1292.2 36.5C1346 37.3 1400 38.7 1453.8 40.3C1507.7 42 1561.3 44 1615.2 43.5C1669 43 1723 40 1776.8 40.7C1830.7 41.3 1884.3 45.7 1938.2 49C1992 52.3 2046 54.7 2073 55.8L2100 57L2100 101L2073 101C2046 101 1992 101 1938.2 101C1884.3 101 1830.7 101 1776.8 101C1723 101 1669 101 1615.2 101C1561.3 101 1507.7 101 1453.8 101C1400 101 1346 101 1292.2 101C1238.3 101 1184.7 101 1130.8 101C1077 101 1023 101 969.2 101C915.3 101 861.7 101 807.8 101C754 101 700 101 646.2 101C592.3 101 538.7 101 484.8 101C431 101 377 101 323.2 101C269.3 101 215.7 101 161.8 101C108 101 54 101 27 101L0 101Z" fill="#189021"></path><path d="M0 68L27 64.5C54 61 108 54 161.8 50.3C215.7 46.7 269.3 46.3 323.2 48C377 49.7 431 53.3 484.8 53.8C538.7 54.3 592.3 51.7 646.2 51.8C700 52 754 55 807.8 54.8C861.7 54.7 915.3 51.3 969.2 52.3C1023 53.3 1077 58.7 1130.8 58.2C1184.7 57.7 1238.3 51.3 1292.2 51.3C1346 51.3 1400 57.7 1453.8 57.7C1507.7 57.7 1561.3 51.3 1615.2 51.5C1669 51.7 1723 58.3 1776.8 59.8C1830.7 61.3 1884.3 57.7 1938.2 57.5C1992 57.3 2046 60.7 2073 62.3L2100 64L2100 101L2073 101C2046 101 1992 101 1938.2 101C1884.3 101 1830.7 101 1776.8 101C1723 101 1669 101 1615.2 101C1561.3 101 1507.7 101 1453.8 101C1400 101 1346 101 1292.2 101C1238.3 101 1184.7 101 1130.8 101C1077 101 1023 101 969.2 101C915.3 101 861.7 101 807.8 101C754 101 700 101 646.2 101C592.3 101 538.7 101 484.8 101C431 101 377 101 323.2 101C269.3 101 215.7 101 161.8 101C108 101 54 101 27 101L0 101Z" fill="#08750b"></path><path d="M0 72L27 71.2C54 70.3 108 68.7 161.8 68.3C215.7 68 269.3 69 323.2 68.2C377 67.3 431 64.7 484.8 63.2C538.7 61.7 592.3 61.3 646.2 62.5C700 63.7 754 66.3 807.8 65.3C861.7 64.3 915.3 59.7 969.2 58C1023 56.3 1077 57.7 1130.8 58C1184.7 58.3 1238.3 57.7 1292.2 58.3C1346 59 1400 61 1453.8 62.5C1507.7 64 1561.3 65 1615.2 67C1669 69 1723 72 1776.8 70.2C1830.7 68.3 1884.3 61.7 1938.2 58.7C1992 55.7 2046 56.3 2073 56.7L2100 57L2100 101L2073 101C2046 101 1992 101 1938.2 101C1884.3 101 1830.7 101 1776.8 101C1723 101 1669 101 1615.2 101C1561.3 101 1507.7 101 1453.8 101C1400 101 1346 101 1292.2 101C1238.3 101 1184.7 101 1130.8 101C1077 101 1023 101 969.2 101C915.3 101 861.7 101 807.8 101C754 101 700 101 646.2 101C592.3 101 538.7 101 484.8 101C431 101 377 101 323.2 101C269.3 101 215.7 101 161.8 101C108 101 54 101 27 101L0 101Z" fill="#005a00"></path><path d="M0 65L27 66.3C54 67.7 108 70.3 161.8 72.2C215.7 74 269.3 75 323.2 75.7C377 76.3 431 76.7 484.8 77.2C538.7 77.7 592.3 78.3 646.2 77.5C700 76.7 754 74.3 807.8 72C861.7 69.7 915.3 67.3 969.2 68C1023 68.7 1077 72.3 1130.8 72.7C1184.7 73 1238.3 70 1292.2 69.8C1346 69.7 1400 72.3 1453.8 74.5C1507.7 76.7 1561.3 78.3 1615.2 77.2C1669 76 1723 72 1776.8 72.3C1830.7 72.7 1884.3 77.3 1938.2 76.8C1992 76.3 2046 70.7 2073 67.8L2100 65L2100 101L2073 101C2046 101 1992 101 1938.2 101C1884.3 101 1830.7 101 1776.8 101C1723 101 1669 101 1615.2 101C1561.3 101 1507.7 101 1453.8 101C1400 101 1346 101 1292.2 101C1238.3 101 1184.7 101 1130.8 101C1077 101 1023 101 969.2 101C915.3 101 861.7 101 807.8 101C754 101 700 101 646.2 101C592.3 101 538.7 101 484.8 101C431 101 377 101 323.2 101C269.3 101 215.7 101 161.8 101C108 101 54 101 27 101L0 101Z" fill="#004000"></path><path d="M0 81L27 81.2C54 81.3 108 81.7 161.8 81.3C215.7 81 269.3 80 323.2 79.5C377 79 431 79 484.8 80.2C538.7 81.3 592.3 83.7 646.2 83.2C700 82.7 754 79.3 807.8 79C861.7 78.7 915.3 81.3 969.2 81.3C1023 81.3 1077 78.7 1130.8 77.7C1184.7 76.7 1238.3 77.3 1292.2 77.7C1346 78 1400 78 1453.8 77.8C1507.7 77.7 1561.3 77.3 1615.2 77.8C1669 78.3 1723 79.7 1776.8 81C1830.7 82.3 1884.3 83.7 1938.2 85C1992 86.3 2046 87.7 2073 88.3L2100 89L2100 101L2073 101C2046 101 1992 101 1938.2 101C1884.3 101 1830.7 101 1776.8 101C1723 101 1669 101 1615.2 101C1561.3 101 1507.7 101 1453.8 101C1400 101 1346 101 1292.2 101C1238.3 101 1184.7 101 1130.8 101C1077 101 1023 101 969.2 101C915.3 101 861.7 101 807.8 101C754 101 700 101 646.2 101C592.3 101 538.7 101 484.8 101C431 101 377 101 323.2 101C269.3 101 215.7 101 161.8 101C108 101 54 101 27 101L0 101Z" fill="#002900"></path><path d="M0 88L27 89.3C54 90.7 108 93.3 161.8 93.3C215.7 93.3 269.3 90.7 323.2 90C377 89.3 431 90.7 484.8 91.8C538.7 93 592.3 94 646.2 93.5C700 93 754 91 807.8 90C861.7 89 915.3 89 969.2 89.3C1023 89.7 1077 90.3 1130.8 89.8C1184.7 89.3 1238.3 87.7 1292.2 87.8C1346 88 1400 90 1453.8 91C1507.7 92 1561.3 92 1615.2 90.5C1669 89 1723 86 1776.8 86.5C1830.7 87 1884.3 91 1938.2 92.2C1992 93.3 2046 91.7 2073 90.8L2100 90L2100 101L2073 101C2046 101 1992 101 1938.2 101C1884.3 101 1830.7 101 1776.8 101C1723 101 1669 101 1615.2 101C1561.3 101 1507.7 101 1453.8 101C1400 101 1346 101 1292.2 101C1238.3 101 1184.7 101 1130.8 101C1077 101 1023 101 969.2 101C915.3 101 861.7 101 807.8 101C754 101 700 101 646.2 101C592.3 101 538.7 101 484.8 101C431 101 377 101 323.2 101C269.3 101 215.7 101 161.8 101C108 101 54 101 27 101L0 101Z" fill="#000000"></path></svg>