<svg id="visual" viewBox="0 0 900 300" width="900" height="300" xmlns="http://www.w3.org/2000/svg" xmlns:xlink="http://www.w3.org/1999/xlink" version="1.1"><rect x="0" y="0" width="900" height="300" fill="#001220"></rect><path d="M0 58L11.5 60.2C23 62.3 46 66.7 69 71.2C92 75.7 115 80.3 138.2 87.8C161.3 95.3 184.7 105.7 207.8 105.8C231 106 254 96 277 96C300 96 323 106 346 116.2C369 126.3 392 136.7 415.2 134.3C438.3 132 461.7 117 484.8 110.8C508 104.7 531 107.3 554 111.2C577 115 600 120 623 118C646 116 669 107 692.2 106.7C715.3 106.3 738.7 114.7 761.8 107.5C785 100.3 808 77.7 831 74.5C854 71.3 877 87.7 888.5 95.8L900 104L900 301L888.5 301C877 301 854 301 831 301C808 301 785 301 761.8 301C738.7 301 715.3 301 692.2 301C669 301 646 301 623 301C600 301 577 301 554 301C531 301 508 301 484.8 301C461.7 301 438.3 301 415.2 301C392 301 369 301 346 301C323 301 300 301 277 301C254 301 231 301 207.8 301C184.7 301 161.3 301 138.2 301C115 301 92 301 69 301C46 301 23 301 11.5 301L0 301Z" fill="#2dca4b"></path><path d="M0 84L11.5 87C23 90 46 96 69 96.8C92 97.7 115 93.3 138.2 103C161.3 112.7 184.7 136.3 207.8 140.3C231 144.3 254 128.7 277 128.2C300 127.7 323 142.3 346 138.3C369 134.3 392 111.7 415.2 106.7C438.3 101.7 461.7 114.3 484.8 123.3C508 132.3 531 137.7 554 141.8C577 146 600 149 623 139.3C646 129.7 669 107.3 692.2 108.2C715.3 109 738.7 133 761.8 146C785 159 808 161 831 148.3C854 135.7 877 108.3 888.5 94.7L900 81L900 301L888.5 301C877 301 854 301 831 301C808 301 785 301 761.8 301C738.7 301 715.3 301 692.2 301C669 301 646 301 623 301C600 301 577 301 554 301C531 301 508 301 484.8 301C461.7 301 438.3 301 415.2 301C392 301 369 301 346 301C323 301 300 301 277 301C254 301 231 301 207.8 301C184.7 301 161.3 301 138.2 301C115 301 92 301 69 301C46 301 23 301 11.5 301L0 301Z" fill="#7cb60d"></path><path d="M0 129L11.5 128.5C23 128 46 127 69 135.8C92 144.7 115 163.3 138.2 167.7C161.3 172 184.7 162 207.8 152.5C231 143 254 134 277 139.5C300 145 323 165 346 167.8C369 170.7 392 156.3 415.2 143.5C438.3 130.7 461.7 119.3 484.8 120.7C508 122 531 136 554 141.8C577 147.7 600 145.3 623 141C646 136.7 669 130.3 692.2 126.8C715.3 123.3 738.7 122.7 761.8 129.3C785 136 808 150 831 149.5C854 149 877 134 888.5 126.5L900 119L900 301L888.5 301C877 301 854 301 831 301C808 301 785 301 761.8 301C738.7 301 715.3 301 692.2 301C669 301 646 301 623 301C600 301 577 301 554 301C531 301 508 301 484.8 301C461.7 301 438.3 301 415.2 301C392 301 369 301 346 301C323 301 300 301 277 301C254 301 231 301 207.8 301C184.7 301 161.3 301 138.2 301C115 301 92 301 69 301C46 301 23 301 11.5 301L0 301Z" fill="#a4a000"></path><path d="M0 209L11.5 197.8C23 186.7 46 164.3 69 156.7C92 149 115 156 138.2 160.3C161.3 164.7 184.7 166.3 207.8 163C231 159.7 254 151.3 277 150.2C300 149 323 155 346 161.5C369 168 392 175 415.2 176.3C438.3 177.7 461.7 173.3 484.8 173.7C508 174 531 179 554 183.7C577 188.3 600 192.7 623 185.5C646 178.3 669 159.7 692.2 149.8C715.3 140 738.7 139 761.8 142C785 145 808 152 831 154.7C854 157.3 877 155.7 888.5 154.8L900 154L900 301L888.5 301C877 301 854 301 831 301C808 301 785 301 761.8 301C738.7 301 715.3 301 692.2 301C669 301 646 301 623 301C600 301 577 301 554 301C531 301 508 301 484.8 301C461.7 301 438.3 301 415.2 301C392 301 369 301 346 301C323 301 300 301 277 301C254 301 231 301 207.8 301C184.7 301 161.3 301 138.2 301C115 301 92 301 69 301C46 301 23 301 11.5 301L0 301Z" fill="#bf8700"></path><path d="M0 203L11.5 206.7C23 210.3 46 217.7 69 216.7C92 215.7 115 206.3 138.2 203.3C161.3 200.3 184.7 203.7 207.8 198.2C231 192.7 254 178.3 277 174.2C300 170 323 176 346 178.7C369 181.3 392 180.7 415.2 186.8C438.3 193 461.7 206 484.8 203.3C508 200.7 531 182.3 554 180.2C577 178 600 192 623 197C646 202 669 198 692.2 200.3C715.3 202.7 738.7 211.3 761.8 214.3C785 217.3 808 214.7 831 205.2C854 195.7 877 179.3 888.5 171.2L900 163L900 301L888.5 301C877 301 854 301 831 301C808 301 785 301 761.8 301C738.7 301 715.3 301 692.2 301C669 301 646 301 623 301C600 301 577 301 554 301C531 301 508 301 484.8 301C461.7 301 438.3 301 415.2 301C392 301 369 301 346 301C323 301 300 301 277 301C254 301 231 301 207.8 301C184.7 301 161.3 301 138.2 301C115 301 92 301 69 301C46 301 23 301 11.5 301L0 301Z" fill="#cf6d16"></path><path d="M0 244L11.5 240.3C23 236.7 46 229.3 69 229.7C92 230 115 238 138.2 235.8C161.3 233.7 184.7 221.3 207.8 219.5C231 217.7 254 226.3 277 223.7C300 221 323 207 346 205.2C369 203.3 392 213.7 415.2 217C438.3 220.3 461.7 216.7 484.8 217.7C508 218.7 531 224.3 554 223.2C577 222 600 214 623 214C646 214 669 222 692.2 229C715.3 236 738.7 242 761.8 244.2C785 246.3 808 244.7 831 244.7C854 244.7 877 246.3 888.5 247.2L900 248L900 301L888.5 301C877 301 854 301 831 301C808 301 785 301 761.8 301C738.7 301 715.3 301 692.2 301C669 301 646 301 623 301C600 301 577 301 554 301C531 301 508 301 484.8 301C461.7 301 438.3 301 415.2 301C392 301 369 301 346 301C323 301 300 301 277 301C254 301 231 301 207.8 301C184.7 301 161.3 301 138.2 301C115 301 92 301 69 301C46 301 23 301 11.5 301L0 301Z" fill="#d65133"></path><path d="M0 268L11.5 264.3C23 260.7 46 253.3 69 252.2C92 251 115 256 138.2 256.2C161.3 256.3 184.7 251.7 207.8 248C231 244.3 254 241.7 277 242.2C300 242.7 323 246.3 346 243.2C369 240 392 230 415.2 230.3C438.3 230.7 461.7 241.3 484.8 245.8C508 250.3 531 248.7 554 245.3C577 242 600 237 623 238.8C646 240.7 669 249.3 692.2 254.2C715.3 259 738.7 260 761.8 257.5C785 255 808 249 831 242.7C854 236.3 877 229.7 888.5 226.3L900 223L900 301L888.5 301C877 301 854 301 831 301C808 301 785 301 761.8 301C738.7 301 715.3 301 692.2 301C669 301 646 301 623 301C600 301 577 301 554 301C531 301 508 301 484.8 301C461.7 301 438.3 301 415.2 301C392 301 369 301 346 301C323 301 300 301 277 301C254 301 231 301 207.8 301C184.7 301 161.3 301 138.2 301C115 301 92 301 69 301C46 301 23 301 11.5 301L0 301Z" fill="#d4364e"></path><path d="M0 248L11.5 248.2C23 248.3 46 248.7 69 253.3C92 258 115 267 138.2 271.5C161.3 276 184.7 276 207.8 275.5C231 275 254 274 277 273.8C300 273.7 323 274.3 346 276.3C369 278.3 392 281.7 415.2 279.7C438.3 277.7 461.7 270.3 484.8 264.5C508 258.7 531 254.3 554 257.3C577 260.3 600 270.7 623 275.7C646 280.7 669 280.3 692.2 275C715.3 269.7 738.7 259.3 761.8 255.8C785 252.3 808 255.7 831 262.2C854 268.7 877 278.3 888.5 283.2L900 288L900 301L888.5 301C877 301 854 301 831 301C808 301 785 301 761.8 301C738.7 301 715.3 301 692.2 301C669 301 646 301 623 301C600 301 577 301 554 301C531 301 508 301 484.8 301C461.7 301 438.3 301 415.2 301C392 301 369 301 346 301C323 301 300 301 277 301C254 301 231 301 207.8 301C184.7 301 161.3 301 138.2 301C115 301 92 301 69 301C46 301 23 301 11.5 301L0 301Z" fill="#c62368"></path></svg>