<svg id="visual" viewBox="0 0 1800 300" width="1800" height="300" xmlns="http://www.w3.org/2000/svg" xmlns:xlink="http://www.w3.org/1999/xlink" version="1.1"><rect x="0" y="0" width="1800" height="300" fill="#001220"></rect><path d="M0 120L23 115.3C46 110.7 92 101.3 138.2 92.2C184.3 83 230.7 74 276.8 80.3C323 86.7 369 108.3 415.2 115.8C461.3 123.3 507.7 116.7 553.8 113.7C600 110.7 646 111.3 692.2 115.8C738.3 120.3 784.7 128.7 830.8 133.7C877 138.7 923 140.3 969.2 136.7C1015.3 133 1061.7 124 1107.8 122.8C1154 121.7 1200 128.3 1246.2 122.7C1292.3 117 1338.7 99 1384.8 89.3C1431 79.7 1477 78.3 1523.2 78.2C1569.3 78 1615.7 79 1661.8 80.7C1708 82.3 1754 84.7 1777 85.8L1800 87L1800 301L1777 301C1754 301 1708 301 1661.8 301C1615.7 301 1569.3 301 1523.2 301C1477 301 1431 301 1384.8 301C1338.7 301 1292.3 301 1246.2 301C1200 301 1154 301 1107.8 301C1061.7 301 1015.3 301 969.2 301C923 301 877 301 830.8 301C784.7 301 738.3 301 692.2 301C646 301 600 301 553.8 301C507.7 301 461.3 301 415.2 301C369 301 323 301 276.8 301C230.7 301 184.3 301 138.2 301C92 301 46 301 23 301L0 301Z" fill="#2dca4b"></path><path d="M0 170L23 170.2C46 170.3 92 170.7 138.2 156.3C184.3 142 230.7 113 276.8 107.5C323 102 369 120 415.2 120.7C461.3 121.3 507.7 104.7 553.8 109.5C600 114.3 646 140.7 692.2 140.8C738.3 141 784.7 115 830.8 101.5C877 88 923 87 969.2 88.5C1015.3 90 1061.7 94 1107.8 106.7C1154 119.3 1200 140.7 1246.2 137.8C1292.3 135 1338.7 108 1384.8 102.3C1431 96.7 1477 112.3 1523.2 117.8C1569.3 123.3 1615.7 118.7 1661.8 117.7C1708 116.7 1754 119.3 1777 120.7L1800 122L1800 301L1777 301C1754 301 1708 301 1661.8 301C1615.7 301 1569.3 301 1523.2 301C1477 301 1431 301 1384.8 301C1338.7 301 1292.3 301 1246.2 301C1200 301 1154 301 1107.8 301C1061.7 301 1015.3 301 969.2 301C923 301 877 301 830.8 301C784.7 301 738.3 301 692.2 301C646 301 600 301 553.8 301C507.7 301 461.3 301 415.2 301C369 301 323 301 276.8 301C230.7 301 184.3 301 138.2 301C92 301 46 301 23 301L0 301Z" fill="#7cb60d"></path><path d="M0 118L23 123.3C46 128.7 92 139.3 138.2 149.2C184.3 159 230.7 168 276.8 167C323 166 369 155 415.2 153.7C461.3 152.3 507.7 160.7 553.8 155.3C600 150 646 131 692.2 125.8C738.3 120.7 784.7 129.3 830.8 135.2C877 141 923 144 969.2 143.5C1015.3 143 1061.7 139 1107.8 145C1154 151 1200 167 1246.2 165C1292.3 163 1338.7 143 1384.8 132.7C1431 122.3 1477 121.7 1523.2 120.2C1569.3 118.7 1615.7 116.3 1661.8 120.2C1708 124 1754 134 1777 139L1800 144L1800 301L1777 301C1754 301 1708 301 1661.8 301C1615.7 301 1569.3 301 1523.2 301C1477 301 1431 301 1384.8 301C1338.7 301 1292.3 301 1246.2 301C1200 301 1154 301 1107.8 301C1061.7 301 1015.3 301 969.2 301C923 301 877 301 830.8 301C784.7 301 738.3 301 692.2 301C646 301 600 301 553.8 301C507.7 301 461.3 301 415.2 301C369 301 323 301 276.8 301C230.7 301 184.3 301 138.2 301C92 301 46 301 23 301L0 301Z" fill="#a4a000"></path><path d="M0 166L23 168.8C46 171.7 92 177.3 138.2 179.8C184.3 182.3 230.7 181.7 276.8 176.3C323 171 369 161 415.2 162.5C461.3 164 507.7 177 553.8 180.8C600 184.7 646 179.3 692.2 177.5C738.3 175.7 784.7 177.3 830.8 180.7C877 184 923 189 969.2 184.2C1015.3 179.3 1061.7 164.7 1107.8 163.2C1154 161.7 1200 173.3 1246.2 181.2C1292.3 189 1338.7 193 1384.8 191.3C1431 189.7 1477 182.3 1523.2 180.3C1569.3 178.3 1615.7 181.7 1661.8 176C1708 170.3 1754 155.7 1777 148.3L1800 141L1800 301L1777 301C1754 301 1708 301 1661.8 301C1615.7 301 1569.3 301 1523.2 301C1477 301 1431 301 1384.8 301C1338.7 301 1292.3 301 1246.2 301C1200 301 1154 301 1107.8 301C1061.7 301 1015.3 301 969.2 301C923 301 877 301 830.8 301C784.7 301 738.3 301 692.2 301C646 301 600 301 553.8 301C507.7 301 461.3 301 415.2 301C369 301 323 301 276.8 301C230.7 301 184.3 301 138.2 301C92 301 46 301 23 301L0 301Z" fill="#bf8700"></path><path d="M0 176L23 180C46 184 92 192 138.2 193C184.3 194 230.7 188 276.8 191.3C323 194.7 369 207.3 415.2 206.7C461.3 206 507.7 192 553.8 185.2C600 178.3 646 178.7 692.2 176.3C738.3 174 784.7 169 830.8 169.8C877 170.7 923 177.3 969.2 180.8C1015.3 184.3 1061.7 184.7 1107.8 186.2C1154 187.7 1200 190.3 1246.2 191.8C1292.3 193.3 1338.7 193.7 1384.8 198.8C1431 204 1477 214 1523.2 217.8C1569.3 221.7 1615.7 219.3 1661.8 210.5C1708 201.7 1754 186.3 1777 178.7L1800 171L1800 301L1777 301C1754 301 1708 301 1661.8 301C1615.7 301 1569.3 301 1523.2 301C1477 301 1431 301 1384.8 301C1338.7 301 1292.3 301 1246.2 301C1200 301 1154 301 1107.8 301C1061.7 301 1015.3 301 969.2 301C923 301 877 301 830.8 301C784.7 301 738.3 301 692.2 301C646 301 600 301 553.8 301C507.7 301 461.3 301 415.2 301C369 301 323 301 276.8 301C230.7 301 184.3 301 138.2 301C92 301 46 301 23 301L0 301Z" fill="#cf6d16"></path><path d="M0 218L23 214.2C46 210.3 92 202.7 138.2 204.7C184.3 206.7 230.7 218.3 276.8 222.7C323 227 369 224 415.2 226.8C461.3 229.7 507.7 238.3 553.8 234C600 229.7 646 212.3 692.2 209.2C738.3 206 784.7 217 830.8 222.3C877 227.7 923 227.3 969.2 224.3C1015.3 221.3 1061.7 215.7 1107.8 211.3C1154 207 1200 204 1246.2 205.8C1292.3 207.7 1338.7 214.3 1384.8 214.5C1431 214.7 1477 208.3 1523.2 205.2C1569.3 202 1615.7 202 1661.8 207.2C1708 212.3 1754 222.7 1777 227.8L1800 233L1800 301L1777 301C1754 301 1708 301 1661.8 301C1615.7 301 1569.3 301 1523.2 301C1477 301 1431 301 1384.8 301C1338.7 301 1292.3 301 1246.2 301C1200 301 1154 301 1107.8 301C1061.7 301 1015.3 301 969.2 301C923 301 877 301 830.8 301C784.7 301 738.3 301 692.2 301C646 301 600 301 553.8 301C507.7 301 461.3 301 415.2 301C369 301 323 301 276.8 301C230.7 301 184.3 301 138.2 301C92 301 46 301 23 301L0 301Z" fill="#d65133"></path><path d="M0 225L23 231.8C46 238.7 92 252.3 138.2 259.2C184.3 266 230.7 266 276.8 258.7C323 251.3 369 236.7 415.2 232.3C461.3 228 507.7 234 553.8 239.7C600 245.3 646 250.7 692.2 250C738.3 249.3 784.7 242.7 830.8 241.3C877 240 923 244 969.2 245.2C1015.3 246.3 1061.7 244.7 1107.8 241.7C1154 238.7 1200 234.3 1246.2 230.5C1292.3 226.7 1338.7 223.3 1384.8 222.8C1431 222.3 1477 224.7 1523.2 227C1569.3 229.3 1615.7 231.7 1661.8 234.3C1708 237 1754 240 1777 241.5L1800 243L1800 301L1777 301C1754 301 1708 301 1661.8 301C1615.7 301 1569.3 301 1523.2 301C1477 301 1431 301 1384.8 301C1338.7 301 1292.3 301 1246.2 301C1200 301 1154 301 1107.8 301C1061.7 301 1015.3 301 969.2 301C923 301 877 301 830.8 301C784.7 301 738.3 301 692.2 301C646 301 600 301 553.8 301C507.7 301 461.3 301 415.2 301C369 301 323 301 276.8 301C230.7 301 184.3 301 138.2 301C92 301 46 301 23 301L0 301Z" fill="#d4364e"></path><path d="M0 264L23 265.7C46 267.3 92 270.7 138.2 273.8C184.3 277 230.7 280 276.8 276C323 272 369 261 415.2 261.7C461.3 262.3 507.7 274.7 553.8 280.3C600 286 646 285 692.2 280.8C738.3 276.7 784.7 269.3 830.8 270.3C877 271.3 923 280.7 969.2 284.8C1015.3 289 1061.7 288 1107.8 285.8C1154 283.7 1200 280.3 1246.2 275.8C1292.3 271.3 1338.7 265.7 1384.8 262.3C1431 259 1477 258 1523.2 256.8C1569.3 255.7 1615.7 254.3 1661.8 257.7C1708 261 1754 269 1777 273L1800 277L1800 301L1777 301C1754 301 1708 301 1661.8 301C1615.7 301 1569.3 301 1523.2 301C1477 301 1431 301 1384.8 301C1338.7 301 1292.3 301 1246.2 301C1200 301 1154 301 1107.8 301C1061.7 301 1015.3 301 969.2 301C923 301 877 301 830.8 301C784.7 301 738.3 301 692.2 301C646 301 600 301 553.8 301C507.7 301 461.3 301 415.2 301C369 301 323 301 276.8 301C230.7 301 184.3 301 138.2 301C92 301 46 301 23 301L0 301Z" fill="#c62368"></path></svg>