<svg id="visual" viewBox="0 0 900 300" width="900" height="300" xmlns="http://www.w3.org/2000/svg" xmlns:xlink="http://www.w3.org/1999/xlink" version="1.1"><rect x="0" y="0" width="900" height="300" fill="#001220"></rect><path d="M0 120L11.5 115.3C23 110.7 46 101.3 69 92.2C92 83 115 74 138.2 80.3C161.3 86.7 184.7 108.3 207.8 115.8C231 123.3 254 116.7 277 113.7C300 110.7 323 111.3 346 115.8C369 120.3 392 128.7 415.2 133.7C438.3 138.7 461.7 140.3 484.8 136.7C508 133 531 124 554 122.8C577 121.7 600 128.3 623 122.7C646 117 669 99 692.2 89.3C715.3 79.7 738.7 78.3 761.8 78.2C785 78 808 79 831 80.7C854 82.3 877 84.7 888.5 85.8L900 87L900 301L888.5 301C877 301 854 301 831 301C808 301 785 301 761.8 301C738.7 301 715.3 301 692.2 301C669 301 646 301 623 301C600 301 577 301 554 301C531 301 508 301 484.8 301C461.7 301 438.3 301 415.2 301C392 301 369 301 346 301C323 301 300 301 277 301C254 301 231 301 207.8 301C184.7 301 161.3 301 138.2 301C115 301 92 301 69 301C46 301 23 301 11.5 301L0 301Z" fill="#2dca4b"></path><path d="M0 170L11.5 170.2C23 170.3 46 170.7 69 156.3C92 142 115 113 138.2 107.5C161.3 102 184.7 120 207.8 120.7C231 121.3 254 104.7 277 109.5C300 114.3 323 140.7 346 140.8C369 141 392 115 415.2 101.5C438.3 88 461.7 87 484.8 88.5C508 90 531 94 554 106.7C577 119.3 600 140.7 623 137.8C646 135 669 108 692.2 102.3C715.3 96.7 738.7 112.3 761.8 117.8C785 123.3 808 118.7 831 117.7C854 116.7 877 119.3 888.5 120.7L900 122L900 301L888.5 301C877 301 854 301 831 301C808 301 785 301 761.8 301C738.7 301 715.3 301 692.2 301C669 301 646 301 623 301C600 301 577 301 554 301C531 301 508 301 484.8 301C461.7 301 438.3 301 415.2 301C392 301 369 301 346 301C323 301 300 301 277 301C254 301 231 301 207.8 301C184.7 301 161.3 301 138.2 301C115 301 92 301 69 301C46 301 23 301 11.5 301L0 301Z" fill="#7cb60d"></path><path d="M0 118L11.5 123.3C23 128.7 46 139.3 69 149.2C92 159 115 168 138.2 167C161.3 166 184.7 155 207.8 153.7C231 152.3 254 160.7 277 155.3C300 150 323 131 346 125.8C369 120.7 392 129.3 415.2 135.2C438.3 141 461.7 144 484.8 143.5C508 143 531 139 554 145C577 151 600 167 623 165C646 163 669 143 692.2 132.7C715.3 122.3 738.7 121.7 761.8 120.2C785 118.7 808 116.3 831 120.2C854 124 877 134 888.5 139L900 144L900 301L888.5 301C877 301 854 301 831 301C808 301 785 301 761.8 301C738.7 301 715.3 301 692.2 301C669 301 646 301 623 301C600 301 577 301 554 301C531 301 508 301 484.8 301C461.7 301 438.3 301 415.2 301C392 301 369 301 346 301C323 301 300 301 277 301C254 301 231 301 207.8 301C184.7 301 161.3 301 138.2 301C115 301 92 301 69 301C46 301 23 301 11.5 301L0 301Z" fill="#a4a000"></path><path d="M0 166L11.5 168.8C23 171.7 46 177.3 69 179.8C92 182.3 115 181.7 138.2 176.3C161.3 171 184.7 161 207.8 162.5C231 164 254 177 277 180.8C300 184.7 323 179.3 346 177.5C369 175.7 392 177.3 415.2 180.7C438.3 184 461.7 189 484.8 184.2C508 179.3 531 164.7 554 163.2C577 161.7 600 173.3 623 181.2C646 189 669 193 692.2 191.3C715.3 189.7 738.7 182.3 761.8 180.3C785 178.3 808 181.7 831 176C854 170.3 877 155.7 888.5 148.3L900 141L900 301L888.5 301C877 301 854 301 831 301C808 301 785 301 761.8 301C738.7 301 715.3 301 692.2 301C669 301 646 301 623 301C600 301 577 301 554 301C531 301 508 301 484.8 301C461.7 301 438.3 301 415.2 301C392 301 369 301 346 301C323 301 300 301 277 301C254 301 231 301 207.8 301C184.7 301 161.3 301 138.2 301C115 301 92 301 69 301C46 301 23 301 11.5 301L0 301Z" fill="#bf8700"></path><path d="M0 176L11.5 180C23 184 46 192 69 193C92 194 115 188 138.2 191.3C161.3 194.7 184.7 207.3 207.8 206.7C231 206 254 192 277 185.2C300 178.3 323 178.7 346 176.3C369 174 392 169 415.2 169.8C438.3 170.7 461.7 177.3 484.8 180.8C508 184.3 531 184.7 554 186.2C577 187.7 600 190.3 623 191.8C646 193.3 669 193.7 692.2 198.8C715.3 204 738.7 214 761.8 217.8C785 221.7 808 219.3 831 210.5C854 201.7 877 186.3 888.5 178.7L900 171L900 301L888.5 301C877 301 854 301 831 301C808 301 785 301 761.8 301C738.7 301 715.3 301 692.2 301C669 301 646 301 623 301C600 301 577 301 554 301C531 301 508 301 484.8 301C461.7 301 438.3 301 415.2 301C392 301 369 301 346 301C323 301 300 301 277 301C254 301 231 301 207.8 301C184.7 301 161.3 301 138.2 301C115 301 92 301 69 301C46 301 23 301 11.5 301L0 301Z" fill="#cf6d16"></path><path d="M0 218L11.5 214.2C23 210.3 46 202.7 69 204.7C92 206.7 115 218.3 138.2 222.7C161.3 227 184.7 224 207.8 226.8C231 229.7 254 238.3 277 234C300 229.7 323 212.3 346 209.2C369 206 392 217 415.2 222.3C438.3 227.7 461.7 227.3 484.8 224.3C508 221.3 531 215.7 554 211.3C577 207 600 204 623 205.8C646 207.7 669 214.3 692.2 214.5C715.3 214.7 738.7 208.3 761.8 205.2C785 202 808 202 831 207.2C854 212.3 877 222.7 888.5 227.8L900 233L900 301L888.5 301C877 301 854 301 831 301C808 301 785 301 761.8 301C738.7 301 715.3 301 692.2 301C669 301 646 301 623 301C600 301 577 301 554 301C531 301 508 301 484.8 301C461.7 301 438.3 301 415.2 301C392 301 369 301 346 301C323 301 300 301 277 301C254 301 231 301 207.8 301C184.7 301 161.3 301 138.2 301C115 301 92 301 69 301C46 301 23 301 11.5 301L0 301Z" fill="#d65133"></path><path d="M0 225L11.5 231.8C23 238.7 46 252.3 69 259.2C92 266 115 266 138.2 258.7C161.3 251.3 184.7 236.7 207.8 232.3C231 228 254 234 277 239.7C300 245.3 323 250.7 346 250C369 249.3 392 242.7 415.2 241.3C438.3 240 461.7 244 484.8 245.2C508 246.3 531 244.7 554 241.7C577 238.7 600 234.3 623 230.5C646 226.7 669 223.3 692.2 222.8C715.3 222.3 738.7 224.7 761.8 227C785 229.3 808 231.7 831 234.3C854 237 877 240 888.5 241.5L900 243L900 301L888.5 301C877 301 854 301 831 301C808 301 785 301 761.8 301C738.7 301 715.3 301 692.2 301C669 301 646 301 623 301C600 301 577 301 554 301C531 301 508 301 484.8 301C461.7 301 438.3 301 415.2 301C392 301 369 301 346 301C323 301 300 301 277 301C254 301 231 301 207.8 301C184.7 301 161.3 301 138.2 301C115 301 92 301 69 301C46 301 23 301 11.5 301L0 301Z" fill="#d4364e"></path><path d="M0 264L11.5 265.7C23 267.3 46 270.7 69 273.8C92 277 115 280 138.2 276C161.3 272 184.7 261 207.8 261.7C231 262.3 254 274.7 277 280.3C300 286 323 285 346 280.8C369 276.7 392 269.3 415.2 270.3C438.3 271.3 461.7 280.7 484.8 284.8C508 289 531 288 554 285.8C577 283.7 600 280.3 623 275.8C646 271.3 669 265.7 692.2 262.3C715.3 259 738.7 258 761.8 256.8C785 255.7 808 254.3 831 257.7C854 261 877 269 888.5 273L900 277L900 301L888.5 301C877 301 854 301 831 301C808 301 785 301 761.8 301C738.7 301 715.3 301 692.2 301C669 301 646 301 623 301C600 301 577 301 554 301C531 301 508 301 484.8 301C461.7 301 438.3 301 415.2 301C392 301 369 301 346 301C323 301 300 301 277 301C254 301 231 301 207.8 301C184.7 301 161.3 301 138.2 301C115 301 92 301 69 301C46 301 23 301 11.5 301L0 301Z" fill="#c62368"></path></svg>